<svg width="463" height="55" viewBox="0 0 463 55" fill="none" xmlns="http://www.w3.org/2000/svg">
<path d="M462.057 14.5345C462.735 14.5544 462.47 14.2334 462.572 14.1794C461.428 14.3024 462.083 14.6065 462.057 14.5345Z" fill="white"/>
<path d="M450.83 15.7845L451.022 15.662L449.379 16.0408L450.83 15.7845Z" fill="white"/>
<path d="M440.316 16.372C441.328 16.829 444.122 16.0853 446.011 16.1694L446.325 16.2783L447.147 15.8184C444.891 15.9656 441.99 16.4212 440.316 16.372Z" fill="white"/>
<path d="M434.638 15.5213C435.009 15.703 433.448 15.7567 435.951 15.5599L435.72 15.5531L434.638 15.5213Z" fill="white"/>
<path d="M435.723 15.4677C436.824 15.4004 434.989 15.3464 435.723 15.4677V15.4677Z" fill="white"/>
<path d="M430.6 15.8581L432.052 15.6018C431.752 15.4932 430.45 15.5546 430.916 15.4259C429.424 15.6098 429.738 15.7045 430.6 15.8581Z" fill="white"/>
<path d="M429.245 16.288L429.999 16.182C429.743 16.1261 429.475 16.1637 429.245 16.288Z" fill="white"/>
<path d="M431.594 15.9442L429.998 16.182C430.215 16.1884 430.237 16.4169 430.723 16.0894C430.603 16.2425 430.911 16.0949 431.594 15.9442Z" fill="white"/>
<path d="M432.502 15.9712C433.325 15.9954 434.392 16.0268 432.926 16.2969C435.718 16.0944 435.295 15.7544 432.502 15.9712Z" fill="white"/>
<path d="M439.81 16.8839L440.907 16.9162L441.852 16.6877C441.37 16.8586 439.728 16.7248 439.81 16.8839Z" fill="white"/>
<path d="M421.498 16.0601C421.408 16.1713 422.01 16.3172 422.122 16.4487L423.195 16.2667C422.634 16.2217 421.58 16.2191 421.498 16.0601Z" fill="white"/>
<path d="M422.122 16.4486L420.526 16.7149C421.957 16.6715 422.22 16.5654 422.122 16.4486Z" fill="white"/>
<path d="M429.011 16.8649L431.64 16.3442L428.505 16.9069L429.011 16.8649Z" fill="white"/>
<path d="M415.338 16.3627L416.242 16.0618L414.626 16.5268L415.338 16.3627Z" fill="white"/>
<path d="M411.259 16.6128C411.916 16.3758 410.315 16.3145 411.013 16.1499C410.033 16.25 409.062 16.4262 408.11 16.6767C409.153 16.5303 410.211 16.5089 411.259 16.6128Z" fill="white"/>
<path d="M406.7 16.977C407.15 16.9048 407.616 16.7903 408.153 16.678C407.662 16.7424 407.176 16.8423 406.7 16.977Z" fill="white"/>
<path d="M417.766 16.8044C417.367 16.6199 416.927 16.5383 416.487 16.5674L417.129 16.8426L417.766 16.8044Z" fill="white"/>
<path d="M417.158 16.8435L415.713 16.8864L417.158 16.8435Z" fill="white"/>
<path d="M417.924 16.8091L417.765 16.8044C417.765 16.8044 417.865 16.8501 417.924 16.8091Z" fill="white"/>
<path d="M424.768 16.8113C423.837 17.0259 421.865 17.3096 423.795 17.4804C424.452 17.2292 423.357 17.14 424.768 16.8113Z" fill="white"/>
<path d="M418.737 17.1607L420.455 17.1401C420.458 17.0547 420.1 16.9587 420.565 16.8443L418.737 17.1607Z" fill="white"/>
<path d="M417.896 17.2783L418.737 17.1465L418.102 17.142L417.896 17.2783Z" fill="white"/>
<path d="M409.656 17.1212C408.843 17.2721 408.02 17.3669 407.193 17.4047C408.189 17.434 409.201 17.3926 410.155 17.3495C410.288 17.2395 410.698 17.0522 409.656 17.1212Z" fill="white"/>
<path d="M410.326 17.3971C410.865 17.4207 411.404 17.3547 411.92 17.2019C411.37 17.2569 410.791 17.3111 410.155 17.3493C410.096 17.3903 410.095 17.4187 410.326 17.3971Z" fill="white"/>
<path d="M404.194 17.2593L405.493 17.2975C405.066 17.2035 404.626 17.1905 404.194 17.2593Z" fill="white"/>
<path d="M412.88 16.9881L412.995 16.9915C412.753 16.8989 412.779 16.9852 412.88 16.9881Z" fill="white"/>
<path d="M412.88 16.9882C412.502 17.0626 412.211 17.1537 411.92 17.2305C412.367 17.2437 412.775 17.1275 413.137 17.067L412.88 16.9882Z" fill="white"/>
<path d="M395.582 19.9532C396.752 19.4481 398.048 19.2979 399.305 19.5217C400.931 19.2279 399.802 18.3545 398.342 17.9128C398.338 18.0408 398.335 18.1546 396.624 18.4033C397.226 18.5349 400.403 18.5146 398.977 18.8998C398.021 19.0853 397.035 19.0562 396.092 18.8148C397.036 19.1274 393.185 19.4697 393.777 19.9713L395.691 19.6716C395.691 19.6716 395.02 19.9082 395.582 19.9532Z" fill="white"/>
<path d="M401.522 17.7786L402.218 17.6994C401.405 17.6895 400.596 17.6037 399.8 17.4431C398.638 17.651 398.346 17.7563 398.344 17.8559L401.784 17.7294L401.522 17.7786Z" fill="white"/>
<path d="M405.399 17.5511C404.869 17.8773 403.202 18.0988 404.248 18.3716C405.144 18.3141 406.028 18.139 406.877 17.851C403.578 18.0956 407.822 17.6367 405.441 17.5808C406.079 17.4999 406.658 17.4458 407.208 17.405L405.578 17.357C405.722 17.3613 405.765 17.3625 405.578 17.357L405.505 17.3549C405.475 17.4056 405.428 17.4444 405.372 17.4649C404.406 17.4364 405.214 17.4602 405.505 17.3549L402.204 17.6849C402.968 17.7074 403.85 17.6622 405.399 17.5511Z" fill="white"/>
<path d="M422.071 18.227C421.955 18.2236 421.955 18.2236 421.955 18.2236C421.723 18.2025 421.722 18.2453 422.071 18.227Z" fill="white"/>
<path d="M420.687 18.115C421.077 17.9744 421.49 17.9046 421.905 17.9089C422.598 17.9292 421.901 18.0654 421.898 18.1649C422.363 18.0505 423.524 17.8568 422.053 17.7851L421.823 17.7783C420.851 17.7829 419.882 17.6538 418.946 17.3945C419.475 17.7409 420.066 17.9854 420.687 18.115Z" fill="white"/>
<path d="M412.953 17.9158L410.173 18.2041L411.611 18.3889L411.529 18.2441C413.06 18.218 412.762 18.0383 412.953 17.9158Z" fill="white"/>
<path d="M397.871 17.7283L398.227 17.3828L396.652 17.9345L397.871 17.7283Z" fill="white"/>
<path d="M394.298 17.9506L394.422 17.6695L393.477 17.8837L394.298 17.9506Z" fill="white"/>
<path d="M192.661 31.8639L191.863 31.9971C192.24 31.937 192.488 31.8588 192.661 31.8639Z" fill="white"/>
<path d="M198.517 31.5811L198.652 31.4281C198.389 31.5202 198.286 31.5742 198.517 31.5811Z" fill="white"/>
<path d="M306.465 22.5128C305.273 22.321 303.94 21.9828 304.09 22.2862L304.471 22.5822C305.132 22.4966 305.8 22.4734 306.465 22.5128Z" fill="white"/>
<path d="M246.415 27.4658L246.761 27.476L247.536 27.1428L246.415 27.4658Z" fill="white"/>
<path d="M245.639 28.7816L244.083 28.6646C244.599 28.7339 245.119 28.773 245.639 28.7816Z" fill="white"/>
<path d="M160.71 33.7711L159.775 34.1423C161.263 34.1149 160.603 33.9957 160.71 33.7711Z" fill="white"/>
<path d="M357.681 19.9624C356.832 19.8934 355.979 19.8683 355.127 19.8872C356.365 20.0233 357.369 20.238 357.681 19.9624Z" fill="white"/>
<path d="M194.739 28.4648C194.246 28.55 194.042 28.6152 194.054 28.6867C194.62 28.6037 194.896 28.5406 194.739 28.4648Z" fill="white"/>
<path d="M352.192 20.0569L352.74 20.0731C353.479 19.9809 354.189 19.9021 355.128 19.8728C354.146 19.7593 353.151 19.8217 352.192 20.0569Z" fill="white"/>
<path d="M44.7315 39.555L44.4707 39.5474C44.4707 39.5474 44.5568 39.5784 44.7315 39.555Z" fill="white"/>
<path d="M10.7824 38.1854L12.2287 38.0998C11.7451 38.0951 11.2618 38.1237 10.7824 38.1854Z" fill="white"/>
<path d="M379.842 18.5644C380.613 18.5015 379.958 18.5678 379.842 18.5644V18.5644Z" fill="white"/>
<path d="M383.654 19.5879C383.494 19.5832 383.375 19.6796 383.358 19.7647C383.434 19.6753 383.538 19.6131 383.654 19.5879Z" fill="white"/>
<path d="M344.746 22.3583L344.674 22.3562C344.903 22.4199 344.86 22.4044 344.746 22.3583Z" fill="white"/>
<path d="M380.883 18.5096L381.547 18.5292C381.65 18.4468 381.564 18.4158 380.883 18.5096Z" fill="white"/>
<path d="M378.843 18.6346C379.276 18.6474 379.68 18.6592 380.071 18.5996C379.927 18.5953 379.855 18.5932 379.898 18.5945L378.843 18.6346Z" fill="white"/>
<path d="M106.818 35.5307L106.659 35.526C105.904 35.6746 106.237 35.6417 106.818 35.5307Z" fill="white"/>
<path d="M284.181 27.1111C285.027 26.7595 285.95 26.625 286.864 26.7202L285.922 25.8665L284.181 27.1111Z" fill="white"/>
<path d="M178.647 32.6617L180.576 32.8467C178.292 33.4202 176.619 33.3567 178.43 33.6521C178.647 32.6617 185.866 33.1591 186.082 32.1829L187.349 32.3199C186.988 32.3092 186.928 32.3929 186.581 32.3969C189.054 32.7403 188.366 31.6093 191.528 31.5885C192.639 31.6212 193.418 31.6442 192.661 31.8497L195.112 31.4947C195.819 31.5155 195.656 31.6531 194.948 31.675L198.681 31.4004C199.206 31.2165 200.413 30.9245 200.994 30.7993C201.961 30.8277 200.529 30.9279 200.771 31.0348L202.831 30.6825C203.692 30.8929 201.992 31.2274 200.547 31.2703C202.543 32.1265 202.261 30.9362 206.467 31.2879L204.511 31.5009C205.811 31.9806 207.32 31.7118 209.552 31.9341C209.022 31.7903 205.08 31.304 207.314 30.9426C208.213 31.0043 209.116 30.9301 209.992 30.7224C209.982 31.0639 211.199 30.9146 212.689 30.8018L212.604 31.255C213.435 31.1384 214.244 30.9032 215.007 30.5568C215.917 30.4103 216.851 30.6109 217.618 31.1178C220.508 31.0463 215.61 30.66 218.996 30.4037C221.304 30.398 223.605 30.1846 225.873 29.766C227.547 29.8153 225.59 30.0568 226.194 30.16L227.651 29.7187C228.011 29.7293 227.907 29.8259 227.848 29.8811C229.081 29.6754 227.933 29.428 229.875 29.2004C230.381 28.6742 233.931 29.7185 236.319 29.0341C236.925 29.0519 236.051 29.3252 236.306 29.4894C238.169 29.2403 240.016 28.8858 241.838 28.4277L244.172 28.6103C242.447 28.3601 244.599 27.8397 246.503 27.4116C245.886 27.2795 245.355 27.1642 245.068 27.113L248.097 26.7038C248.472 26.7149 248.177 26.934 247.68 27.1472C247.882 27.1532 248.087 27.0595 248.233 27.0068C249.341 27.1249 248.784 27.4218 248.01 27.7123L246.905 27.4804C246.159 27.8002 245.442 28.1351 245.651 28.3975C245.974 28.3105 246.304 28.2535 246.638 28.2272C246.447 28.3071 246.33 28.389 246.415 28.42C246.731 28.4013 247.041 28.3285 247.331 28.2049L248.054 28.6819L248.204 28.4727L252.214 28.5908C255.416 27.6658 258.691 27.0049 262.004 26.6149C260.894 27.0521 261.784 27.2349 261.756 27.6756C260.483 27.2821 258.251 28.0565 255.897 28.0869C257.123 28.123 256.872 28.3007 256.566 28.3914L260.729 27.745C260.646 28.1128 261.632 27.971 262.727 28.0601C261.866 27.394 265.821 27.425 267.519 27.119C267.642 27.3505 267.244 27.6236 265.164 27.662C267.476 28.0861 268.081 26.6799 270.352 27.0173C269.847 27.0025 269.573 26.9944 269.381 27.1596C270.544 26.8806 273.459 26.9095 272.788 27.146L272.283 27.1311C275.65 27.0452 282.536 26.6071 283 26.0227C282.878 26.3621 282.676 26.6683 282.411 26.9167L288.256 24.5683C287.749 25.1088 289.852 26.2387 287.067 26.6836C288.233 26.7423 289.403 26.6716 290.553 26.4729C290.005 26.4568 289.129 25.7902 289.897 25.7131C291.214 25.9982 292.549 26.1992 293.893 26.3149C293.071 26.2907 293.92 25.3759 295.235 25.3434C295.03 25.4655 295.385 26.131 294.906 26.2451L298.096 25.2853C297.297 25.4611 297.989 25.9656 298.72 26.158C298.377 26.0198 301.51 26.0266 302.366 25.8951L300.926 25.7815C304.566 25.7178 304.459 24.4616 308.072 24.3259C307.648 24.5128 307.044 25.4063 308.892 25.4038C310.98 24.1233 313.286 23.2263 315.698 22.7562L316.313 22.9595L318.751 22.5613C316.136 23.6659 313.456 24.6141 310.726 25.4008C311.528 25.5656 312.353 25.5899 313.164 25.4726C313.895 25.6508 312.07 25.8533 311.476 25.9071L316.23 25.8049C315.998 25.3282 319.845 25.1282 319.639 24.7519L314.506 25.5121C314.274 25.0354 317.438 24.0036 320.79 23.9029C321.652 24.0565 320.186 24.7965 320.269 24.9413C321.413 24.6793 322.585 24.556 323.759 24.5742L322.306 24.9016C324.196 24.9573 325.332 24.1079 327.618 24.4457C328.383 24.4682 329.971 24.9422 330.081 24.6464C328.781 24.1667 328.455 22.4911 329.277 22.0453C329.551 22.0534 333.383 22.3513 334.286 22.5773C335.589 22.9432 332.419 23.69 333.523 23.9788C333.526 23.8507 334.269 23.6448 334.56 23.5821C335.382 23.6063 334.244 24 335.995 23.8522C336.27 23.3477 339.609 23.7023 336.818 23.3923C338.542 23.1725 338.664 23.4467 340.705 23.2789C340.034 23.0028 342.471 22.1205 344.209 21.9581C344.104 22.0832 344.504 22.2231 344.705 22.286C348.26 22.1486 350.177 22.2762 353.503 22.1036C353.817 22.2125 355.418 22.2739 354.747 22.5105C355.373 22.3119 356.022 22.1922 356.678 22.1544C358.675 22.4695 354.391 22.3291 355.938 22.7591C357.261 22.3568 358.624 22.0962 360.004 21.9817C359.537 21.6405 356.635 22.1388 355.183 22.4094C355.201 21.8118 357.649 21.058 361.099 20.59C363.851 20.3008 362.316 20.9249 362.796 20.8108C367.97 20.6499 367.166 19.5155 371.49 19.7425C373.229 20.0358 371.612 20.5008 372.009 20.7546C369.764 21.016 368.547 20.6527 367.027 20.793L368.917 20.8487C367.923 21.0567 366.907 21.1463 365.891 21.1156C367.327 21.3857 374.566 20.7302 378.648 20.8362C379.346 20.6716 380.565 20.4796 379.977 20.3484L378.717 20.4679C377.54 20.2197 381.072 19.925 379.471 19.8636C381.423 19.4121 383.421 19.1795 385.426 19.1703L385.905 19.5831C385.172 19.4066 384.41 19.3841 383.669 19.5173C384.643 19.2754 387.353 19.9105 388.411 19.2867L386.728 19.0805C388.655 18.5992 390.628 18.3137 392.615 18.2285C391.63 17.8435 392.136 18.2999 390.604 17.8703C391.93 18.4362 385.182 18.1236 387.317 18.6706C385.744 18.1686 384.634 18.5916 382.596 18.1756C382.593 18.3037 383.326 18.4107 381.535 18.4292C381.414 18.4914 381.287 18.5402 381.155 18.5746C381.083 18.5725 381.069 18.5721 381.155 18.5746C381.468 18.5863 381.778 18.6434 382.074 18.7441C380.547 19.0719 379.002 19.3164 377.447 19.4765C376.394 19.4455 377.871 19.2896 377.297 19.173L375.843 19.5005C375.68 19.1824 372.968 19.1025 375.474 18.7919L373.248 18.8972C371.832 18.7757 370.408 18.8101 369 18.9999C367.947 18.9689 366.358 19.4917 367.262 19.1908L363.771 19.5722L363.773 19.4868C360.319 19.6272 356.687 20.3889 352.712 20.0156C351.274 20.2127 349.824 20.3174 348.372 20.3292L348.03 20.1625C346.32 20.1564 344.611 20.2439 342.911 20.4247C341.255 19.7779 335.686 20.6392 333.014 20.646L332.931 21.0137C331.124 21.0887 329.386 21.2796 327.141 21.541L327.29 21.8444C325.374 22.2152 322.308 21.8829 319.242 22.0631C319.743 21.9408 320.263 21.9127 320.775 21.9801C317.08 21.4441 313.096 22.8932 309.742 22.5381C309.086 22.6759 308.413 22.7089 307.746 22.636L307.948 22.642L307.602 22.6318L306.451 22.5124C306.774 22.5736 307.1 22.6164 307.429 22.6409C306.794 22.6222 305.822 22.7645 304.88 22.8934L304.456 22.5819L304.24 22.5755C303.302 22.5479 303.497 22.7815 304.01 23.0102C303.593 23.0763 303.18 23.1688 302.775 23.2871C301.982 22.7653 300.297 23.5986 299.23 23.0688C298.6 23.3777 294.48 23.527 294 24.1536C294.002 24.0825 293.685 24.0589 294.191 24.0311C293.17 23.9726 292.146 24.0333 291.139 24.2118L290.661 23.799L288.387 24.501C286.949 24.3163 286.39 24.1859 287.759 23.7848C284.432 24.47 285.049 24.1179 282.214 24.7749L282.338 24.4938C281.266 24.7092 280.174 24.8155 279.08 24.8108C276.768 24.401 267.76 25.3177 261.875 25.1301C263.051 25.891 259.124 24.8925 258.974 25.5574C258.619 25.376 257.798 25.3091 258.743 25.0807C255.758 25.4342 254.228 24.9477 252.185 25.6565C251.83 25.4752 252.816 25.3333 252.501 25.2386C252.092 25.3529 251.665 25.3934 251.241 25.3582C250.927 25.2492 251.665 25.1713 252.131 25.0569C249.079 25.2518 248.801 25.8701 248.61 26.4484C247.46 26.2228 246.268 26.3311 245.179 26.7603C244.635 26.6019 243.744 26.4617 245.612 26.2889C244.544 26.2575 239.069 26.3526 238.983 26.8199C238.388 26.7741 237.79 26.8092 237.204 26.9242C234.805 27.0244 234.603 26.99 232.245 27.1627L232.909 27.1822C231.996 27.7819 230.953 27.4094 229.057 27.5672C224.729 27.4398 227.2 27.8543 222.875 27.6273L223.125 27.9621C222.771 28.7064 219.292 27.7211 216.825 28.1326L217.731 28.2732C216.378 28.6036 213.87 27.476 212.499 27.4499C212.196 27.441 212.965 27.3212 213.371 27.262C209.769 27.0135 212.938 27.7334 210.275 27.9682C209.776 27.7542 210.871 27.3308 209.079 27.3777C208.174 27.2229 203.909 28.4216 201.435 28.0924C201.993 28.2513 202.537 28.4097 201.305 28.6012C199.408 28.7732 196.134 28.1642 194.454 28.841C194.208 28.8337 194.11 28.7596 194.096 28.7165C192.228 28.886 190.372 29.1739 188.541 29.5782C187.13 28.4687 179.545 30.6091 179.519 29.5262L175.049 29.8075L175.168 29.6971C173.525 29.6578 171.887 29.8937 170.325 30.3946C169.661 30.3751 170.127 30.2322 170.187 30.177C167.474 30.035 164.755 30.2957 162.122 30.9506L161.742 30.6261C160.796 30.8688 155.685 30.3766 151.624 30.9974C151.624 30.9974 151.742 30.887 152.062 30.8252C147.495 31.474 141 30.4141 139.386 31.7763L136.354 32.2566C140.299 32.1592 135.803 32.8385 137.43 32.9718C135.895 33.126 133.42 32.8538 135.318 32.6248L135.621 32.6338C136.277 31.9269 130.726 32.6463 130.797 32.1927C123.075 32.6204 115.508 32.6396 108.266 32.9533L109.132 33.4345L106.6 33.602C105.939 33.5113 105.687 33.2476 107.494 33.1726C106.449 33.0779 105.397 33.2582 104.446 33.6952C100.896 33.6619 105.795 33.0087 104.711 33.048L103.263 33.1762L103.595 33.186C102.488 33.5643 101.327 33.7656 100.156 33.7825C98.713 33.74 99.4423 33.4909 98.8933 33.5032C98.8933 33.5032 98.7202 33.4981 98.071 33.479L94.891 33.599L96.1801 33.9502C94.7283 34.2207 93.1877 34.0757 94.7208 34.4768C92.5296 33.8712 82.8422 34.8248 81.504 34.6715C79.4156 35.0413 77.2992 35.2362 75.1772 35.2542C75.7831 35.272 76.1732 35.7534 74.0781 35.8057C74.7859 34.8155 70.2438 35.5931 68.5146 34.9868C70.0481 35.3737 62.5968 35.4107 64.9925 35.9369C63.2614 35.8859 64.8732 35.5774 63.5638 35.4249C59.4459 36.0156 54.4175 35.654 49.3093 36.0447C49.3055 36.1727 50.1096 36.3246 49.0197 36.563L46.2036 36.0956C45.1896 36.2082 45.315 36.8527 43.4476 36.5271C43.7051 36.6059 44.1053 36.7458 43.4388 36.8259C33.3348 36.7278 22.9914 38.3883 12.7586 37.7595C14.1975 37.93 13.228 38.0012 12.172 38.0698C12.8644 38.0901 12.1628 38.3828 12.3168 38.5439L7.99284 38.2885C7.24162 38.7932 3.42254 38.5526 3.00438 39.0244L4.35143 38.879C2.61422 39.5256 6.96203 39.9526 6.68226 40.6279C8.6668 39.9174 12.0353 41.2412 15.3575 40.2141C16.0911 40.3069 14.7436 40.4665 15.1442 40.5923C16.3385 40.2068 17.6011 40.0694 18.8523 40.1888L18.6334 40.2678C23.8846 39.924 26.1606 40.105 32.0695 39.9799L31.6167 39.6675C32.3303 39.6476 33.0443 39.6924 33.7496 39.8015C35.2107 39.218 30.1933 39.9531 31.4825 39.3218C33.1977 39.9134 40.4331 38.8734 41.5806 39.6191C43.5327 39.52 40.9848 39.2598 42.9369 39.1607L43.4656 39.3471L43.9364 39.0477C45.2203 39.0855 45.8793 39.2616 45.9464 39.4344C45.5392 39.4545 45.1332 39.4948 44.73 39.5552C46.4834 39.5535 48.2355 39.4625 49.9792 39.2826L48.0894 39.227C53.4021 38.7568 59.9302 38.6927 65.0472 38.0032L64.6471 37.8633C68.56 37.3662 67.7944 37.8705 72.1075 37.5134L71.9489 37.5087C72.9961 37.2768 74.0637 37.1461 75.1368 37.1184C74.0613 37.3573 77.2083 37.3788 75.7853 37.6501C77.464 37.5573 79.1148 37.1871 80.6688 36.5551L81.3261 36.788C82.341 36.4214 83.4103 36.2219 84.4911 36.1977C82.7491 36.5166 85.9253 36.5247 83.9355 36.9218C88.4878 37.2694 90.6045 35.9932 92.7339 36.7394C94.7655 35.9021 88.7981 36.5381 89.9453 36.3156C88.969 36.1302 91.6388 35.6819 93.0538 35.6809C94.4688 35.6798 95.5566 36.495 99.1867 36.2886C98.826 36.278 98.8091 36.3629 98.4476 36.3808C99.8881 36.4944 101.101 35.989 102.785 36.1952C103.694 35.7093 104.953 36.1166 105.186 35.5397L101.857 35.8404C104.066 35.3161 106.334 35.0624 108.607 35.085C108.026 35.2872 107.427 35.4364 106.818 35.5308C107.739 35.6433 108.571 35.3261 109.52 35.4537C109.272 36.0302 105.482 35.7762 103.474 36.3152C104.465 36.501 107.275 35.7151 106.359 36.4001C107.828 35.5605 109.942 36.3205 112.36 35.5943L112.22 35.9461C112.844 35.7959 113.48 35.6955 114.12 35.6461L112.849 36.1498C114.827 35.6669 116.701 36.2632 118.63 35.9782C114.639 36.1882 117.717 35.6096 116.003 35.4594C120.918 34.7498 118.869 36.1846 124.413 35.7071C123.66 35.7988 121.528 35.6221 122.746 35.4444C123.787 35.4413 124.827 35.5099 125.859 35.65C129.504 35.4013 125.276 35.3338 126.829 35.052C128.089 35.4024 128.613 34.7912 130.207 34.5818L130.197 34.9233C134.37 34.918 131.26 34.1429 135.026 34.2253L133.465 34.7774L135.42 34.5502L135.033 34.966C136.621 34.6378 138.245 34.5086 139.866 34.5814C139.368 34.3532 140.102 33.9334 141.953 33.8312C143.22 33.9682 141.264 34.1954 143.883 34.0162C143.153 34.3972 142.307 34.499 141.506 34.3022C141.401 34.4273 140.936 34.5417 140.817 34.6664C142.265 34.7224 143.715 34.6651 145.153 34.495C144.812 34.5066 144.47 34.4965 144.129 34.4649L147.889 33.7924C148.492 33.8956 148.027 34.01 147.561 34.1387C148.328 34.0616 148.853 33.8778 149.982 33.7971C149.699 34.0878 149.792 34.3753 148.197 34.5847L151.793 34.0924C152.049 34.1997 153.677 34.333 153.226 34.4479C155.231 34.507 158.115 33.6521 160.783 33.7449C161.096 33.6323 161.424 33.5652 161.757 33.5457C164.317 33.6398 166.881 33.5152 169.42 33.1732L171.126 33.5795C173.443 33.3487 168.817 33.07 172.596 32.6829C175.32 32.3786 173.639 33.0554 174.604 33.1408C176.618 32.5507 178.722 32.3233 180.818 32.4693C180.077 32.6326 179.429 32.5851 178.647 32.6617ZM207.227 30.9685C206.561 31.1663 205.863 31.2328 205.171 31.1643C205.79 30.7411 206.218 30.9103 207.227 30.9685ZM250.632 27.9034C250.052 28.0254 249.453 28.0319 248.87 27.9227C249.46 27.8534 250.055 27.8376 250.647 27.8754L250.632 27.9034ZM371.591 19.2756C370.307 19.2235 370.74 19.2505 371.605 19.276L371.591 19.2756ZM374.159 19.3512C374.418 19.3588 374.393 19.2299 374.279 19.1981C373.807 19.3227 373.318 19.3708 372.831 19.3406C373.275 19.4406 373.738 19.4248 374.175 19.2947L374.159 19.3512ZM98.6006 33.637L99.1055 33.6519C97.9731 33.8606 98.2794 33.7557 98.6006 33.637Z" fill="white"/>
<path d="M245.748 28.6284C245.696 28.6194 245.647 28.5986 245.605 28.5676C245.563 28.5366 245.529 28.4963 245.506 28.45C245.271 28.5287 245.27 28.5858 245.748 28.6284Z" fill="white"/>
<path d="M160.884 33.7761L160.797 33.7735C160.769 33.7639 160.739 33.763 160.711 33.771L160.884 33.7761Z" fill="white"/>
<path d="M334.583 24.2518C334.235 24.24 333.888 24.1964 333.547 24.1216C333.473 24.2049 333.774 24.2707 334.583 24.2518Z" fill="white"/>
<path d="M387.741 17.9994L386.105 18.1791C386.586 18.1462 387.069 18.1604 387.547 18.2215C387.547 18.2215 387.235 18.0415 387.741 17.9994Z" fill="white"/>
<path d="M402.125 19.3912C402.37 19.3984 402.63 19.406 402.878 19.2994L402.796 19.1546C401.769 19.2098 401.071 19.3744 402.125 19.3912Z" fill="white"/>
<path d="M389.328 19.057C389.478 19.3463 390.493 19.191 391.65 19.1254L391.448 19.1195C391.765 18.6731 390.546 18.8651 389.328 19.057Z" fill="white"/>
<path d="M391.912 19.0621C392.273 19.0727 392.636 18.998 392.982 18.994C393.103 18.8266 392.55 18.9812 391.912 19.0621Z" fill="white"/>
<path d="M377.42 18.9343C377.968 18.9505 377.749 18.5453 378.064 18.64C378.653 18.2444 374.45 19.2741 377.42 18.9343Z" fill="white"/>
<path d="M390.312 19.9691L389.874 19.6287L389.258 19.9523L390.312 19.9691Z" fill="white"/>
<path d="M381.238 20.1719L383.085 20.2263C383.085 20.2263 383.275 20.118 383.566 20.0696C382.788 20.0314 382.009 20.0657 381.238 20.1719Z" fill="white"/>
<path d="M383.538 20.026C384.023 20.0194 384.507 19.9765 384.986 19.8977C384.696 19.9177 384.002 19.9684 383.538 20.026Z" fill="white"/>
<path d="M387.807 20.2086L387.26 20.1498L385.959 20.1969L387.807 20.2086Z" fill="white"/>
<path d="M361.428 21.1693L359.415 21.3805C359.224 21.5031 359.771 21.5477 360.526 21.4132C360.991 21.313 361.746 21.1786 361.428 21.1693Z" fill="white"/>
<path d="M367.547 21.7906C367.234 21.7684 366.929 21.6919 366.644 21.5647L366.631 22.0057L367.547 21.7906Z" fill="white"/>
<path d="M361.702 22.1882C361.51 22.3249 358.799 22.7008 361.345 22.5337C361.551 22.3973 363.549 22.1998 361.702 22.1882Z" fill="white"/>
<path d="M331.409 23.1901L331.93 23.1627L331.807 22.4471L331.409 23.1901Z" fill="white"/>
<path d="M304.838 26.3095C307.232 26.38 305.372 25.8268 307.534 25.9332C308.089 25.736 305.774 25.8814 306.344 25.6703C304.907 25.9271 304.158 25.8623 304.838 26.3095Z" fill="white"/>
<path d="M306.343 25.6702L307.069 25.5207C306.824 25.5552 306.582 25.6051 306.343 25.6702Z" fill="white"/>
<path d="M5.15454 38.0907L3.61182 38.0168L4.6166 38.2173L5.15454 38.0907Z" fill="white"/>
<path d="M2.24643 38.7742L1.85507 38.3355L0.960436 38.8075C1.38508 38.7344 1.81837 38.7231 2.24643 38.7742Z" fill="white"/>
<path d="M211.537 31.6791L211.642 31.5682C211.206 31.4706 210.755 31.4573 210.315 31.5292L211.537 31.6791Z" fill="white"/>
<path d="M190.768 32.4061L191.115 32.402L190.433 32.0117L190.768 32.4061Z" fill="white"/>
<path d="M173.371 33.8447C174.078 33.8655 174.921 33.6768 175.628 33.6691C174.079 33.8229 173.155 33.3257 173.371 33.8447Z" fill="white"/>
</svg>
