<svg width="118" height="31" viewBox="0 0 118 31" fill="none" xmlns="http://www.w3.org/2000/svg">
<path d="M68.5503 8.58736V12.1654L80.0728 7.51394V4.65149L68.5503 0V3.43495L75.2777 6.08272L68.5503 8.58736Z" fill="#A1A9B2"/>
<path d="M6.78652 16.7456C3.56594 16.7456 1.20418 18.1768 0.98947 21.1824H4.5679V21.1108C4.63947 20.109 5.56986 19.3934 6.57182 19.4649C7.93162 19.4649 8.57574 20.2521 8.57574 21.6118V22.2558H6.92966C3.4228 22.2558 0.560059 23.3292 0.560059 26.6926V26.8357C0.560059 29.555 2.56398 30.7716 4.99731 30.7716C6.50025 30.8431 7.86005 30.1275 8.71887 28.9825V30.5569H12.3689V21.5402C12.2973 18.1053 9.93554 16.7456 6.78652 16.7456V16.7456ZM5.99927 28.1238C4.71103 28.1238 4.13849 27.4798 4.13849 26.5495V26.4063C4.13849 25.1898 5.06888 24.6889 6.92966 24.6889H8.4326V25.977C8.50417 27.4082 7.2875 28.1238 5.99927 28.1238V28.1238Z" fill="#A1A9B2"/>
<path d="M20.9571 27.9807C19.1679 27.9807 18.2375 26.7642 18.2375 24.0448V23.6155C18.2375 20.9677 19.311 19.6796 20.9571 19.6796C22.2453 19.6796 22.961 20.5383 23.1757 21.8264H26.7541C26.4678 18.3199 23.8914 16.7456 20.8855 16.7456C17.3071 16.7456 14.4443 19.1787 14.4443 23.7586V23.9017C14.4443 28.4816 17.1639 30.7716 20.8855 30.7716C24.5355 30.7716 26.611 28.5532 26.8973 25.5476H23.462C23.1757 27.0504 22.2453 27.9807 20.9571 27.9807V27.9807Z" fill="#A1A9B2"/>
<path d="M34.9131 27.9807C33.1239 27.9807 32.1935 26.7642 32.1935 24.0448V23.6155C32.1935 20.9677 33.267 19.6796 34.9131 19.6796C36.2014 19.6796 36.917 20.5383 37.1317 21.8264H40.7102C40.4239 18.3199 37.8474 16.7456 34.8416 16.7456C31.2631 16.7456 28.4004 19.1787 28.4004 23.7586V23.9017C28.4004 28.4816 31.12 30.7716 34.8416 30.7716C38.4915 30.7716 40.567 28.5532 40.7817 25.5476H37.418C37.2033 27.0504 36.2014 27.9807 34.9131 27.9807V27.9807Z" fill="#A1A9B2"/>
<path d="M49.0118 28.0522C47.3657 28.0522 46.3638 27.1219 46.2207 24.6889H54.952V23.1145C54.952 18.6777 52.1608 16.7456 48.7971 16.7456C45.1471 16.7456 42.356 19.2502 42.356 23.7586V24.0448C42.356 28.5532 45.004 30.8431 48.8687 30.8431C52.3755 30.8431 54.5226 28.911 54.8804 26.3348H51.3736C51.2304 27.4082 50.1569 28.1954 49.0118 28.0522ZM48.7971 19.3218C50.3001 19.3218 51.2304 20.1805 51.302 22.1842H46.2922C46.5785 20.0374 47.652 19.3934 48.7971 19.3218Z" fill="#A1A9B2"/>
<path d="M65.1149 16.7454C63.3973 16.6738 61.8228 17.5325 61.0355 19.0353V17.0316H57.314V30.4851H61.0355V21.8978C61.1071 20.6812 62.1806 19.6794 63.3973 19.7509C64.7571 19.7509 65.4012 20.4665 65.4012 22.0409V30.4851H69.1944V21.4684C69.1944 18.1766 67.5483 16.7454 65.1149 16.7454V16.7454Z" fill="#A1A9B2"/>
<path d="M76.208 26.1915V19.8225H78.7844V17.0316H76.208V12.9526L72.4864 14.527V17.0316H70.8403V19.8225H72.4148V26.6208C72.4148 29.3402 73.7746 30.6998 76.7089 30.6998C77.4246 30.6998 78.1403 30.6283 78.856 30.4136V27.4796C78.4266 27.6227 77.9972 27.6943 77.5678 27.6943C76.7089 27.6943 76.208 27.1933 76.208 26.1915Z" fill="#A1A9B2"/>
<path d="M89.1619 25.4044V25.7622C89.0904 26.9787 88.0169 27.9806 86.8002 27.909C85.4404 27.909 84.8678 27.1934 84.8678 25.6191V17.0317H81.0747V26.12C81.0747 29.2687 82.8639 30.7715 85.2972 30.7715C86.9433 30.843 88.4463 29.9843 89.2335 28.4815V30.4852H93.0266V17.0317H89.2335L89.1619 25.4044Z" fill="#A1A9B2"/>
<path d="M99.4677 19.4649V16.9603H95.7461V30.4138H99.4677V23.4723C99.4677 21.254 100.971 20.4668 103.547 20.4668V16.7456C101.686 16.7456 100.04 17.819 99.4677 19.4649Z" fill="#A1A9B2"/>
<path d="M117.288 23.043C117.288 18.6062 114.497 16.7456 111.134 16.7456C107.484 16.7456 104.692 19.2502 104.692 23.7586V24.0448C104.692 28.5532 107.34 30.8431 111.205 30.8431C114.712 30.8431 116.787 28.911 117.217 26.3348H113.71C113.424 27.4797 112.35 28.1954 111.205 28.1238C109.559 28.1238 108.557 27.1935 108.414 24.7604H117.145V23.043H117.288ZM108.557 22.1842C108.843 19.9658 109.917 19.3218 111.134 19.3218C112.637 19.3218 113.567 20.1805 113.638 22.1842H108.557Z" fill="#A1A9B2"/>
</svg>
