<svg width="47" height="28" viewBox="0 0 47 28" fill="none" xmlns="http://www.w3.org/2000/svg">
<path d="M13.6476 10.0866C13.6324 10.5434 13.6932 11.0003 13.8148 11.442C13.9516 11.8227 14.1188 12.1882 14.3012 12.5385C14.362 12.6451 14.4076 12.7669 14.4076 12.8888C14.3924 13.0715 14.286 13.2543 14.1188 13.3456L13.1611 13.9853C13.0395 14.0614 12.9027 14.1223 12.7659 14.1223C12.5987 14.1071 12.4315 14.031 12.3099 13.9091C12.1123 13.6959 11.9147 13.4522 11.7626 13.1933C11.6106 12.9345 11.4586 12.6451 11.2914 12.2948C10.1057 13.6959 8.61603 14.3965 6.82231 14.3965C5.54542 14.3965 4.52695 14.031 3.7821 13.3C3.03725 12.5689 2.65723 11.5943 2.65723 10.3759C2.65723 9.08142 3.11326 8.03059 4.04052 7.23866C4.96778 6.44674 6.19907 6.05077 7.76478 6.05077C8.29681 6.05077 8.84405 6.09646 9.37609 6.17261C9.93852 6.24875 10.5162 6.37059 11.1242 6.50765V5.39591C11.1242 4.23848 10.881 3.43132 10.4098 2.95921C9.93852 2.4871 9.10247 2.25866 7.93199 2.25866C7.38475 2.25866 6.82231 2.31957 6.29027 2.45664C5.72784 2.5937 5.1806 2.76123 4.64856 2.97444C4.48135 3.05059 4.29894 3.1115 4.11653 3.17242C4.04052 3.20288 3.94931 3.21811 3.87331 3.21811C3.6605 3.21811 3.55409 3.06581 3.55409 2.746V1.99976C3.53889 1.81701 3.58449 1.63425 3.6605 1.46673C3.7821 1.32967 3.91891 1.22306 4.08612 1.14691C4.69417 0.842325 5.33261 0.613885 6.00146 0.461591C6.77671 0.263609 7.58236 0.172233 8.37282 0.172233C10.1817 0.172233 11.5042 0.583426 12.3555 1.40581C13.2067 2.2282 13.6172 3.47701 13.6172 5.15224V10.0866H13.6476ZM7.47596 12.4014C8.00799 12.4014 8.54003 12.31 9.04166 12.1273C9.6041 11.9293 10.0905 11.5943 10.4858 11.1526C10.729 10.8785 10.9114 10.5434 11.0026 10.1779C11.109 9.75151 11.1546 9.29463 11.1546 8.85298V8.21334C10.6986 8.10674 10.2273 8.01536 9.75611 7.95444C9.28488 7.89353 8.79845 7.86307 8.32721 7.86307C7.30875 7.86307 6.56389 8.06105 6.06226 8.47224C5.56063 8.88344 5.31741 9.46215 5.31741 10.2236C5.31741 10.9394 5.49982 11.4724 5.87985 11.8379C6.25987 12.2034 6.77671 12.4014 7.47596 12.4014V12.4014ZM19.6824 14.0462C19.4848 14.0614 19.272 14.0157 19.1048 13.8939C18.9527 13.7264 18.8311 13.5284 18.7855 13.3L15.2133 1.52765C15.1373 1.32967 15.0917 1.13168 15.0765 0.918472C15.0613 0.73572 15.1829 0.568197 15.3653 0.537738H16.9462C17.235 0.537738 17.4326 0.583426 17.539 0.690032C17.6455 0.796637 17.7519 0.994619 17.8431 1.28398L20.3816 11.3658L22.753 1.28398C22.829 0.97939 22.9202 0.781408 23.0418 0.690032C23.2242 0.583426 23.437 0.522508 23.6499 0.537738H24.8659C25.1548 0.537738 25.3524 0.583426 25.474 0.690032C25.626 0.857555 25.7324 1.05554 25.7628 1.28398L28.1646 11.4877L30.7944 1.28398C30.84 1.05554 30.9464 0.857555 31.0984 0.690032C31.2808 0.583426 31.4784 0.522508 31.6912 0.537738H33.1049C33.2873 0.507279 33.4545 0.644344 33.4849 0.827096V0.918472C33.4849 0.994619 33.4697 1.086 33.4545 1.16214C33.4241 1.29921 33.3937 1.42104 33.3481 1.54288L29.6847 13.3152C29.5935 13.6198 29.4871 13.8178 29.3655 13.9091C29.1982 14.0157 28.9854 14.0767 28.7878 14.0614H27.4805C27.1917 14.0614 26.9941 14.0157 26.8725 13.9091C26.7205 13.7416 26.6141 13.5284 26.5837 13.3L24.2275 3.47701L21.8865 13.2847C21.8561 13.5132 21.7497 13.7264 21.5977 13.8939C21.4153 14.0157 21.2025 14.0614 20.9897 14.0462H19.6824V14.0462ZM39.2157 14.4574C38.4253 14.4574 37.6348 14.366 36.8748 14.1833C36.1147 14.0005 35.5219 13.8025 35.1266 13.5741C34.929 13.4827 34.7618 13.3304 34.6554 13.1477C34.5946 13.0106 34.5642 12.8735 34.5642 12.7212V11.9445C34.5642 11.6247 34.6858 11.4724 34.9138 11.4724C35.005 11.4724 35.0962 11.4877 35.1875 11.5181C35.2787 11.5486 35.4155 11.6095 35.5675 11.6704C36.0995 11.9141 36.662 12.0816 37.2396 12.2034C37.8324 12.3253 38.4405 12.3862 39.0485 12.3862C40.0062 12.3862 40.751 12.2187 41.2679 11.8836C41.7695 11.579 42.0735 11.0308 42.0583 10.4368C42.0735 10.0409 41.9215 9.66013 41.6479 9.37078C41.3743 9.08142 40.8574 8.82252 40.1126 8.57885L37.9084 7.89353C36.7988 7.54325 35.9779 7.02545 35.4763 6.34013C34.9898 5.7005 34.7162 4.93903 34.7162 4.13187C34.701 3.53793 34.8378 2.95921 35.1266 2.44141C35.4003 1.95407 35.7651 1.52765 36.2211 1.1926C36.6924 0.827096 37.2244 0.568197 37.802 0.400673C38.4253 0.217921 39.0637 0.126545 39.7174 0.141774C40.0518 0.141774 40.4014 0.157003 40.7358 0.202692C41.0855 0.24838 41.4047 0.309297 41.7239 0.370215C42.0431 0.431132 42.3167 0.522508 42.5904 0.613885C42.8184 0.690032 43.0312 0.781408 43.2288 0.888014C43.4112 0.97939 43.5632 1.10122 43.6848 1.26875C43.7912 1.42104 43.8368 1.58856 43.8216 1.77132V2.4871C43.8216 2.80691 43.7 2.97444 43.472 2.97444C43.2744 2.94398 43.0768 2.88306 42.8944 2.79169C41.9823 2.38049 40.979 2.18251 39.9758 2.19774C39.1093 2.19774 38.4253 2.3348 37.954 2.62416C37.4828 2.91352 37.2396 3.35517 37.2396 3.97958C37.2244 4.39077 37.3916 4.78673 37.6956 5.06086C37.9996 5.35022 38.5621 5.63958 39.3677 5.89848L41.5263 6.5838C42.6208 6.93408 43.4112 7.42142 43.8824 8.04582C44.3537 8.655 44.5969 9.41646 44.5817 10.1779C44.5969 10.7871 44.4601 11.3963 44.1865 11.9445C43.9128 12.4623 43.5328 12.9192 43.0768 13.2847C42.5752 13.6807 41.9975 13.97 41.3895 14.1376C40.6902 14.3508 39.9606 14.4574 39.2157 14.4574V14.4574Z" fill="#A1A9B2"/>
<path d="M42.0889 21.859C37.0877 25.5598 29.8216 27.5244 23.574 27.5244C14.8182 27.5244 6.92886 24.2805 0.970058 18.8893C0.498826 18.4629 0.924455 17.8842 1.48689 18.2192C7.93213 21.9656 15.8823 24.2348 24.106 24.2348C30.0344 24.2044 35.902 23.0012 41.3592 20.7016C42.1953 20.3209 42.9097 21.2499 42.0889 21.859Z" fill="#A1A9B2"/>
<path d="M44.1716 19.4828C43.5332 18.6604 39.9457 19.0868 38.3192 19.2848C37.8328 19.3457 37.7568 18.9193 38.1976 18.5995C41.0554 16.5892 45.7525 17.1679 46.2997 17.838C46.847 18.5081 46.1477 23.2292 43.4724 25.4831C43.0619 25.8334 42.6667 25.6506 42.8491 25.1937C43.4572 23.686 44.81 20.2899 44.1716 19.4828V19.4828Z" fill="#A1A9B2"/>
</svg>
