<svg width="30" height="29" viewBox="0 0 30 29" fill="none" xmlns="http://www.w3.org/2000/svg">
<path d="M4.4292 5.82726C4.4292 5.18797 4.58061 4.32326 4.70847 3.71089C5.1627 1.49357 6.24275 0.120789 8.17407 0.120789C9.5334 0.120789 10.3005 0.901391 10.5428 1.96799L9.60069 2.37511C9.47283 1.52722 8.99841 1.06289 8.08995 1.06289C6.82148 1.06289 6.18555 1.88724 5.87264 3.45517L5.58328 4.90871C5.52272 5.19807 5.49243 5.49416 5.48907 5.79361C5.48907 6.93424 5.95339 7.57016 7.0099 7.57016C7.99911 7.57016 8.61484 7.06882 8.97486 6.13008L9.83285 6.5473C9.22721 7.77877 8.27501 8.51226 6.90223 8.51226C5.3242 8.51226 4.4292 7.53651 4.4292 5.82726Z" fill="#A1A9B2"/>
<path d="M15.5532 8.37094L15.2739 6.08296H12.2289L11.0311 8.37094H9.88037L14.1804 0.258728H15.6003L16.6568 8.37094H15.5532ZM14.7154 1.27149H14.6582L12.7067 5.1173H15.1696L14.7154 1.27149Z" fill="#A1A9B2"/>
<path d="M17.8779 8.37094L19.5031 0.258728H20.5966L19.1666 7.40528H22.4303L22.2318 8.37094H17.8779Z" fill="#A1A9B2"/>
<path d="M23.5474 8.37094L25.1759 0.258728H26.266L24.836 7.40528H28.0998L27.9012 8.37094H23.5474Z" fill="#A1A9B2"/>
<path d="M2.33984 18.6466L3.96834 10.5344H8.69906L8.50055 11.5001H4.85998L4.35864 14.0572H7.66947L7.47432 15.0229H4.16349L3.43336 18.65L2.33984 18.6466Z" fill="#A1A9B2"/>
<path d="M8.64844 16.0996C8.64844 15.5983 8.74265 14.8446 8.9277 13.9832C9.43913 11.6347 10.6706 10.3931 12.5178 10.3931C14.1463 10.3931 15.1086 11.3958 15.1086 13.0781C15.1086 13.5795 15.0144 14.3332 14.8293 15.1945C14.3179 17.543 13.0864 18.7846 11.2392 18.7846C9.6141 18.7846 8.64844 17.7853 8.64844 16.0996ZM13.6685 15.4502L13.9579 13.9967C14.0184 13.7073 14.0487 13.4112 14.0521 13.1118C14.0521 11.9846 13.5508 11.3453 12.4135 11.3453C11.0878 11.3453 10.4014 12.1596 10.0885 13.7275L9.79915 15.181C9.73859 15.4704 9.70831 15.7665 9.70494 16.066C9.70494 17.1931 10.2063 17.8324 11.3435 17.8324C12.6692 17.8324 13.3556 17.0182 13.6685 15.4502Z" fill="#A1A9B2"/>
<path d="M16.4579 18.6466H15.4351L17.0636 10.5344H19.7822C21.0843 10.5344 21.5958 11.2208 21.5958 12.4052C21.5958 13.8116 20.8757 14.8816 19.6644 15.1474L20.6402 18.6466H19.55L18.6786 15.2517H17.1477L16.4579 18.6466ZM19.2136 14.3331C19.8159 14.3331 20.2465 13.9765 20.3878 13.2766C20.5157 12.6272 20.5393 12.4624 20.5393 12.2067C20.5393 11.6952 20.2734 11.4631 19.7015 11.4631H17.9014L17.3193 14.3331H19.2136Z" fill="#A1A9B2"/>
<path d="M0.526367 26.0959C0.526367 25.4566 0.677777 24.5919 0.805634 23.9795C1.25986 21.7622 2.33992 20.3894 4.26787 20.3894C5.6272 20.3894 6.39434 21.17 6.63996 22.2366L5.69786 22.6438C5.57 21.7959 5.09222 21.3315 4.18712 21.3315C2.92201 21.3315 2.28272 22.1559 1.96981 23.7238L1.68045 25.1774C1.61988 25.4667 1.5896 25.7628 1.58624 26.0623C1.58624 27.2029 2.05056 27.8388 3.10707 27.8388C4.09291 27.8388 4.71201 27.3375 5.07203 26.3987L5.93002 26.8159C5.32438 28.0474 4.37218 28.7809 3.00276 28.7809C1.42137 28.7775 0.526367 27.8018 0.526367 26.0959Z" fill="#A1A9B2"/>
<path d="M6.7915 26.0959C6.7915 25.5946 6.88571 24.8409 7.07077 23.9795C7.5822 21.631 8.81703 20.3894 10.6609 20.3894C12.2894 20.3894 13.2517 21.3921 13.2517 23.0744C13.2517 23.5758 13.1575 24.3295 12.9724 25.1908C12.461 27.5393 11.2295 28.7809 9.3823 28.7809C7.7538 28.7775 6.7915 27.7782 6.7915 26.0959ZM11.8116 25.4432L12.1009 23.9896C12.1615 23.7003 12.1918 23.4042 12.1952 23.1047C12.1952 21.9776 11.6938 21.3383 10.5566 21.3383C9.23089 21.3383 8.54449 22.1525 8.23158 23.7205L7.94222 25.174C7.88166 25.4633 7.85137 25.7594 7.84801 26.0589C7.84801 27.1861 8.34934 27.8253 9.4866 27.8253C10.8123 27.8287 11.4953 27.0111 11.8116 25.4432Z" fill="#A1A9B2"/>
<path d="M15.2736 20.5309H17.4371C19.0655 20.5309 20.0278 21.4831 20.0278 23.0981C20.0278 23.7239 19.8764 24.5853 19.7486 25.1909C19.2943 27.2837 18.1436 28.6431 16.1585 28.6431H13.6484L15.2736 20.5309ZM16.2628 27.7144C17.5986 27.7144 18.2849 26.9372 18.5878 25.45L18.8771 24.02C18.9377 23.7307 18.968 23.4346 18.9713 23.1385C18.9713 22.0651 18.47 21.4662 17.3327 21.4662H16.1248L14.8664 27.711L16.2628 27.7144Z" fill="#A1A9B2"/>
<path d="M20.479 28.6397L22.1075 20.5309H26.9762L26.7777 21.4965H23.0025L22.5012 24.0537H25.8827L25.6841 25.0193H22.306L21.771 27.6774H25.7212L25.5226 28.6431L20.479 28.6397Z" fill="#A1A9B2"/>
<path d="M27.9721 21.5267C27.9721 20.8201 28.4465 20.3154 29.0925 20.3154C29.5737 20.3053 29.9741 20.6889 29.9808 21.1701C29.9808 21.1835 29.9808 21.197 29.9808 21.2104C29.9808 21.917 29.5064 22.4217 28.8604 22.4217C28.3792 22.4318 27.9788 22.0482 27.9688 21.5671C27.9721 21.5536 27.9721 21.5402 27.9721 21.5267ZM29.7318 21.4897C29.7487 21.3989 29.7588 21.3047 29.7621 21.2138C29.7621 20.7932 29.4694 20.5173 29.0656 20.5173C28.635 20.5173 28.3086 20.81 28.2211 21.2441C28.2043 21.3349 28.1942 21.4291 28.1908 21.52C28.1908 21.9406 28.4835 22.2165 28.8873 22.2165C29.318 22.2165 29.6444 21.9238 29.7318 21.4897ZM28.7191 21.9137H28.4936L28.709 20.8437H29.1397C29.3449 20.8437 29.4425 20.9716 29.4425 21.1263C29.4492 21.2979 29.3348 21.4493 29.1699 21.4897L29.3247 21.9137H29.0925L28.958 21.5166H28.7998L28.7191 21.9137ZM29.0387 21.3518C29.1161 21.3518 29.1733 21.3248 29.1868 21.2508C29.1969 21.2037 29.2069 21.16 29.2137 21.1129C29.2103 21.059 29.1632 21.022 29.1127 21.0254H29.1094H28.9041L28.8368 21.3518H29.0387Z" fill="#A1A9B2"/>
<path d="M4.40234 5.84956C4.40234 5.21037 4.55373 4.34578 4.68157 3.7335C5.13573 1.5165 6.21563 0.143921 8.14667 0.143921C9.5058 0.143921 10.2728 0.92441 10.5151 1.99085L9.57308 2.39792C9.44524 1.55015 8.97089 1.08589 8.06257 1.08589C6.79427 1.08589 6.15844 1.91011 5.84557 3.47782L5.55626 4.93114C5.49613 5.2223 5.46458 5.51863 5.46206 5.81592C5.46206 6.95638 5.92632 7.59221 6.98267 7.59221C7.97173 7.59221 8.58738 7.09094 8.94735 6.15234L9.80521 6.5695C9.19966 7.80078 8.2476 8.53417 6.87501 8.53417C5.29721 8.53417 4.40234 7.55856 4.40234 5.84956Z" fill="#0F62FE"/>
<path d="M15.5245 8.3928L15.2453 6.10516H12.2007L11.0031 8.3928H9.85254L14.152 0.281769H15.5716L16.628 8.3928H15.5245ZM14.6869 1.29439H14.6297L12.6784 5.13964H15.141L14.6869 1.29439Z" fill="#0F62FE"/>
<path d="M17.8491 8.3928L19.474 0.281769H20.5674L19.1376 7.42728H22.4009L22.2024 8.3928H17.8491Z" fill="#0F62FE"/>
<path d="M23.5176 8.3928L25.1458 0.281769H26.2358L24.8061 7.42728H28.0693L27.8708 8.3928H23.5176Z" fill="#0F62FE"/>
<path d="M2.31348 18.667L3.94174 10.556H8.67177L8.47328 11.5215H4.83324L4.33198 14.0783H7.64233L7.44721 15.0438H4.13686L3.40683 18.6704L2.31348 18.667Z" fill="#A6C8FF"/>
<path d="M8.62109 16.1204C8.62109 15.6191 8.71529 14.8656 8.90032 14.0043C9.41168 11.6561 10.643 10.4148 12.4899 10.4148C14.1182 10.4148 15.0803 11.4173 15.0803 13.0994C15.0803 13.6006 14.9861 14.3542 14.8011 15.2154C14.2897 17.5636 13.0584 18.805 11.2115 18.805C9.58661 18.805 8.62109 17.8059 8.62109 16.1204ZM13.6404 15.4711L13.9298 14.0178C13.9899 13.7266 14.0214 13.4303 14.024 13.133C14.024 12.006 13.5227 11.3668 12.3856 11.3668C11.0601 11.3668 10.3738 12.181 10.061 13.7487L9.77164 15.202C9.71151 15.4931 9.67996 15.7895 9.67744 16.0868C9.67744 17.2138 10.1787 17.853 11.3158 17.853C12.6413 17.853 13.3276 17.0388 13.6404 15.4711Z" fill="#A6C8FF"/>
<path d="M16.4294 18.667H15.4067L17.035 10.556H19.7533C21.0552 10.556 21.5665 11.2423 21.5665 12.4265C21.5665 13.8327 20.8466 14.9025 19.6355 15.1683L20.6111 18.667H19.5211L18.6498 15.2726H17.1191L16.4294 18.667ZM19.1847 14.3542C19.7869 14.3542 20.2175 13.9976 20.3588 13.2978C20.4866 12.6485 20.5102 12.4837 20.5102 12.228C20.5102 11.7166 20.2444 11.4845 19.6725 11.4845H17.8727L17.2907 14.3542H19.1847Z" fill="#A6C8FF"/>
<path d="M0.5 26.1152C0.5 25.476 0.651388 24.6114 0.779227 23.9992C1.23339 21.7822 2.31329 20.4096 4.24096 20.4096C5.60009 20.4096 6.36712 21.1901 6.61271 22.2565L5.67074 22.6636C5.5429 21.8158 5.06519 21.3515 4.16022 21.3515C2.89529 21.3515 2.2561 22.1758 1.94323 23.7435L1.65391 25.1968C1.59378 25.488 1.56223 25.7843 1.55972 26.0816C1.55972 27.222 2.02397 27.8579 3.08032 27.8579C4.06603 27.8579 4.68504 27.3566 5.045 26.418L5.90287 26.8352C5.29732 28.0664 4.34525 28.7998 2.97603 28.7998C1.39487 28.7965 0.5 27.8209 0.5 26.1152Z" fill="#0F62FE"/>
<path d="M6.76416 26.1152C6.76416 25.614 6.85836 24.8604 7.04339 23.9992C7.55474 21.651 8.78939 20.4096 10.633 20.4096C12.2612 20.4096 13.2234 21.4121 13.2234 23.0942C13.2234 23.5955 13.1292 24.349 12.9442 25.2103C12.4328 27.5584 11.2015 28.7998 9.35458 28.7998C7.72632 28.7965 6.76416 27.7973 6.76416 26.1152ZM11.7835 25.4626L12.0728 24.0092C12.133 23.7181 12.1645 23.4218 12.167 23.1245C12.167 21.9975 11.6658 21.3583 10.5287 21.3583C9.20319 21.3583 8.5169 22.1724 8.20403 23.7401L7.91471 25.1934C7.85458 25.4846 7.82303 25.7809 7.82051 26.0782C7.82051 27.2052 8.32177 27.8444 9.45887 27.8444C10.7844 27.8478 11.4673 27.0303 11.7835 25.4626Z" fill="#0F62FE"/>
<path d="M15.245 20.551H17.4082C19.0364 20.551 19.9986 21.5031 19.9986 23.1179C19.9986 23.7436 19.8472 24.6048 19.7194 25.2104C19.2652 27.3029 18.1147 28.662 16.1298 28.662H13.6201L15.245 20.551ZM16.2341 27.7335C17.5697 27.7335 18.256 26.9564 18.5587 25.4694L18.848 24.0396C18.908 23.7496 18.9395 23.4544 18.9422 23.1582C18.9422 22.0851 18.441 21.4862 17.3039 21.4862H16.0962L14.8379 27.7301L16.2341 27.7335Z" fill="#0F62FE"/>
<path d="M20.4497 28.6587L22.078 20.551H26.9459L26.7474 21.5165H22.9728L22.4716 24.0733H25.8526L25.6541 25.0388H22.2765L21.7416 27.6965H25.6911L25.4926 28.662L20.4497 28.6587Z" fill="#0F62FE"/>
<path d="M27.9418 21.5466C27.9418 20.8402 28.4162 20.3355 29.0621 20.3355C29.1766 20.3331 29.2904 20.3533 29.3971 20.3949C29.5038 20.4366 29.6012 20.4989 29.6837 20.5783C29.7662 20.6577 29.8322 20.7526 29.878 20.8576C29.9237 20.9625 29.9483 21.0755 29.9503 21.19V21.2304C29.9503 21.9369 29.4759 22.4415 28.83 22.4415C28.5986 22.446 28.3748 22.3586 28.2077 22.1984C28.0406 22.0383 27.9438 21.8184 27.9385 21.587C27.9413 21.5737 27.9424 21.5602 27.9418 21.5466ZM29.7013 21.5096C29.718 21.4185 29.7282 21.3263 29.7316 21.2338C29.7316 20.8132 29.4389 20.5374 29.0352 20.5374C28.6046 20.5374 28.2783 20.8301 28.1908 21.264C28.1741 21.3551 28.1639 21.4473 28.1605 21.5399C28.1605 21.9604 28.4532 22.2363 28.8569 22.2363C29.2875 22.2363 29.6138 21.9436 29.7013 21.5096ZM28.6887 21.9335H28.4633L28.6786 20.8637H29.1092C29.3144 20.8637 29.412 20.9915 29.412 21.1463C29.4154 21.229 29.3902 21.3103 29.3405 21.3765C29.2908 21.4427 29.2198 21.4898 29.1395 21.5096L29.2942 21.9335H29.0621L28.9275 21.5365H28.7694L28.6887 21.9335ZM29.0083 21.3717C29.0857 21.3717 29.1429 21.3448 29.1563 21.2708C29.1664 21.2237 29.1765 21.1799 29.1832 21.1328C29.1824 21.1205 29.1791 21.1084 29.1735 21.0973C29.168 21.0862 29.1603 21.0763 29.1509 21.0681C29.1416 21.06 29.1307 21.0538 29.1189 21.0499C29.1071 21.046 29.0947 21.0445 29.0823 21.0454H28.8737L28.8064 21.3717H29.0083Z" fill="#0F62FE"/>
</svg>
