<svg width="96" height="21" viewBox="0 0 96 21" fill="none" xmlns="http://www.w3.org/2000/svg">
<path d="M55.2853 13.1924L60.9527 7.6515H55.364V5.0542H64.9042V7.69873L59.2367 13.2239H65.0144V15.837H55.2695V13.1924H55.2853Z" fill="#A1A9B3"/>
<path d="M54.1988 1.49658H51.2549V4.17257H54.1988V1.49658Z" fill="#A1A9B3"/>
<path d="M54.1519 5.06982H51.208V15.8526H54.1519V5.06982Z" fill="#A1A9B3"/>
<path d="M15.503 10.422C15.5188 7.33669 18.0219 4.84957 21.1075 4.86531C24.1932 4.88105 26.6806 7.38391 26.6648 10.4692C26.6491 13.5388 24.1617 16.0259 21.0761 16.0259C18.0062 16.0259 15.503 13.5388 15.4873 10.4692C15.503 10.4535 15.503 10.4377 15.503 10.422ZM23.8153 10.422C23.8153 8.89508 22.6031 7.62004 21.1075 7.62004C19.5805 7.62004 18.4155 8.89508 18.4155 10.422C18.4155 11.9489 19.5805 13.2239 21.1075 13.2239C22.6031 13.2239 23.8153 11.9489 23.8153 10.422Z" fill="#A1A9B3"/>
<path d="M39.999 5.03813H42.9272V6.25021C43.6199 5.3687 44.6746 4.8335 45.9026 4.8335C48.4529 4.8335 49.9799 6.47059 49.9799 9.2568V15.8367H46.9888V9.65033C46.9888 8.20213 46.3119 7.36784 45.0052 7.36784C43.8875 7.36784 42.9587 8.13917 42.9587 9.94941V15.8367H40.0148V5.03813H39.999Z" fill="#A1A9B3"/>
<path d="M65.1875 10.4218C65.1875 6.61238 67.9897 4.81787 70.4299 4.81787C71.831 4.81787 72.933 5.33734 73.6414 6.09292V5.03825H76.5853V15.8211H73.6414V14.609C72.933 15.4433 71.7837 16.0257 70.3826 16.0257C68.0999 16.0257 65.1875 14.2154 65.1875 10.4218ZM73.7201 10.406C73.7201 8.81617 72.5551 7.52538 70.9651 7.52538C69.3279 7.52538 68.0842 8.7532 68.0842 10.406C68.0842 12.0589 69.3279 13.3182 70.9651 13.3182C72.5709 13.3182 73.7358 11.9959 73.7201 10.406Z" fill="#A1A9B3"/>
<path d="M77.7817 5.03813H80.7099V6.25021C81.4026 5.3687 82.4574 4.8335 83.6853 4.8335C86.2357 4.8335 87.7628 6.47059 87.7628 9.2568V15.8367H84.7716V9.65033C84.7716 8.20213 84.1104 7.36784 82.788 7.36784C81.6702 7.36784 80.7414 8.13917 80.7414 9.94941V15.8367H77.7975L77.7817 5.03813Z" fill="#A1A9B3"/>
<path d="M55.2852 15.8051V13.1763L60.9526 7.63539H55.3639V5.03809H64.9041V7.68262L59.2366 13.2078" fill="#A1A9B3"/>
<path d="M12.3543 10.3275L12.3228 10.422C11.5042 12.1378 10.0086 13.1295 8.2139 13.1295C5.60058 13.1295 3.56976 11.0674 3.56976 8.43858C3.56976 5.73108 5.60058 3.71619 8.27687 3.71619C10.0243 3.71619 11.331 4.53474 12.2126 6.14035L12.2598 6.2348L14.8889 4.55048L14.8416 4.47178C13.472 2.14207 11.0319 0.756836 8.27687 0.756836C3.90036 0.756836 0.578613 4.0625 0.578613 8.45432C0.578613 12.9091 3.8059 16.1361 8.26113 16.1361C11.1263 16.1361 13.6609 14.5462 15.0463 11.8702L15.0935 11.7915L12.3543 10.3275Z" fill="#A1A9B3"/>
<path d="M27.4204 10.4218C27.4204 6.61238 30.2227 4.81787 32.6628 4.81787C34.0639 4.81787 35.1659 5.4003 35.8744 6.20311V5.03825H38.8183V15.5062C38.8183 18.5443 36.8977 20.9999 33.2611 20.9999C30.5218 20.9999 28.5224 19.5832 27.6566 17.8989L30.2541 16.4349C30.8209 17.5526 31.797 18.2609 33.2453 18.2609C34.8353 18.2609 35.8429 17.0174 35.8429 15.6164V14.609C35.1345 15.4432 33.9852 16.0257 32.5841 16.0257C30.3171 16.0257 27.4204 14.2154 27.4204 10.4218ZM35.9531 10.406C35.9531 8.81616 34.7881 7.52537 33.1981 7.52537C31.5608 7.52537 30.3171 8.75319 30.3171 10.406C30.3171 12.0589 31.5608 13.3182 33.1981 13.3182C34.7881 13.3182 35.9531 11.9959 35.9531 10.406Z" fill="#A1A9B3"/>
<path d="M95.0359 7.69865V5.05411H93.0051V1.49658H90.0611V5.05411H88.2192V7.69865H90.0454V11.1302C90.0454 14.6406 91.1631 15.8054 94.5951 15.8054H95.0201V13.0507C93.2097 13.0507 92.9893 12.7988 92.9893 11.1145V7.69865H95.0359Z" fill="#A1A9B3"/>
</svg>
