<svg width="83" height="16" viewBox="0 0 83 16" fill="none" xmlns="http://www.w3.org/2000/svg">
<path d="M3.14 7.97895C3.14 5.62211 5.01879 3.72011 7.36386 3.72011C8.74895 3.72011 10.0106 4.31276 10.9569 5.51185L13.1237 3.47202C11.7248 1.72162 9.55807 0.756836 7.36386 0.756836C3.64741 0.756836 0.150391 3.69254 0.150391 8.04786C0.150391 12.2102 3.64741 15.2286 7.19929 15.2286C9.55807 15.2286 11.7248 14.3052 13.2197 12.3756L11.0254 10.3633C10.0655 11.6314 8.73524 12.2516 7.36386 12.2516C5.01879 12.2516 3.14 10.3358 3.14 7.97895ZM23.5187 9.2056L29.0865 1.12897H25.6718L22.0651 6.57311L18.4583 1.12897H14.9887L20.5703 9.23317V14.8841H23.5187V9.2056V9.2056ZM31.9527 14.8703H34.9149V1.11518H31.9527V14.8703V14.8703ZM40.1124 14.8703H50.0687V12.0586H43.0061V3.94063H50.0687V1.12897H40.1124V14.8703V14.8703ZM46.9968 9.89474C48.0665 9.89474 48.9304 9.01265 48.9304 7.95138C48.9304 6.89012 48.0665 6.02181 46.9968 6.02181C45.9408 6.02181 45.0768 6.89012 45.0768 7.95138C45.0768 9.01265 45.9408 9.89474 46.9968 9.89474ZM63.9882 14.8703H66.6075V1.11518H63.7139V9.86717L57.2136 1.11518H54.3885V14.8703H57.2821V5.84264L63.9882 14.8703ZM82.4196 3.94063V1.12897H70.4474V3.94063H74.9592V14.8703H77.9214V3.94063H82.4196Z" fill="#A1A9B2"/>
</svg>
