<svg width="51" height="20" viewBox="0 0 51 20" fill="none" xmlns="http://www.w3.org/2000/svg">
<path d="M0.927734 0.424805V1.72757H10.5037V0.424805H0.927734ZM11.8606 0.424805V1.72757H25.5068C25.5068 1.72757 24.113 0.424805 22.2668 0.424805H11.8606ZM28.1839 0.424805V1.72757H36.4398L35.9495 0.424805H28.1839ZM42.3587 0.424805L41.8684 1.72757H50.0493V0.424805H42.3587ZM0.927734 2.95842V4.26105H10.5037V2.95842H0.927734ZM11.8606 2.96009V4.26105H27.0905C27.0905 4.26105 26.9126 3.25834 26.6022 2.96009H11.8606ZM28.1839 2.96009V4.26105H37.3447L36.8913 2.96009H28.1839ZM41.3787 2.96009L40.9251 4.26105H50.0497V2.96009H41.3787ZM3.67978 5.4919V6.79662H7.82689V5.4919H3.67978ZM14.6125 5.4919V6.79662H18.7596V5.4919H14.6125ZM22.7934 5.4919V6.79662H26.9405C26.9405 6.79662 27.2039 6.10746 27.2039 5.4919H22.7934ZM30.9358 5.4919V6.79662H38.2884L37.7984 5.4919H30.9358ZM40.4752 5.4919L39.9832 6.79662H47.3723V5.4919H40.4752ZM3.67978 8.02746V9.33037H7.82689V8.02746H3.67978ZM14.6125 8.02746V9.33037H25.2053C25.2053 9.33037 26.0912 8.66167 26.3738 8.02746H14.6125ZM30.9358 8.02746V9.33037H35.0831V8.60491L35.3463 9.33037H42.943L43.2255 8.60491V9.33037H47.3727V8.02746H39.5879L39.1747 9.13117L38.7595 8.02746H30.9358ZM3.67978 10.5609V11.8641H7.82689V10.5609H3.67978ZM14.6125 10.5609V11.8641H26.3738C26.091 11.2317 25.2053 10.5609 25.2053 10.5609H14.6125ZM30.9358 10.5609V11.8641H35.0831V10.5609H30.9358ZM35.8364 10.5609L36.3378 11.8641H42.0335L42.5103 10.5609H35.8364ZM43.2253 10.5609V11.8641H47.3726V10.5609H43.2253ZM3.67978 13.0948V14.3977H7.82689V13.0948H3.67978ZM14.6125 13.0948V14.3977H18.7596V13.0948H14.6125ZM22.7934 13.0948V14.3977H27.2037C27.2037 13.7829 26.9405 13.0948 26.9405 13.0948H22.7934ZM30.9358 13.0948V14.3977H35.0831V13.0948H30.9358ZM36.7777 13.0948L37.2641 14.3977H41.0828L41.5728 13.0948H36.7777ZM43.2253 13.0948V14.3977H47.3726V13.0948H43.2253ZM1.00263 15.6285V16.9329H10.5788V15.6285H1.00263ZM11.8606 15.6285V16.9329H26.6024C26.9126 16.6344 27.0906 15.6285 27.0906 15.6285H11.8606ZM28.259 15.6285V16.9329H35.0831V15.6285H28.259ZM37.7215 15.6285L38.2213 16.9329H40.1642L40.6333 15.6285H37.7215ZM43.2253 15.6285V16.9329H50.1242V15.6285H43.2253ZM1.00263 18.1637V19.4667H10.5788V18.1637H1.00263ZM11.8606 18.1637V19.4646H22.2668C24.113 19.4646 25.5068 18.1637 25.5068 18.1637H11.8606ZM28.259 18.1637V19.4667H35.0831V18.1637H28.259ZM38.6689 18.1637L39.1495 19.4626L39.232 19.4646L39.7203 18.1637H38.6689ZM43.2253 18.1637V19.4667H50.1242V18.1637H43.2253Z" fill="#A1A9B2"/>
</svg>
