<svg width="63" height="24" viewBox="0 0 63 24" fill="none" xmlns="http://www.w3.org/2000/svg">
<path fill-rule="evenodd" clip-rule="evenodd" d="M60.77 4.20146C61.8089 4.20146 62.6596 3.35753 62.6596 2.31203C62.6596 1.2776 61.8089 0.424805 60.77 0.424805V0.7039C61.6539 0.7039 62.3783 1.42822 62.3783 2.31203C62.3783 3.20026 61.6539 3.91794 60.77 3.91794V4.20146ZM60.77 2.456V2.13704H60.852C61.0225 2.13704 61.1577 2.0573 61.1577 1.87788C61.1577 1.70067 61.0358 1.61429 60.8209 1.61429H60.77V1.26874C61.1355 1.27317 61.5343 1.35513 61.5343 1.9111C61.5365 2.26551 61.3172 2.33861 61.1909 2.40284L61.5586 3.2645H61.1577L60.8431 2.456H60.77ZM60.77 0.424805C59.7377 0.424805 58.8804 1.2776 58.8804 2.31203C58.8804 3.35753 59.7377 4.20146 60.77 4.20146V3.91794C59.8861 3.91794 59.1639 3.20026 59.1639 2.31203C59.1639 1.42822 59.8861 0.7039 60.77 0.7039V0.424805ZM60.77 1.26874V1.61429H60.42V2.13704H60.77V2.456H60.42V3.2645H60.0567V1.26874H60.7257C60.739 1.26874 60.7567 1.26874 60.77 1.26874Z" fill="#A1A9B2"/>
<path fill-rule="evenodd" clip-rule="evenodd" d="M0.195801 3.15819V0.907715H2.43099V19.4785H0.195801V3.15819Z" fill="#A1A9B2"/>
<path fill-rule="evenodd" clip-rule="evenodd" d="M43.1542 23.4831V22.236C43.2184 22.1164 43.2871 21.9813 43.3646 21.8329L43.1542 22.2205L43.3646 21.8329L43.3757 21.8085C43.8741 20.8317 44.5941 19.2967 45.2343 17.8303L43.1542 12.8066V7.66112C43.1586 7.67441 43.1675 7.68992 43.1719 7.70321L43.9229 9.54832L43.1542 7.65669L43.9229 9.54832L46.2002 15.0881L46.4638 15.983L46.7606 15.0881L49.6382 7.97565C50.1677 6.01314 52.2722 5.167 54.5916 5.17143C55.7413 5.167 56.5941 5.30654 57.6154 5.66316V7.81617C56.3571 6.90137 55.4555 6.37197 54.0289 6.37197C52.7773 6.37197 51.2687 6.92795 51.2687 8.77306C51.2465 10.1575 52.0772 10.4122 54.5162 11.6238C56.5255 12.4943 58.3796 13.4556 58.3885 15.6817C58.3885 19.3986 54.7267 20.0409 52.9456 20.0453C51.3551 20.0453 49.8974 19.6533 49.0889 18.9799V16.5279L49.2196 16.632C50.6639 17.9854 51.9443 18.6831 53.5969 18.6831C55.2229 18.6964 56.6717 17.899 56.6717 16.3706C56.6717 15.0881 55.5375 14.3416 53.5105 13.4866C51.5766 12.6494 50.305 12.0934 49.7844 10.709C48.998 12.6294 45.3274 21.5693 44.4612 23.4831H43.1542ZM43.1542 7.66112V12.8066L41.4241 8.6313C41.413 8.61801 41.4063 8.59143 41.3908 8.55821V8.55599L41.4241 8.6313C41.4595 8.70883 41.4219 8.62687 41.3908 8.54935V5.41287C41.7364 5.49039 42.0665 5.5657 42.3345 5.64101L43.0766 7.47063L43.1542 7.65669L43.0766 7.47063C43.0988 7.53043 43.1254 7.5991 43.1542 7.66112ZM43.1542 22.236V23.4831H42.4807L42.9504 22.6081L43.1542 22.2205L42.9504 22.6081C43.0035 22.5129 43.0766 22.3844 43.1542 22.236ZM41.3908 18.7185V12.9816C42.1883 13.624 42.7156 14.4524 42.7222 15.6419C42.7222 17.0794 42.1706 18.0585 41.3908 18.7185ZM27.5145 18.7473C27.5499 18.7473 27.5831 18.7473 27.6186 18.7473C30.1551 18.7008 32.1621 15.9276 32.1045 12.5519C32.0491 9.22272 30.0044 6.55139 27.5123 6.5226L27.5145 5.04296C27.5411 5.04296 27.5676 5.04296 27.592 5.04296C30.2813 5.04296 32.6007 6.81055 33.6773 9.36448C33.6662 9.22272 33.6574 9.07874 33.6574 8.92369C33.6574 6.25458 36.2404 5.12491 38.923 5.12934C39.0227 5.12934 39.1268 5.12934 39.2221 5.12934C39.8579 5.12048 40.6753 5.25781 41.3908 5.41287V8.54935L41.3421 8.44081L41.3908 8.55599V8.55821C41.3554 8.4829 41.2956 8.34999 41.2092 8.144C40.9168 7.47949 40.6443 6.86592 39.8202 6.55582C39.3772 6.4052 38.9075 6.32767 38.3626 6.32767C37.111 6.32767 35.5071 6.88365 35.5071 8.72876C35.4805 10.1176 36.4087 10.3679 38.8499 11.5795C39.787 11.9871 40.6908 12.4124 41.3908 12.9816V18.7185C40.1614 19.7574 38.3714 19.9988 37.2771 20.0033C35.866 20.0033 34.5546 19.6887 33.7128 19.146V16.7383C35.0973 17.9942 36.3401 18.641 37.9306 18.641C39.5566 18.6521 41.0032 17.8591 41.0032 16.3241C41.0032 15.0482 39.869 14.3018 37.8442 13.4446C36.1274 12.7025 34.8514 12.1798 34.1802 11.1055C34.2621 11.5751 34.3087 12.058 34.3087 12.5475C34.3087 16.694 31.3026 20.0542 27.592 20.0542C27.5699 20.0542 27.5411 20.0542 27.5123 20.0542L27.5145 18.7473ZM22.9222 12.7158C22.9821 16.045 25.0267 18.7141 27.5123 18.7473L27.5145 20.0542C23.8371 20.0077 20.8731 16.6652 20.8731 12.5475C20.8731 10.0489 21.9653 7.83389 23.6466 6.47386H19.1009V19.4783H17.0806V17.3386C17.085 17.3031 17.0828 17.2677 17.0828 17.2256L17.085 6.47386H15.3018V5.12048H17.1072C17.3442 2.38714 19.0323 0.843262 21.3782 0.843262C22.8957 0.843262 23.733 1.00496 24.2115 1.22203V3.07601C24.2071 3.21334 24.2071 3.29973 24.2071 3.29973C24.1849 3.2953 24.134 3.2953 24.134 3.2953C23.4052 2.61971 22.6808 2.11912 20.995 2.11912C19.657 2.11912 18.7686 3.2067 19.0788 5.12048H26.635C26.9274 5.07618 27.2176 5.04739 27.5123 5.04296L27.5145 6.5226C27.4835 6.51817 27.4436 6.51817 27.4081 6.5226C24.8717 6.56468 22.8624 9.3379 22.9222 12.7158Z" fill="#A1A9B2"/>
<path fill-rule="evenodd" clip-rule="evenodd" d="M6.60462 5.25761L6.62677 6.88345V6.99198H6.64892C6.67329 6.92553 6.70874 6.86573 6.73975 6.82364C7.56604 5.93984 8.59835 5.06934 11.0573 5.06934C13.4121 5.06934 14.934 7.06951 14.9982 8.32543V19.4781H12.9801V9.24689C12.9801 7.68086 11.6045 6.54676 9.91421 6.54676C8.51639 6.54676 6.71317 7.80712 6.65335 9.08297V17.2299L6.65778 17.2897V19.4781H4.63525L4.6419 17.2299L4.63525 7.12932L4.6419 5.25761H6.60462Z" fill="#A1A9B2"/>
</svg>
