<svg width="81" height="16" viewBox="0 0 81 16" fill="none" xmlns="http://www.w3.org/2000/svg">
<path fill-rule="evenodd" clip-rule="evenodd" d="M0.507324 15.0934C0.793716 15.0934 1.00886 15.0222 1.29525 15.0222C1.58164 15.0222 1.86873 15.0934 2.22637 15.0934V1.19505H0.507324V15.0934ZM17.058 1.19505H16.0556V11.6543H15.8398L6.52575 1.19505H5.73782V15.0927C5.88102 15.0927 6.16741 15.0215 6.38255 15.0215C6.4545 15.0215 6.66894 15.0927 6.81214 15.0927V4.13271H7.09853L15.4814 13.8041C15.9823 14.3049 16.2687 14.8071 16.4845 15.0934H17.0573L17.058 1.19505ZM26.7311 10.3649C26.4447 11.2967 25.9424 12.0838 25.5834 12.9443H25.369L22.8613 6.71138L21.7136 3.12905C21.4272 2.48438 21.2128 1.76847 20.9264 1.19505H19.0627C19.8514 2.84268 22.7174 10.3649 25.0099 15.0927C25.0826 15.0927 25.2963 15.0215 25.369 15.0215C25.5834 15.0215 25.7266 15.0927 25.7985 15.0927C26.5145 12.9443 30.8844 2.41244 31.4593 1.19505H30.0979L29.9547 1.55335L28.7365 4.84862L26.7311 10.3649ZM35.6134 2.19802H39.0529C39.6257 2.19802 40.2711 2.3412 40.8439 2.48438C40.8439 2.19802 40.7007 2.05484 40.7007 1.83972C40.7007 1.6246 40.8439 1.40947 40.8439 1.19505H33.8231V15.0927H40.9159C40.9159 14.9495 40.8432 14.7351 40.8432 14.4474C40.8432 14.2329 40.9159 14.0898 40.9159 13.8034C40.3431 13.9466 39.6976 14.0178 39.1249 14.0178C37.9772 14.0905 36.8316 14.0905 35.6134 14.0905V8.07264H38.6233C39.1961 8.07264 39.6983 8.14459 40.4143 8.21583C40.4143 8.07265 40.3431 8.00071 40.3431 7.78628C40.3431 7.57186 40.4143 7.42798 40.4143 7.06968C39.6983 7.2848 39.1961 7.42798 38.6233 7.42798H35.6134V2.19802ZM43.5674 12.2996C43.4948 13.0155 43.4242 13.589 43.2084 14.2343C43.9244 14.9502 45.5016 15.3805 46.432 15.3805C49.0829 15.3805 51.233 13.5897 51.233 10.7959C51.233 6.42641 44.9288 8.0021 44.9288 4.20535C44.9288 2.7009 46.1457 1.84112 47.5797 1.84112C48.5828 1.84112 49.5146 2.48578 49.9442 3.48875H50.0154C50.3018 2.84408 50.445 2.48578 50.6609 1.84112C49.9449 1.26769 48.7972 0.910087 47.8668 0.910087C45.5736 0.910087 43.4955 2.19942 43.4955 4.85002C43.4955 9.50655 49.5858 7.78768 49.5858 11.5125C49.5858 13.1601 48.5108 14.4495 46.935 14.4495C45.4304 14.4495 44.4986 13.6623 43.6387 12.301H43.5674V12.2996ZM64.4873 12.9443C64.2009 13.3019 62.6251 14.5905 60.4038 14.5905C57.3233 14.5905 55.1733 12.1558 55.1733 8.14389C55.1733 4.77668 56.8937 1.6253 60.547 1.6253C62.6251 1.6253 63.9865 3.05781 64.2002 3.41611L64.4161 3.34417C64.4921 2.82589 64.6366 2.32 64.8457 1.83972C63.4843 1.2663 62.0516 0.908691 60.6175 0.908691C56.462 0.908691 53.2384 3.48735 53.2384 8.14389C53.2384 12.5853 55.6748 15.3791 60.188 15.3791C61.5494 15.3791 63.1979 15.0927 64.4161 14.2329L64.4873 12.9443ZM73.2286 15.3798C77.5272 15.3798 80.6803 12.4428 80.6803 8.0014C80.6803 2.84338 76.8818 0.909389 73.2286 0.909389C69.2163 0.909389 65.9926 3.77511 65.9926 8.14459C65.9926 12.5148 68.8586 15.3798 73.2286 15.3798ZM78.8167 8.14389C78.9599 10.3649 77.384 14.7358 73.2286 14.7358C70.3632 14.7358 67.9268 12.586 67.9268 8.43095C67.9268 4.2759 70.0049 1.6253 73.4437 1.6253C75.0915 1.6253 76.5954 2.3412 77.5272 3.48805C78.5303 4.92056 78.8167 6.28183 78.8167 8.14389Z" fill="#A1A9B2"/>
</svg>
