<svg width="990" height="37" viewBox="0 0 990 37" fill="none" xmlns="http://www.w3.org/2000/svg">
<path d="M100.648 19.0866C100.632 19.5434 100.693 20.0003 100.815 20.442C100.952 20.8227 101.119 21.1882 101.301 21.5385C101.362 21.6451 101.408 21.7669 101.408 21.8888C101.392 22.0715 101.286 22.2543 101.119 22.3456L100.161 22.9853C100.04 23.0614 99.9027 23.1223 99.7659 23.1223C99.5987 23.1071 99.4315 23.031 99.3099 22.9091C99.1123 22.6959 98.9147 22.4522 98.7626 22.1933C98.6106 21.9345 98.4586 21.6451 98.2914 21.2948C97.1057 22.6959 95.616 23.3965 93.8223 23.3965C92.5454 23.3965 91.527 23.031 90.7821 22.3C90.0373 21.5689 89.6572 20.5943 89.6572 19.3759C89.6572 18.0814 90.1133 17.0306 91.0405 16.2387C91.9678 15.4467 93.1991 15.0508 94.7648 15.0508C95.2968 15.0508 95.844 15.0965 96.3761 15.1726C96.9385 15.2488 97.5162 15.3706 98.1242 15.5077V14.3959C98.1242 13.2385 97.881 12.4313 97.4098 11.9592C96.9385 11.4871 96.1025 11.2587 94.932 11.2587C94.3847 11.2587 93.8223 11.3196 93.2903 11.4566C92.7278 11.5937 92.1806 11.7612 91.6486 11.9744C91.4814 12.0506 91.2989 12.1115 91.1165 12.1724C91.0405 12.2029 90.9493 12.2181 90.8733 12.2181C90.6605 12.2181 90.5541 12.0658 90.5541 11.746V10.9998C90.5389 10.817 90.5845 10.6343 90.6605 10.4667C90.7821 10.3297 90.9189 10.2231 91.0861 10.1469C91.6942 9.84233 92.3326 9.61388 93.0015 9.46159C93.7767 9.26361 94.5824 9.17223 95.3728 9.17223C97.1817 9.17223 98.5042 9.58343 99.3555 10.4058C100.207 11.2282 100.617 12.477 100.617 14.1522V19.0866H100.648ZM94.476 21.4014C95.008 21.4014 95.54 21.31 96.0417 21.1273C96.6041 20.9293 97.0905 20.5943 97.4858 20.1526C97.729 19.8785 97.9114 19.5434 98.0026 19.1779C98.109 18.7515 98.1546 18.2946 98.1546 17.853V17.2133C97.6986 17.1067 97.2273 17.0154 96.7561 16.9544C96.2849 16.8935 95.7984 16.8631 95.3272 16.8631C94.3087 16.8631 93.5639 17.061 93.0623 17.4722C92.5606 17.8834 92.3174 18.4622 92.3174 19.2236C92.3174 19.9394 92.4998 20.4724 92.8798 20.8379C93.2599 21.2034 93.7767 21.4014 94.476 21.4014ZM106.682 23.0462C106.485 23.0614 106.272 23.0157 106.105 22.8939C105.953 22.7264 105.831 22.5284 105.786 22.3L102.213 10.5276C102.137 10.3297 102.092 10.1317 102.076 9.91847C102.061 9.73572 102.183 9.5682 102.365 9.53774H103.946C104.235 9.53774 104.433 9.58343 104.539 9.69003C104.645 9.79664 104.752 9.99462 104.843 10.284L107.382 20.3658L109.753 10.284C109.829 9.97939 109.92 9.78141 110.042 9.69003C110.224 9.58343 110.437 9.52251 110.65 9.53774H111.866C112.155 9.53774 112.352 9.58343 112.474 9.69003C112.626 9.85755 112.732 10.0555 112.763 10.284L115.165 20.4877L117.794 10.284C117.84 10.0555 117.946 9.85755 118.098 9.69003C118.281 9.58343 118.478 9.52251 118.691 9.53774H120.105C120.287 9.50728 120.455 9.64434 120.485 9.8271V9.91847C120.485 9.99462 120.47 10.086 120.455 10.1621C120.424 10.2992 120.394 10.421 120.348 10.5429L116.685 22.3152C116.593 22.6198 116.487 22.8178 116.365 22.9091C116.198 23.0157 115.985 23.0767 115.788 23.0614H114.481C114.192 23.0614 113.994 23.0157 113.872 22.9091C113.72 22.7416 113.614 22.5284 113.584 22.3L111.228 12.477L108.887 22.2847C108.856 22.5132 108.75 22.7264 108.598 22.8939C108.415 23.0157 108.202 23.0614 107.99 23.0462H106.682ZM126.216 23.4574C125.425 23.4574 124.635 23.366 123.875 23.1833C123.115 23.0005 122.522 22.8025 122.127 22.5741C121.929 22.4827 121.762 22.3304 121.655 22.1477C121.595 22.0106 121.564 21.8735 121.564 21.7212V20.9445C121.564 20.6247 121.686 20.4724 121.914 20.4724C122.005 20.4724 122.096 20.4877 122.187 20.5181C122.279 20.5486 122.415 20.6095 122.567 20.6704C123.1 20.9141 123.662 21.0816 124.24 21.2034C124.832 21.3253 125.44 21.3862 126.049 21.3862C127.006 21.3862 127.751 21.2187 128.268 20.8836C128.77 20.579 129.074 20.0308 129.058 19.4368C129.074 19.0409 128.922 18.6601 128.648 18.3708C128.374 18.0814 127.857 17.8225 127.113 17.5788L124.908 16.8935C123.799 16.5433 122.978 16.0255 122.476 15.3401C121.99 14.7005 121.716 13.939 121.716 13.1319C121.701 12.5379 121.838 11.9592 122.127 11.4414C122.4 10.9541 122.765 10.5276 123.221 10.1926C123.692 9.8271 124.224 9.5682 124.802 9.40067C125.425 9.21792 126.064 9.12654 126.717 9.14177C127.052 9.14177 127.401 9.157 127.736 9.20269C128.085 9.24838 128.405 9.3093 128.724 9.37021C129.043 9.43113 129.317 9.52251 129.59 9.61388C129.818 9.69003 130.031 9.78141 130.229 9.88801C130.411 9.97939 130.563 10.1012 130.685 10.2687C130.791 10.421 130.837 10.5886 130.822 10.7713V11.4871C130.822 11.8069 130.7 11.9744 130.472 11.9744C130.274 11.944 130.077 11.8831 129.894 11.7917C128.982 11.3805 127.979 11.1825 126.976 11.1977C126.109 11.1977 125.425 11.3348 124.954 11.6242C124.483 11.9135 124.24 12.3552 124.24 12.9796C124.224 13.3908 124.392 13.7867 124.696 14.0609C125 14.3502 125.562 14.6396 126.368 14.8985L128.526 15.5838C129.621 15.9341 130.411 16.4214 130.882 17.0458C131.354 17.655 131.597 18.4165 131.582 19.1779C131.597 19.7871 131.46 20.3963 131.186 20.9445C130.913 21.4623 130.533 21.9192 130.077 22.2847C129.575 22.6807 128.998 22.97 128.389 23.1376C127.69 23.3508 126.961 23.4574 126.216 23.4574Z" fill="#A1A9B2"/>
<path d="M129.089 30.859C124.088 34.5598 116.822 36.5244 110.574 36.5244C101.818 36.5244 93.9289 33.2805 87.9701 27.8893C87.4988 27.4629 87.9245 26.8842 88.4869 27.2192C94.9321 30.9656 102.882 33.2348 111.106 33.2348C117.034 33.2044 122.902 32.0012 128.359 29.7016C129.195 29.3209 129.91 30.2499 129.089 30.859Z" fill="#A1A9B2"/>
<path d="M131.172 28.4828C130.533 27.6604 126.946 28.0868 125.319 28.2848C124.833 28.3457 124.757 27.9193 125.198 27.5995C128.055 25.5892 132.753 26.1679 133.3 26.838C133.847 27.5081 133.148 32.2292 130.472 34.4831C130.062 34.8334 129.667 34.6506 129.849 34.1937C130.457 32.686 131.81 29.2899 131.172 28.4828Z" fill="#A1A9B2"/>
<path d="M0.927734 11.4248V12.7276H10.5037V11.4248H0.927734ZM11.8606 11.4248V12.7276H25.5068C25.5068 12.7276 24.113 11.4248 22.2668 11.4248H11.8606ZM28.1839 11.4248V12.7276H36.4398L35.9495 11.4248H28.1839ZM42.3587 11.4248L41.8684 12.7276H50.0493V11.4248H42.3587ZM0.927734 13.9584V15.2611H10.5037V13.9584H0.927734ZM11.8606 13.9601V15.2611H27.0905C27.0905 15.2611 26.9126 14.2583 26.6022 13.9601H11.8606ZM28.1839 13.9601V15.2611H37.3447L36.8913 13.9601H28.1839ZM41.3787 13.9601L40.9251 15.2611H50.0497V13.9601H41.3787ZM3.67978 16.4919V17.7966H7.82689V16.4919H3.67978ZM14.6125 16.4919V17.7966H18.7596V16.4919H14.6125ZM22.7934 16.4919V17.7966H26.9405C26.9405 17.7966 27.2039 17.1075 27.2039 16.4919H22.7934ZM30.9358 16.4919V17.7966H38.2884L37.7985 16.4919H30.9358ZM40.4752 16.4919L39.9832 17.7966H47.3723V16.4919H40.4752ZM3.67978 19.0275V20.3304H7.82689V19.0275H3.67978ZM14.6125 19.0275V20.3304H25.2053C25.2053 20.3304 26.0912 19.6617 26.3738 19.0275H14.6125ZM30.9358 19.0275V20.3304H35.0831V19.6049L35.3463 20.3304H42.943L43.2255 19.6049V20.3304H47.3727V19.0275H39.5879L39.1747 20.1312L38.7595 19.0275H30.9358ZM3.67978 21.5609V22.8641H7.82689V21.5609H3.67978ZM14.6125 21.5609V22.8641H26.3738C26.091 22.2317 25.2053 21.5609 25.2053 21.5609H14.6125ZM30.9358 21.5609V22.8641H35.0831V21.5609H30.9358ZM35.8364 21.5609L36.3378 22.8641H42.0335L42.5103 21.5609H35.8364ZM43.2253 21.5609V22.8641H47.3726V21.5609H43.2253ZM3.67978 24.0948V25.3977H7.82689V24.0948H3.67978ZM14.6125 24.0948V25.3977H18.7596V24.0948H14.6125ZM22.7934 24.0948V25.3977H27.2037C27.2037 24.7829 26.9405 24.0948 26.9405 24.0948H22.7934ZM30.9358 24.0948V25.3977H35.0831V24.0948H30.9358ZM36.7777 24.0948L37.2641 25.3977H41.0828L41.5728 24.0948H36.7777ZM43.2253 24.0948V25.3977H47.3726V24.0948H43.2253ZM1.00263 26.6285V27.9329H10.5788V26.6285H1.00263ZM11.8606 26.6285V27.9329H26.6024C26.9126 27.6344 27.0906 26.6285 27.0906 26.6285H11.8606ZM28.259 26.6285V27.9329H35.0831V26.6285H28.259ZM37.7215 26.6285L38.2213 27.9329H40.1642L40.6333 26.6285H37.7215ZM43.2253 26.6285V27.9329H50.1242V26.6285H43.2253ZM1.00263 29.1637V30.4667H10.5788V29.1637H1.00263ZM11.8606 29.1637V30.4646H22.2668C24.113 30.4646 25.5068 29.1637 25.5068 29.1637H11.8606ZM28.259 29.1637V30.4667H35.0831V29.1637H28.259ZM38.6689 29.1637L39.1495 30.4626L39.232 30.4646L39.7203 29.1637H38.6689ZM43.2253 29.1637V30.4667H50.1242V29.1637H43.2253Z" fill="#A1A9B2"/>
<path d="M239.55 8.58736V12.1654L251.073 7.51394V4.65149L239.55 0V3.43495L246.278 6.08272L239.55 8.58736Z" fill="#A1A9B2"/>
<path d="M177.787 16.7456C174.566 16.7456 172.204 18.1768 171.989 21.1824H175.568V21.1108C175.639 20.109 176.57 19.3934 177.572 19.4649C178.932 19.4649 179.576 20.2521 179.576 21.6118V22.2558H177.93C174.423 22.2558 171.56 23.3292 171.56 26.6926V26.8357C171.56 29.555 173.564 30.7716 175.997 30.7716C177.5 30.8431 178.86 30.1275 179.719 28.9825V30.5569H183.369V21.5402C183.297 18.1053 180.936 16.7456 177.787 16.7456ZM176.999 28.1238C175.711 28.1238 175.138 27.4798 175.138 26.5495V26.4063C175.138 25.1898 176.069 24.6889 177.93 24.6889H179.433V25.977C179.504 27.4082 178.288 28.1238 176.999 28.1238Z" fill="#A1A9B2"/>
<path d="M191.957 27.9807C190.168 27.9807 189.237 26.7642 189.237 24.0448V23.6155C189.237 20.9677 190.311 19.6796 191.957 19.6796C193.245 19.6796 193.961 20.5383 194.176 21.8264H197.754C197.468 18.3199 194.891 16.7456 191.886 16.7456C188.307 16.7456 185.444 19.1787 185.444 23.7586V23.9017C185.444 28.4816 188.164 30.7716 191.886 30.7716C195.535 30.7716 197.611 28.5532 197.897 25.5476H194.462C194.176 27.0504 193.245 27.9807 191.957 27.9807Z" fill="#A1A9B2"/>
<path d="M205.913 27.9807C204.124 27.9807 203.194 26.7642 203.194 24.0448V23.6155C203.194 20.9677 204.267 19.6796 205.913 19.6796C207.201 19.6796 207.917 20.5383 208.132 21.8264H211.71C211.424 18.3199 208.847 16.7456 205.842 16.7456C202.263 16.7456 199.4 19.1787 199.4 23.7586V23.9017C199.4 28.4816 202.12 30.7716 205.842 30.7716C209.492 30.7716 211.567 28.5532 211.782 25.5476H208.418C208.203 27.0504 207.201 27.9807 205.913 27.9807Z" fill="#A1A9B2"/>
<path d="M220.012 28.0522C218.366 28.0522 217.364 27.1219 217.221 24.6889H225.952V23.1145C225.952 18.6777 223.161 16.7456 219.797 16.7456C216.147 16.7456 213.356 19.2502 213.356 23.7586V24.0448C213.356 28.5532 216.004 30.8431 219.869 30.8431C223.376 30.8431 225.523 28.911 225.88 26.3348H222.374C222.23 27.4082 221.157 28.1954 220.012 28.0522ZM219.797 19.3218C221.3 19.3218 222.23 20.1805 222.302 22.1842H217.292C217.578 20.0374 218.652 19.3934 219.797 19.3218Z" fill="#A1A9B2"/>
<path d="M236.115 16.7454C234.397 16.6738 232.823 17.5325 232.036 19.0353V17.0316H228.314V30.4851H232.036V21.8978C232.107 20.6812 233.181 19.6794 234.397 19.7509C235.757 19.7509 236.401 20.4665 236.401 22.0409V30.4851H240.194V21.4684C240.194 18.1766 238.548 16.7454 236.115 16.7454Z" fill="#A1A9B2"/>
<path d="M247.208 26.1915V19.8225H249.784V17.0316H247.208V12.9526L243.486 14.527V17.0316H241.84V19.8225H243.415V26.6208C243.415 29.3402 244.775 30.6998 247.709 30.6998C248.425 30.6998 249.14 30.6283 249.856 30.4136V27.4796C249.427 27.6227 248.997 27.6943 248.568 27.6943C247.709 27.6943 247.208 27.1933 247.208 26.1915Z" fill="#A1A9B2"/>
<path d="M260.162 25.4044V25.7622C260.09 26.9787 259.017 27.9806 257.8 27.909C256.44 27.909 255.868 27.1934 255.868 25.6191V17.0317H252.075V26.12C252.075 29.2687 253.864 30.7715 256.297 30.7715C257.943 30.843 259.446 29.9843 260.234 28.4815V30.4852H264.027V17.0317H260.234L260.162 25.4044Z" fill="#A1A9B2"/>
<path d="M270.468 19.4649V16.9603H266.746V30.4138H270.468V23.4723C270.468 21.254 271.971 20.4668 274.547 20.4668V16.7456C272.686 16.7456 271.04 17.819 270.468 19.4649Z" fill="#A1A9B2"/>
<path d="M288.288 23.043C288.288 18.6062 285.497 16.7456 282.134 16.7456C278.484 16.7456 275.692 19.2502 275.692 23.7586V24.0448C275.692 28.5532 278.34 30.8431 282.205 30.8431C285.712 30.8431 287.787 28.911 288.217 26.3348H284.71C284.424 27.4797 283.35 28.1954 282.205 28.1238C280.559 28.1238 279.557 27.1935 279.414 24.7604H288.145V23.043H288.288ZM279.557 22.1842C279.843 19.9658 280.917 19.3218 282.134 19.3218C283.637 19.3218 284.567 20.1805 284.638 22.1842H279.557Z" fill="#A1A9B2"/>
<path fill-rule="evenodd" clip-rule="evenodd" d="M386.77 15.2015C387.809 15.2015 388.66 14.3575 388.66 13.312C388.66 12.2776 387.809 11.4248 386.77 11.4248V11.7039C387.654 11.7039 388.378 12.4282 388.378 13.312C388.378 14.2003 387.654 14.9179 386.77 14.9179V15.2015ZM386.77 13.456V13.137H386.852C387.023 13.137 387.158 13.0573 387.158 12.8779C387.158 12.7007 387.036 12.6143 386.821 12.6143H386.77V12.2687C387.136 12.2732 387.534 12.3551 387.534 12.9111C387.536 13.2655 387.317 13.3386 387.191 13.4028L387.559 14.2645H387.158L386.843 13.456H386.77ZM386.77 11.4248C385.738 11.4248 384.88 12.2776 384.88 13.312C384.88 14.3575 385.738 15.2015 386.77 15.2015V14.9179C385.886 14.9179 385.164 14.2003 385.164 13.312C385.164 12.4282 385.886 11.7039 386.77 11.7039V11.4248ZM386.77 12.2687V12.6143H386.42V13.137H386.77V13.456H386.42V14.2645H386.057V12.2687H386.726C386.739 12.2687 386.757 12.2687 386.77 12.2687Z" fill="#A1A9B2"/>
<path fill-rule="evenodd" clip-rule="evenodd" d="M326.196 14.1582V11.9077H328.431V30.4785H326.196V14.1582Z" fill="#A1A9B2"/>
<path fill-rule="evenodd" clip-rule="evenodd" d="M369.154 34.4831V33.236C369.218 33.1164 369.287 32.9813 369.365 32.8329L369.154 33.2205L369.365 32.8329L369.376 32.8085C369.874 31.8317 370.594 30.2967 371.234 28.8303L369.154 23.8066V18.6611C369.159 18.6744 369.167 18.6899 369.172 18.7032L369.923 20.5483L369.154 18.6567L369.923 20.5483L372.2 26.0881L372.464 26.983L372.761 26.0881L375.638 18.9757C376.168 17.0131 378.272 16.167 380.592 16.1714C381.741 16.167 382.594 16.3065 383.615 16.6632V18.8162C382.357 17.9014 381.456 17.372 380.029 17.372C378.777 17.372 377.269 17.9279 377.269 19.7731C377.247 21.1575 378.077 21.4122 380.516 22.6238C382.525 23.4943 384.38 24.4556 384.389 26.6817C384.389 30.3986 380.727 31.0409 378.946 31.0453C377.355 31.0453 375.897 30.6533 375.089 29.9799V27.5279L375.22 27.632C376.664 28.9854 377.944 29.6831 379.597 29.6831C381.223 29.6964 382.672 28.899 382.672 27.3706C382.672 26.0881 381.537 25.3416 379.511 24.4866C377.577 23.6494 376.305 23.0934 375.784 21.709C374.998 23.6294 371.327 32.5693 370.461 34.4831H369.154ZM369.154 18.6611V23.8066L367.424 19.6313C367.413 19.618 367.406 19.5914 367.391 19.5582V19.556L367.424 19.6313C367.46 19.7088 367.422 19.6269 367.391 19.5493V16.4129C367.736 16.4904 368.066 16.5657 368.335 16.641L369.077 18.4706L369.154 18.6567L369.077 18.4706C369.099 18.5304 369.125 18.5991 369.154 18.6611ZM369.154 33.236V34.4831H368.481L368.95 33.6081L369.154 33.2205L368.95 33.6081C369.004 33.5129 369.077 33.3844 369.154 33.236ZM367.391 29.7185V23.9816C368.188 24.624 368.716 25.4524 368.722 26.6419C368.722 28.0794 368.171 29.0585 367.391 29.7185ZM353.514 29.7473C353.55 29.7473 353.583 29.7473 353.619 29.7473C356.155 29.7008 358.162 26.9276 358.104 23.5519C358.049 20.2227 356.004 17.5514 353.512 17.5226L353.514 16.043C353.541 16.043 353.568 16.043 353.592 16.043C356.281 16.043 358.601 17.8105 359.677 20.3645C359.666 20.2227 359.657 20.0787 359.657 19.9237C359.657 17.2546 362.24 16.1249 364.923 16.1293C365.023 16.1293 365.127 16.1293 365.222 16.1293C365.858 16.1205 366.675 16.2578 367.391 16.4129V19.5493L367.342 19.4408L367.391 19.556V19.5582C367.355 19.4829 367.296 19.35 367.209 19.144C366.917 18.4795 366.644 17.8659 365.82 17.5558C365.377 17.4052 364.908 17.3277 364.363 17.3277C363.111 17.3277 361.507 17.8836 361.507 19.7288C361.481 21.1176 362.409 21.3679 364.85 22.5795C365.787 22.9871 366.691 23.4124 367.391 23.9816V29.7185C366.161 30.7574 364.371 30.9988 363.277 31.0033C361.866 31.0033 360.555 30.6887 359.713 30.146V27.7383C361.097 28.9942 362.34 29.641 363.931 29.641C365.557 29.6521 367.003 28.8591 367.003 27.3241C367.003 26.0482 365.869 25.3018 363.844 24.4446C362.127 23.7025 360.851 23.1798 360.18 22.1055C360.262 22.5751 360.309 23.058 360.309 23.5475C360.309 27.694 357.303 31.0542 353.592 31.0542C353.57 31.0542 353.541 31.0542 353.512 31.0542L353.514 29.7473ZM348.922 23.7158C348.982 27.045 351.027 29.7141 353.512 29.7473L353.514 31.0542C349.837 31.0077 346.873 27.6652 346.873 23.5475C346.873 21.0489 347.965 18.8339 349.647 17.4739H345.101V30.4783H343.081V28.3386C343.085 28.3031 343.083 28.2677 343.083 28.2256L343.085 17.4739H341.302V16.1205H343.107C343.344 13.3871 345.032 11.8433 347.378 11.8433C348.896 11.8433 349.733 12.005 350.212 12.222V14.076C350.207 14.2133 350.207 14.2997 350.207 14.2997C350.185 14.2953 350.134 14.2953 350.134 14.2953C349.405 13.6197 348.681 13.1191 346.995 13.1191C345.657 13.1191 344.769 14.2067 345.079 16.1205H352.635C352.927 16.0762 353.218 16.0474 353.512 16.043L353.514 17.5226C353.483 17.5182 353.444 17.5182 353.408 17.5226C350.872 17.5647 348.862 20.3379 348.922 23.7158Z" fill="#A1A9B2"/>
<path fill-rule="evenodd" clip-rule="evenodd" d="M332.605 16.2576L332.627 17.8834V17.992H332.649C332.673 17.9255 332.709 17.8657 332.74 17.8236C333.566 16.9398 334.598 16.0693 337.057 16.0693C339.412 16.0693 340.934 18.0695 340.998 19.3254V30.4781H338.98V20.2469C338.98 18.6809 337.604 17.5468 335.914 17.5468C334.516 17.5468 332.713 18.8071 332.653 20.083V28.2299L332.658 28.2897V30.4781H330.635L330.642 28.2299L330.635 18.1293L330.642 16.2576H332.605Z" fill="#A1A9B2"/>
<path d="M462.427 30.0295L458.324 18.5653C458.272 18.4068 458.194 18.1975 458.194 18.014C458.194 17.5171 458.612 17.0454 459.211 17.0454C459.735 17.0454 460.075 17.3862 460.231 17.883L463.631 27.7614L467.054 17.8554C467.21 17.3856 467.524 17.0447 468.045 17.0447H468.151C468.701 17.0447 469.04 17.3856 469.196 17.8554L472.592 27.7614L476.045 17.831C476.175 17.4094 476.461 17.0447 477.011 17.0447C477.586 17.0447 478.005 17.4883 478.005 17.9876C478.005 18.1706 477.925 18.3792 477.874 18.539L473.746 30.0295C473.535 30.6297 473.118 30.9448 472.647 30.9448H472.569C472.046 30.9448 471.653 30.6297 471.469 30.0295L468.099 20.2876L464.701 30.0295C464.518 30.6297 464.125 30.9448 463.603 30.9448H463.548C463.053 30.9448 462.637 30.6297 462.427 30.0295ZM492.33 18.0447C492.33 17.4914 492.774 17.019 493.323 17.019C493.902 17.019 494.345 17.4658 494.345 18.0447V20.371C495.339 18.1117 497.543 17.0454 499.004 17.0454C499.609 17.0454 500.002 17.4914 500.002 18.0691C500.002 18.6217 499.637 19.0139 499.109 19.0928C496.49 19.408 494.345 21.3797 494.345 25.2954V29.9023C494.345 30.4542 493.927 30.926 493.352 30.926C492.775 30.926 492.33 30.4774 492.33 29.9023L492.33 18.0447ZM506.47 31.0538C502.826 31.0538 499.85 28.2175 499.85 24.058V24.0042C499.85 20.1304 502.545 17.0096 506.213 17.0096C510.136 17.0096 512.369 20.2576 512.369 23.8219C512.369 24.3694 511.929 24.761 511.445 24.761H501.854C502.134 27.6712 504.159 29.309 506.522 29.309C508.165 29.309 509.367 28.6586 510.343 27.7483C510.497 27.6198 510.676 27.5158 510.909 27.5158C511.394 27.5158 511.781 27.9062 511.781 28.3761C511.781 28.6091 511.678 28.8441 511.47 29.0239C510.215 30.245 508.725 31.0538 506.47 31.0538ZM510.394 23.278C510.188 20.8314 508.802 18.7013 506.16 18.7013C503.851 18.7013 502.107 20.6504 501.853 23.278H510.394ZM478.04 26.8436V26.7909C478.04 23.9365 480.39 22.4153 483.808 22.4153C485.532 22.4153 486.758 22.6509 487.961 22.9936V22.5199C487.961 20.0859 486.469 18.8266 483.94 18.8266C482.582 18.8266 481.791 19.0001 480.798 19.4443C480.669 19.497 480.537 19.5239 480.436 19.5239C479.965 19.5239 479.546 19.1298 479.546 18.6593C479.546 18.2414 479.728 17.9826 480.095 17.8191C481.424 17.2402 482.426 17.0479 484.148 17.0479C486.052 17.0479 487.514 17.5441 488.505 18.5402C489.42 19.4568 489.89 20.7663 489.89 22.4961V29.9693C489.89 30.5438 489.472 30.9642 488.921 30.9642C488.349 30.9642 487.961 30.5445 487.961 30.0213V28.7294C487.02 29.963 485.452 31.0613 483.082 31.0613C480.575 31.0595 478.04 29.6203 478.04 26.8436ZM487.986 25.7954V24.4853C486.992 24.1978 485.66 23.9089 484.016 23.9089C481.488 23.9089 480.077 25.0104 480.077 26.7114V26.7634C480.077 28.4656 481.641 29.4612 483.47 29.4612C485.949 29.4612 487.986 27.9413 487.986 25.7954ZM425.862 17.8955C425.42 16.9232 424.327 16.4827 423.307 16.9376C422.286 17.3931 421.91 18.5296 422.371 19.5026L426.654 28.8459C427.328 30.3101 428.038 31.0776 429.37 31.0776C430.794 31.0776 431.414 30.2418 432.087 28.8459C432.087 28.8459 435.823 20.6823 435.86 20.5971C435.898 20.5107 436.018 20.2469 436.398 20.2494C436.72 20.2513 436.99 20.5088 436.99 20.8546V28.8378C436.99 30.0683 437.67 31.0776 438.979 31.0776C440.286 31.0776 440.993 30.0683 440.993 28.8378V22.305C440.993 21.0451 441.892 20.2275 443.118 20.2275C444.344 20.2275 445.16 21.0745 445.16 22.305V28.8378C445.16 30.0683 445.843 31.0776 447.149 31.0776C448.456 31.0776 449.167 30.0683 449.167 28.8378V22.305C449.167 21.0451 450.062 20.2275 451.289 20.2275C452.513 20.2275 453.332 21.0745 453.332 22.305V28.8378C453.332 30.0683 454.014 31.0776 455.321 31.0776C456.628 31.0776 457.337 30.0683 457.337 28.8378V21.4028C457.337 18.6706 455.148 16.7565 452.513 16.7565C449.882 16.7565 448.234 18.5835 448.234 18.5835C447.358 17.4438 446.151 16.759 444.107 16.759C441.951 16.759 440.064 18.5835 440.064 18.5835C439.187 17.4438 437.695 16.759 436.46 16.759C434.549 16.759 433.031 17.6023 432.105 19.7269L429.37 26.197L425.862 17.8955ZM512.532 18.705V18.6937C512.532 17.7796 513.272 17.0096 514.2 17.0096C515.143 17.0096 515.872 17.7715 515.872 18.6868V18.6937C515.872 19.611 515.134 20.381 514.2 20.381C513.258 20.381 512.532 19.6216 512.532 18.705ZM515.551 18.6937V18.6894C515.551 17.9375 514.972 17.321 514.2 17.321C513.436 17.321 512.848 17.9482 512.848 18.6937V18.7025C512.848 19.4525 513.429 20.069 514.2 20.069C514.963 20.069 515.551 19.4431 515.551 18.6937Z" fill="#A1A9B2"/>
<path d="M513.562 18.031C513.562 17.9314 513.641 17.8518 513.742 17.8518H514.299C514.508 17.8518 514.67 17.9113 514.771 18.0178C514.862 18.1074 514.912 18.2371 514.912 18.3875V18.3925C514.912 18.6481 514.784 18.8041 514.59 18.8862L514.836 19.1869C514.87 19.232 514.893 19.269 514.893 19.3241C514.893 19.4231 514.809 19.4883 514.724 19.4883C514.645 19.4883 514.591 19.4476 514.55 19.3962L514.203 18.9564H513.919V19.3097C513.919 19.4094 513.842 19.4877 513.742 19.4877C513.642 19.4877 513.563 19.4087 513.563 19.3097V18.031H513.562ZM514.279 18.64C514.452 18.64 514.548 18.5491 514.548 18.4107V18.405C514.548 18.2541 514.445 18.1726 514.272 18.1726H513.917V18.6394H514.279V18.64Z" fill="#A1A9B2"/>
<path d="M553.14 23.9789C553.14 21.6221 555.019 19.7201 557.364 19.7201C558.749 19.7201 560.011 20.3128 560.957 21.5119L563.124 19.472C561.725 17.7216 559.558 16.7568 557.364 16.7568C553.647 16.7568 550.15 19.6925 550.15 24.0479C550.15 28.2102 553.647 31.2286 557.199 31.2286C559.558 31.2286 561.725 30.3052 563.22 28.3756L561.025 26.3633C560.065 27.6314 558.735 28.2516 557.364 28.2516C555.019 28.2516 553.14 26.3358 553.14 23.9789ZM573.519 25.2056L579.087 17.129H575.672L572.065 22.5731L568.458 17.129H564.989L570.57 25.2332V30.8841H573.519V25.2056ZM581.953 30.8703H584.915V17.1152H581.953V30.8703ZM590.112 30.8703H600.069V28.0586H593.006V19.9406H600.069V17.129H590.112V30.8703ZM596.997 25.8947C598.066 25.8947 598.93 25.0126 598.93 23.9514C598.93 22.8901 598.066 22.0218 596.997 22.0218C595.941 22.0218 595.077 22.8901 595.077 23.9514C595.077 25.0126 595.941 25.8947 596.997 25.8947ZM613.988 30.8703H616.608V17.1152H613.714V25.8672L607.214 17.1152H604.389V30.8703H607.282V21.8426L613.988 30.8703ZM632.42 19.9406V17.129H620.447V19.9406H624.959V30.8703H627.921V19.9406H632.42Z" fill="#A1A9B2"/>
<path fill-rule="evenodd" clip-rule="evenodd" d="M670.507 31.0934C670.794 31.0934 671.009 31.0222 671.295 31.0222C671.582 31.0222 671.869 31.0934 672.226 31.0934V17.1951H670.507V31.0934ZM687.058 17.1951H686.056V27.6543H685.84L676.526 17.1951H675.738V31.0927C675.881 31.0927 676.167 31.0215 676.383 31.0215C676.454 31.0215 676.669 31.0927 676.812 31.0927V20.1327H677.099L685.481 29.8041C685.982 30.3049 686.269 30.8071 686.485 31.0934H687.057L687.058 17.1951ZM696.731 26.3649C696.445 27.2967 695.942 28.0838 695.583 28.9443H695.369L692.861 22.7114L691.714 19.1291C691.427 18.4844 691.213 17.7685 690.926 17.1951H689.063C689.851 18.8427 692.717 26.3649 695.01 31.0927C695.083 31.0927 695.296 31.0215 695.369 31.0215C695.583 31.0215 695.727 31.0927 695.799 31.0927C696.515 28.9443 700.884 18.4124 701.459 17.1951H700.098L699.955 17.5534L698.736 20.8486L696.731 26.3649ZM705.613 18.198H709.053C709.626 18.198 710.271 18.3412 710.844 18.4844C710.844 18.198 710.701 18.0548 710.701 17.8397C710.701 17.6246 710.844 17.4095 710.844 17.1951H703.823V31.0927H710.916C710.916 30.9495 710.843 30.7351 710.843 30.4474C710.843 30.2329 710.916 30.0898 710.916 29.8034C710.343 29.9466 709.698 30.0178 709.125 30.0178C707.977 30.0905 706.832 30.0905 705.613 30.0905V24.0726H708.623C709.196 24.0726 709.698 24.1446 710.414 24.2158C710.414 24.0726 710.343 24.0007 710.343 23.7863C710.343 23.5719 710.414 23.428 710.414 23.0697C709.698 23.2848 709.196 23.428 708.623 23.428H705.613V18.198ZM713.567 28.2996C713.495 29.0155 713.424 29.589 713.208 30.2343C713.924 30.9502 715.502 31.3805 716.432 31.3805C719.083 31.3805 721.233 29.5897 721.233 26.7959C721.233 22.4264 714.929 24.0021 714.929 20.2054C714.929 18.7009 716.146 17.8411 717.58 17.8411C718.583 17.8411 719.515 18.4858 719.944 19.4887H720.015C720.302 18.8441 720.445 18.4858 720.661 17.8411C719.945 17.2677 718.797 16.9101 717.867 16.9101C715.574 16.9101 713.495 18.1994 713.495 20.85C713.495 25.5066 719.586 23.7877 719.586 27.5125C719.586 29.1601 718.511 30.4495 716.935 30.4495C715.43 30.4495 714.499 29.6623 713.639 28.301H713.567V28.2996ZM734.487 28.9443C734.201 29.3019 732.625 30.5905 730.404 30.5905C727.323 30.5905 725.173 28.1558 725.173 24.1439C725.173 20.7767 726.894 17.6253 730.547 17.6253C732.625 17.6253 733.986 19.0578 734.2 19.4161L734.416 19.3442C734.492 18.8259 734.637 18.32 734.846 17.8397C733.484 17.2663 732.052 16.9087 730.618 16.9087C726.462 16.9087 723.238 19.4874 723.238 24.1439C723.238 28.5853 725.675 31.3791 730.188 31.3791C731.549 31.3791 733.198 31.0927 734.416 30.2329L734.487 28.9443ZM743.229 31.3798C747.527 31.3798 750.68 28.4428 750.68 24.0014C750.68 18.8434 746.882 16.9094 743.229 16.9094C739.216 16.9094 735.993 19.7751 735.993 24.1446C735.993 28.5148 738.859 31.3798 743.229 31.3798ZM748.817 24.1439C748.96 26.3649 747.384 30.7358 743.229 30.7358C740.363 30.7358 737.927 28.586 737.927 24.4309C737.927 20.2759 740.005 17.6253 743.444 17.6253C745.092 17.6253 746.595 18.3412 747.527 19.4881C748.53 20.9206 748.817 22.2818 748.817 24.1439Z" fill="#A1A9B2"/>
<path d="M843.285 29.1924L848.953 23.6515H843.364V21.0542H852.904V23.6987L847.237 29.2239H853.014V31.837H843.27V29.1924H843.285Z" fill="#A1A9B3"/>
<path d="M842.199 17.4966H839.255V20.1726H842.199V17.4966Z" fill="#A1A9B3"/>
<path d="M842.152 21.0698H839.208V31.8526H842.152V21.0698Z" fill="#A1A9B3"/>
<path d="M803.503 26.422C803.519 23.3367 806.022 20.8496 809.108 20.8653C812.193 20.881 814.681 23.3839 814.665 26.4692C814.649 29.5388 812.162 32.0259 809.076 32.0259C806.006 32.0259 803.503 29.5388 803.487 26.4692C803.503 26.4535 803.503 26.4377 803.503 26.422ZM811.815 26.422C811.815 24.8951 810.603 23.62 809.108 23.62C807.58 23.62 806.415 24.8951 806.415 26.422C806.415 27.9489 807.58 29.2239 809.108 29.2239C810.603 29.2239 811.815 27.9489 811.815 26.422Z" fill="#A1A9B3"/>
<path d="M827.999 21.0381H830.927V22.2502C831.62 21.3687 832.675 20.8335 833.903 20.8335C836.453 20.8335 837.98 22.4706 837.98 25.2568V31.8367H834.989V25.6503C834.989 24.2021 834.312 23.3678 833.005 23.3678C831.887 23.3678 830.959 24.1392 830.959 25.9494V31.8367H828.015V21.0381H827.999Z" fill="#A1A9B3"/>
<path d="M853.188 26.4218C853.188 22.6124 855.99 20.8179 858.43 20.8179C859.831 20.8179 860.933 21.3373 861.641 22.0929V21.0382H864.585V31.8211H861.641V30.609C860.933 31.4433 859.784 32.0257 858.383 32.0257C856.1 32.0257 853.188 30.2154 853.188 26.4218ZM861.72 26.406C861.72 24.8162 860.555 23.5254 858.965 23.5254C857.328 23.5254 856.084 24.7532 856.084 26.406C856.084 28.0589 857.328 29.3182 858.965 29.3182C860.571 29.3182 861.736 27.9959 861.72 26.406Z" fill="#A1A9B3"/>
<path d="M865.782 21.0381H868.71V22.2502C869.403 21.3687 870.457 20.8335 871.685 20.8335C874.236 20.8335 875.763 22.4706 875.763 25.2568V31.8367H872.772V25.6503C872.772 24.2021 872.11 23.3678 870.788 23.3678C869.67 23.3678 868.741 24.1392 868.741 25.9494V31.8367H865.797L865.782 21.0381Z" fill="#A1A9B3"/>
<path d="M843.285 31.8051V29.1763L848.953 23.6354H843.364V21.0381H852.904V23.6826L847.237 29.2078" fill="#A1A9B3"/>
<path d="M800.354 26.3275L800.323 26.422C799.504 28.1378 798.009 29.1295 796.214 29.1295C793.601 29.1295 791.57 27.0674 791.57 24.4386C791.57 21.7311 793.601 19.7162 796.277 19.7162C798.024 19.7162 799.331 20.5347 800.213 22.1404L800.26 22.2348L802.889 20.5505L802.842 20.4718C801.472 18.1421 799.032 16.7568 796.277 16.7568C791.9 16.7568 788.579 20.0625 788.579 24.4543C788.579 28.9091 791.806 32.1361 796.261 32.1361C799.126 32.1361 801.661 30.5462 803.046 27.8702L803.094 27.7915L800.354 26.3275Z" fill="#A1A9B3"/>
<path d="M815.42 26.4218C815.42 22.6124 818.223 20.8179 820.663 20.8179C822.064 20.8179 823.166 21.4003 823.874 22.2031V21.0382H826.818V31.5062C826.818 34.5443 824.898 36.9999 821.261 36.9999C818.522 36.9999 816.522 35.5832 815.657 33.8989L818.254 32.4349C818.821 33.5526 819.797 34.2609 821.245 34.2609C822.835 34.2609 823.843 33.0174 823.843 31.6164V30.609C823.134 31.4432 821.985 32.0257 820.584 32.0257C818.317 32.0257 815.42 30.2154 815.42 26.4218ZM823.953 26.406C823.953 24.8162 822.788 23.5254 821.198 23.5254C819.561 23.5254 818.317 24.7532 818.317 26.406C818.317 28.0589 819.561 29.3182 821.198 29.3182C822.788 29.3182 823.953 27.9959 823.953 26.406Z" fill="#A1A9B3"/>
<path d="M883.036 23.6987V21.0541H881.005V17.4966H878.061V21.0541H876.219V23.6987H878.045V27.1302C878.045 30.6406 879.163 31.8054 882.595 31.8054H883.02V29.0507C881.21 29.0507 880.989 28.7988 880.989 27.1145V23.6987H883.036Z" fill="#A1A9B3"/>
<path d="M929.494 12.9482H921.133V14.8996H924.175V21.3274H926.433V14.8996H929.475V12.9482H929.494Z" fill="#A1A9B2"/>
<path d="M952.228 27.1442C952.228 26.4173 951.635 25.8242 950.888 25.8242H950.869H947.942C947.693 25.8242 947.559 25.9581 947.426 26.1494L946.545 27.4121H949.377C949.702 27.4312 949.97 27.699 949.97 28.0434V31.9652H952.209V27.1442H952.228Z" fill="#A1A9B2"/>
<path d="M944.321 23.5845H946.559V31.9636H944.321V23.5845Z" fill="#A1A9B2"/>
<path d="M963.753 25.8301H957.401V31.9709H959.659V27.4179H962.222C962.567 27.4179 962.854 27.7049 962.854 28.0492V31.9709H965.092V27.1501C965.092 26.4231 964.499 25.8301 963.753 25.8301Z" fill="#A1A9B2"/>
<path d="M931.876 23.5825H921.124V31.9617H923.362V25.5338H925.754C925.983 25.5338 926.155 25.7251 926.155 25.9547V31.9617H928.394V25.9547C928.394 25.7251 928.585 25.5338 928.815 25.5338H930.575C930.919 25.5338 931.187 25.8017 931.187 26.146V31.9617H933.426V25.113C933.426 24.2712 932.737 23.5825 931.876 23.5825Z" fill="#A1A9B2"/>
<path d="M953.703 27.8145V31.9658H955.941V28.2545V25.8823C955.941 25.8823 954.908 26.5328 954.181 26.9919C953.875 27.1832 953.703 27.4893 953.703 27.8145Z" fill="#A1A9B2"/>
<path d="M953.703 23.5737H955.941V25.1233L953.703 26.5963V23.5737Z" fill="#A1A9B2"/>
<path d="M977.05 25.8301C976.495 25.8301 976.132 26.2701 976.132 26.7292V31.9901H978.389V28.0683C978.389 27.724 978.638 27.4179 979.002 27.4179H980.666C980.915 27.3988 981.106 27.2649 981.24 27.0736L982.12 25.8301H977.05Z" fill="#A1A9B2"/>
<path d="M972.422 23.5825V25.8208V30.4312H969.169C968.939 30.4312 968.786 30.2399 968.786 30.0678V28.0399C968.786 27.6956 969.073 27.4086 969.418 27.4086H971.063C971.312 27.4086 971.561 27.2556 971.656 27.1025L972.422 25.8208H967.868C967.141 25.8208 966.548 26.4138 966.548 27.1408V27.1599V30.8712C966.548 31.5791 967.122 31.9808 967.638 31.9808H974.679V23.6016H972.422V23.5825Z" fill="#A1A9B2"/>
<path d="M988.68 25.8301H983.514C983.265 25.8301 983.017 25.9449 982.883 26.1553L982.022 27.437H987.226C987.551 27.4562 987.819 27.724 987.819 28.0683V30.517H983.916V29.8092C983.916 29.6753 984.031 29.5605 984.165 29.5605H986.901V28.6614C986.901 28.451 986.767 28.317 986.575 28.317H982.787C982.328 28.317 981.945 28.6805 981.945 29.1397V31.3779C981.945 31.397 981.945 31.397 981.945 31.4162C982.003 31.7414 982.29 31.9901 982.634 31.9901H990V27.1692C990 26.4231 989.426 25.8301 988.68 25.8301Z" fill="#A1A9B2"/>
<path d="M941.605 25.8301H936.44C936.191 25.8301 935.942 25.9449 935.808 26.1553L934.928 27.437H940.132C940.457 27.4562 940.725 27.724 940.725 28.0683V30.517H936.822V29.8092C936.822 29.6753 936.937 29.5605 937.071 29.5605H939.807V28.6614C939.807 28.451 939.673 28.317 939.482 28.317H935.693C935.234 28.317 934.852 28.6805 934.852 29.1397V31.3779C934.852 31.397 934.852 31.397 934.852 31.4162C934.909 31.7414 935.196 31.9901 935.54 31.9901H942.925V27.1692C942.925 26.4231 942.332 25.8301 941.605 25.8301Z" fill="#A1A9B2"/>
<path d="M955.932 16.5969C955.932 15.8699 955.339 15.2769 954.593 15.2769H954.573H951.57C951.321 15.2769 951.187 15.4108 951.053 15.6021L950.173 16.8647H953.081C953.406 16.8838 953.674 17.1517 953.674 17.496V21.4178H955.913V16.5969H955.932ZM947.954 13.0386H950.192V21.4178H947.954V13.0386Z" fill="#A1A9B2"/>
<path d="M941.737 19.2103C941.737 19.5547 942.024 19.8417 942.368 19.8417H946.558V21.4295H940.818C940.091 21.4295 939.498 20.8364 939.498 20.1095V20.0903V15.5564V16.4938C939.498 15.7669 940.091 15.1738 940.818 15.1738H946.558L946.214 16.0538C946.137 16.2451 946.099 16.3982 945.927 16.513C945.812 16.5895 945.697 16.666 945.544 16.666H942.368C942.024 16.666 941.737 16.953 941.737 17.2973V19.2103Z" fill="#A1A9B2"/>
<path d="M931.696 21.3533H936.479C936.727 21.3533 936.976 21.2385 937.11 21.0281L937.99 19.7463H933.169C932.844 19.7272 932.576 19.4594 932.576 19.115V16.6855H936.096V17.3933C936.096 17.5272 935.981 17.642 935.847 17.642H933.494V18.5411C933.494 18.7516 933.628 18.8855 933.819 18.8855H937.225C937.684 18.8855 938.067 18.522 938.067 18.0629V15.8246C938.067 15.8055 938.067 15.8055 938.067 15.7863C938.009 15.4611 937.722 15.2124 937.378 15.2124H931.198H930.375V15.9968V20.0333C930.375 20.7603 930.969 21.3533 931.696 21.3533Z" fill="#A1A9B2"/>
</svg>
