<svg width="67" height="17" viewBox="0 0 67 17" fill="none" xmlns="http://www.w3.org/2000/svg">
<path d="M38.9902 4.63685V6.56888L45.598 4.05725V2.51163L38.9902 0V1.85474L42.8482 3.28444L38.9902 4.63685Z" fill="#A1A9B2"/>
<path d="M3.57068 9.04199C1.72378 9.04199 0.369381 9.81479 0.246254 11.4377H2.29837V11.399C2.33941 10.8581 2.87296 10.4717 3.44756 10.5103C4.22736 10.5103 4.59674 10.9354 4.59674 11.6695V12.0173H3.65277C1.64169 12.0173 0 12.5969 0 14.413V14.4902C0 15.9586 1.14919 16.6154 2.54463 16.6154C3.40651 16.6541 4.18632 16.2677 4.67883 15.6494V16.4995H6.77199V11.6309C6.73095 9.77615 5.37655 9.04199 3.57068 9.04199V9.04199ZM3.11922 15.1858C2.38046 15.1858 2.05212 14.838 2.05212 14.3357V14.2584C2.05212 13.6015 2.58567 13.331 3.65277 13.331H4.51466V14.0266C4.5557 14.7994 3.85798 15.1858 3.11922 15.1858V15.1858Z" fill="#A1A9B2"/>
<path d="M11.697 15.1085C10.671 15.1085 10.1374 14.4516 10.1374 12.9833V12.7514C10.1374 11.3217 10.753 10.6262 11.697 10.6262C12.4358 10.6262 12.8462 11.0899 12.9693 11.7854H15.0215C14.8573 9.89207 13.3798 9.04199 11.656 9.04199C9.60386 9.04199 7.96216 10.3558 7.96216 12.8287V12.906C7.96216 15.3789 9.52177 16.6154 11.656 16.6154C13.7492 16.6154 14.9394 15.4176 15.1036 13.7947H13.1335C12.9693 14.6061 12.4358 15.1085 11.697 15.1085V15.1085Z" fill="#A1A9B2"/>
<path d="M19.7002 15.1085C18.6742 15.1085 18.1406 14.4516 18.1406 12.9833V12.7514C18.1406 11.3217 18.7562 10.6262 19.7002 10.6262C20.439 10.6262 20.8494 11.0899 20.9726 11.7854H23.0247C22.8605 9.89207 21.383 9.04199 19.6592 9.04199C17.607 9.04199 15.9653 10.3558 15.9653 12.8287V12.906C15.9653 15.3789 17.525 16.6154 19.6592 16.6154C21.7524 16.6154 22.9426 15.4176 23.0657 13.7947H21.1367C21.0136 14.6061 20.439 15.1085 19.7002 15.1085V15.1085Z" fill="#A1A9B2"/>
<path d="M27.7857 15.1471C26.8417 15.1471 26.2671 14.6448 26.185 13.331H31.1922V12.481C31.1922 10.0853 29.5916 9.04199 27.6626 9.04199C25.5694 9.04199 23.9688 10.3944 23.9688 12.8287V12.9833C23.9688 15.4176 25.4873 16.6541 27.7036 16.6541C29.7147 16.6541 30.946 15.6108 31.1512 14.2198H29.1401C29.058 14.7994 28.4424 15.2244 27.7857 15.1471ZM27.6626 10.433C28.5245 10.433 29.058 10.8967 29.0991 11.9786H26.2261C26.3903 10.8194 27.0059 10.4717 27.6626 10.433Z" fill="#A1A9B2"/>
<path d="M37.0202 9.04179C36.0352 9.00315 35.1323 9.46683 34.6808 10.2783V9.19635H32.5466V16.4607H34.6808V11.8239C34.7219 11.167 35.3375 10.626 36.0352 10.6647C36.815 10.6647 37.1844 11.0511 37.1844 11.9012V16.4607H39.3597V11.592C39.3597 9.81459 38.4157 9.04179 37.0202 9.04179V9.04179Z" fill="#A1A9B2"/>
<path d="M43.3816 14.1426V10.7036H44.8591V9.19663H43.3816V6.99414L41.2474 7.84423V9.19663H40.3035V10.7036H41.2064V14.3744C41.2064 15.8428 41.9862 16.5769 43.6689 16.5769C44.0793 16.5769 44.4897 16.5383 44.9002 16.4224V14.8381C44.6539 14.9154 44.4077 14.954 44.1614 14.954C43.6689 14.954 43.3816 14.6836 43.3816 14.1426Z" fill="#A1A9B2"/>
<path d="M50.8104 13.7172V13.9104C50.7693 14.5673 50.1537 15.1083 49.456 15.0696C48.6762 15.0696 48.3479 14.6832 48.3479 13.8331V9.19629H46.1726V14.1036C46.1726 15.8038 47.1987 16.6152 48.5941 16.6152C49.5381 16.6539 50.4 16.1902 50.8514 15.3787V16.4607H53.0267V9.19629H50.8514L50.8104 13.7172Z" fill="#A1A9B2"/>
<path d="M56.7206 10.5103V9.15791H54.5864V16.4222H56.7206V12.6742C56.7206 11.4763 57.5825 11.0513 59.06 11.0513V9.04199C57.9929 9.04199 57.0489 9.62159 56.7206 10.5103Z" fill="#A1A9B2"/>
<path d="M66.9401 12.4423C66.9401 10.0466 65.3394 9.04199 63.4104 9.04199C61.3172 9.04199 59.7166 10.3944 59.7166 12.8287V12.9833C59.7166 15.4176 61.2351 16.6541 63.4514 16.6541C65.4625 16.6541 66.6528 15.6108 66.899 14.2198H64.8879C64.7238 14.838 64.1081 15.2244 63.4514 15.1858C62.5075 15.1858 61.9329 14.6834 61.8508 13.3697H66.858V12.4423H66.9401ZM61.9329 11.9786C62.097 10.7808 62.7127 10.433 63.4104 10.433C64.2723 10.433 64.8059 10.8967 64.8469 11.9786H61.9329Z" fill="#A1A9B2"/>
</svg>
