<svg width="30" height="17" viewBox="0 0 30 17" fill="none" xmlns="http://www.w3.org/2000/svg">
<path d="M8.7823 6.01654C8.77257 6.29169 8.81146 6.56685 8.88925 6.83283C8.97675 7.06212 9.0837 7.28225 9.20038 7.4932C9.23927 7.5574 9.26844 7.63077 9.26844 7.70415C9.25871 7.81421 9.19066 7.92427 9.0837 7.9793L8.47117 8.36452C8.39338 8.41038 8.30588 8.44706 8.21837 8.44706C8.11142 8.43789 8.00447 8.39203 7.92669 8.31866C7.80029 8.19025 7.67389 8.04351 7.57666 7.88758C7.47944 7.73166 7.38221 7.5574 7.27526 7.34645C6.51687 8.19025 5.56404 8.61216 4.41674 8.61216C3.60002 8.61216 2.94859 8.39203 2.47218 7.95179C1.99576 7.51154 1.75269 6.92455 1.75269 6.1908C1.75269 5.4112 2.04437 4.77834 2.63746 4.30141C3.23056 3.82448 4.01811 3.58601 5.01956 3.58601C5.35986 3.58601 5.70988 3.61353 6.05018 3.65939C6.40992 3.70524 6.77939 3.77862 7.16831 3.86116V3.19162C7.16831 2.49457 7.01274 2.00846 6.71133 1.72414C6.40992 1.43981 5.87517 1.30223 5.12651 1.30223C4.77649 1.30223 4.41674 1.33892 4.07644 1.42147C3.7167 1.50401 3.36668 1.6049 3.02638 1.73331C2.91943 1.77917 2.80275 1.81585 2.68608 1.85254C2.63746 1.87088 2.57913 1.88006 2.53051 1.88006C2.39439 1.88006 2.32633 1.78834 2.32633 1.59573V1.14631C2.31661 1.03625 2.34578 0.926189 2.39439 0.8253C2.47218 0.742754 2.55968 0.678551 2.66663 0.632692C3.05555 0.449256 3.4639 0.311679 3.89171 0.219961C4.38757 0.100728 4.90288 0.0456968 5.40847 0.0456968C6.56549 0.0456968 7.41138 0.293335 7.95585 0.788613C8.50033 1.28389 8.76285 2.03598 8.76285 3.04488V6.01654H8.7823ZM4.83482 7.41065C5.17512 7.41065 5.51542 7.35562 5.83628 7.24556C6.19602 7.12633 6.50715 6.92455 6.75995 6.65856C6.91551 6.49347 7.03219 6.29169 7.09052 6.07157C7.15858 5.81476 7.18775 5.5396 7.18775 5.27362V4.88841C6.89607 4.8242 6.59466 4.76917 6.29325 4.73249C5.99184 4.6958 5.68071 4.67746 5.3793 4.67746C4.72787 4.67746 4.25145 4.79669 3.9306 5.04433C3.60975 5.29197 3.45418 5.64049 3.45418 6.09908C3.45418 6.53016 3.57086 6.85117 3.81393 7.07129C4.057 7.29142 4.38757 7.41065 4.83482 7.41065V7.41065ZM12.6423 8.40121C12.5159 8.41038 12.3797 8.38286 12.2728 8.30949C12.1756 8.2086 12.0978 8.08936 12.0686 7.95179L9.78375 0.861987C9.73513 0.742754 9.70597 0.62352 9.69624 0.495115C9.68652 0.385053 9.7643 0.284164 9.88098 0.26582H10.8922C11.0769 0.26582 11.2033 0.293335 11.2713 0.357538C11.3394 0.421741 11.4075 0.540974 11.4658 0.715238L13.0895 6.78697L14.6063 0.715238C14.6549 0.531802 14.7132 0.412569 14.791 0.357538C14.9077 0.293335 15.0438 0.256648 15.1799 0.26582H15.9577C16.1425 0.26582 16.2689 0.293335 16.3467 0.357538C16.4439 0.458428 16.512 0.577661 16.5314 0.715238L18.0676 6.86034L19.7497 0.715238C19.7788 0.577661 19.8469 0.458428 19.9441 0.357538C20.0608 0.293335 20.1872 0.256648 20.3233 0.26582H21.2275C21.3442 0.247476 21.4512 0.330023 21.4706 0.440084V0.495115C21.4706 0.540974 21.4609 0.596005 21.4512 0.641864C21.4317 0.72441 21.4123 0.797784 21.3831 0.871159L19.0399 7.96096C18.9816 8.1444 18.9135 8.26363 18.8357 8.31866C18.7288 8.38286 18.5926 8.41955 18.4662 8.41038H17.6301C17.4453 8.41038 17.3189 8.38286 17.2412 8.31866C17.1439 8.21777 17.0759 8.08936 17.0564 7.95179L15.5494 2.03598L14.0521 7.94262C14.0326 8.08019 13.9646 8.2086 13.8673 8.30949C13.7507 8.38286 13.6145 8.41038 13.4784 8.40121H12.6423V8.40121ZM25.1361 8.64884C24.6305 8.64884 24.1249 8.59381 23.6388 8.48375C23.1526 8.37369 22.7735 8.25446 22.5207 8.11688C22.3943 8.06185 22.2873 7.97013 22.2193 7.86007C22.1804 7.77752 22.1609 7.69498 22.1609 7.60326V7.1355C22.1609 6.94289 22.2387 6.85117 22.3845 6.85117C22.4429 6.85117 22.5012 6.86034 22.5596 6.87869C22.6179 6.89703 22.7054 6.93372 22.8026 6.9704C23.1429 7.11715 23.5027 7.21804 23.8721 7.29142C24.2513 7.36479 24.6402 7.40148 25.0292 7.40148C25.6417 7.40148 26.1181 7.30059 26.4487 7.09881C26.7695 6.91537 26.964 6.58519 26.9543 6.22749C26.964 5.98902 26.8668 5.75973 26.6918 5.58546C26.5167 5.4112 26.1862 5.25528 25.7098 5.10853L24.2999 4.6958C23.5902 4.48485 23.0651 4.17301 22.7443 3.76028C22.4332 3.37506 22.2581 2.91647 22.2581 2.43036C22.2484 2.07266 22.3359 1.72414 22.5207 1.41229C22.6957 1.1188 22.929 0.861987 23.2207 0.660207C23.5221 0.440084 23.8624 0.284164 24.2319 0.183274C24.6305 0.0732122 25.0389 0.0181814 25.457 0.0273532C25.6709 0.0273532 25.8945 0.036525 26.1084 0.0640404C26.332 0.0915558 26.5362 0.128243 26.7404 0.16493C26.9446 0.201617 27.1196 0.256648 27.2946 0.311679C27.4404 0.357538 27.5765 0.412569 27.7029 0.476771C27.8196 0.531802 27.9168 0.605177 27.9946 0.706066C28.0627 0.797784 28.0919 0.898674 28.0821 1.00874V1.43981C28.0821 1.63242 28.0043 1.73331 27.8585 1.73331C27.7321 1.71496 27.6057 1.67828 27.489 1.62325C26.9057 1.37561 26.264 1.25637 25.6222 1.26555C25.068 1.26555 24.6305 1.34809 24.3291 1.52236C24.0277 1.69662 23.8721 1.9626 23.8721 2.33865C23.8624 2.58629 23.9694 2.82475 24.1638 2.98984C24.3583 3.16411 24.718 3.33837 25.2333 3.49429L26.614 3.90702C27.314 4.11798 27.8196 4.41147 28.121 4.78752C28.4224 5.15439 28.578 5.61298 28.5683 6.07157C28.578 6.43844 28.4905 6.80531 28.3155 7.1355C28.1405 7.44734 27.8974 7.72249 27.6057 7.94262C27.2849 8.18108 26.9154 8.35535 26.5265 8.45624C26.0792 8.58464 25.6125 8.64884 25.1361 8.64884V8.64884Z" fill="#A1A9B2"/>
<path d="M26.9738 13.1068C23.775 15.3356 19.1275 16.5187 15.1314 16.5187C9.531 16.5187 4.48482 14.5651 0.673456 11.3183C0.372046 11.0615 0.644287 10.713 1.00403 10.9148C5.12653 13.171 10.2116 14.5376 15.4717 14.5376C19.2636 14.5193 23.0166 13.7947 26.5071 12.4098C27.0419 12.1805 27.4989 12.7399 26.9738 13.1068Z" fill="#A1A9B2"/>
<path d="M28.3059 11.6759C27.8976 11.1806 25.603 11.4374 24.5626 11.5567C24.2515 11.5933 24.2029 11.3365 24.4849 11.1439C26.3128 9.93327 29.3171 10.2818 29.6671 10.6853C30.0171 11.0889 29.5699 13.9321 27.8587 15.2895C27.5962 15.5005 27.3434 15.3904 27.46 15.1153C27.849 14.2073 28.7143 12.162 28.3059 11.6759V11.6759Z" fill="#A1A9B2"/>
</svg>
