<svg width="54" height="12" viewBox="0 0 54 12" fill="none" xmlns="http://www.w3.org/2000/svg">
<path d="M31.1248 7.09211L34.3103 4.15971H31.1691V2.78516H36.5313V4.18471L33.3458 7.10877H36.5933V8.49165H31.116V7.09211H31.1248Z" fill="#A1A9B3"/>
<path d="M30.5145 0.902832H28.8596V2.31902H30.5145V0.902832Z" fill="#A1A9B3"/>
<path d="M30.4879 2.79395H28.8333V8.50044H30.4879V2.79395Z" fill="#A1A9B3"/>
<path d="M8.76471 5.6258C8.77356 3.993 10.1805 2.67677 11.9148 2.6851C13.6491 2.69343 15.0471 4.01799 15.0383 5.65079C15.0294 7.27526 13.6314 8.5915 11.8971 8.5915C10.1716 8.5915 8.76471 7.27526 8.75586 5.65079C8.76471 5.64246 8.76471 5.63413 8.76471 5.6258ZM13.4367 5.6258C13.4367 4.81773 12.7554 4.14296 11.9148 4.14296C11.0565 4.14296 10.4017 4.81773 10.4017 5.6258C10.4017 6.43387 11.0565 7.10865 11.9148 7.10865C12.7554 7.10865 13.4367 6.43387 13.4367 5.6258Z" fill="#A1A9B3"/>
<path d="M22.5327 2.77724H24.1785V3.41871C24.5679 2.95219 25.1607 2.66895 25.8509 2.66895C27.2844 2.66895 28.1427 3.53534 28.1427 5.00987V8.49209H26.4615V5.21813C26.4615 4.45171 26.081 4.01019 25.3465 4.01019C24.7183 4.01019 24.1962 4.41839 24.1962 5.37642V8.49209H22.5416V2.77724H22.5327Z" fill="#A1A9B3"/>
<path d="M36.6907 5.62588C36.6907 3.60986 38.2657 2.66016 39.6373 2.66016C40.4248 2.66016 41.0442 2.93507 41.4424 3.33494V2.77679H43.097V8.48331H41.4424V7.84185C41.0442 8.28337 40.3982 8.59161 39.6107 8.59161C38.3277 8.59161 36.6907 7.63358 36.6907 5.62588ZM41.4866 5.61755C41.4866 4.77615 40.8318 4.09304 39.9381 4.09304C39.0178 4.09304 38.3188 4.74283 38.3188 5.61755C38.3188 6.49227 39.0178 7.15873 39.9381 7.15873C40.8407 7.15873 41.4955 6.45895 41.4866 5.61755Z" fill="#A1A9B3"/>
<path d="M43.7695 2.77724H45.4154V3.41871C45.8047 2.95219 46.3975 2.66895 47.0877 2.66895C48.5212 2.66895 49.3795 3.53534 49.3795 5.00987V8.49209H47.6983V5.21813C47.6983 4.45171 47.3266 4.01019 46.5834 4.01019C45.9551 4.01019 45.4331 4.41839 45.4331 5.37642V8.49209H43.7784L43.7695 2.77724Z" fill="#A1A9B3"/>
<path d="M31.1248 8.47508V7.08384L34.3102 4.15143H31.169V2.77686H36.5312V4.17642L33.3457 7.10051" fill="#A1A9B3"/>
<path d="M6.99491 5.57626L6.97722 5.62625C6.51709 6.53429 5.67648 7.05912 4.66775 7.05912C3.1989 7.05912 2.05744 5.9678 2.05744 4.57658C2.05744 3.14371 3.1989 2.07739 4.70315 2.07739C5.68533 2.07739 6.41976 2.51058 6.91528 3.36031L6.94182 3.41029L8.41952 2.51892L8.39298 2.47726C7.62316 1.24433 6.25164 0.51123 4.70315 0.51123C2.24326 0.51123 0.376221 2.26067 0.376221 4.58492C0.376221 6.94249 2.19017 8.65027 4.6943 8.65027C6.30473 8.65027 7.72934 7.80888 8.50801 6.39267L8.53456 6.35101L6.99491 5.57626Z" fill="#A1A9B3"/>
<path d="M15.4629 5.62588C15.4629 3.60985 17.0379 2.66016 18.4095 2.66016C19.197 2.66016 19.8164 2.96839 20.2146 3.39326V2.77679H21.8693V8.31669C21.8693 9.92451 20.7897 11.2241 18.7457 11.2241C17.2061 11.2241 16.0823 10.4743 15.5956 9.58295L17.0556 8.8082C17.3742 9.39968 17.9228 9.77456 18.7369 9.77456C19.6306 9.77456 20.1969 9.11644 20.1969 8.37501V7.84184C19.7987 8.28337 19.1527 8.5916 18.3652 8.5916C17.091 8.5916 15.4629 7.63357 15.4629 5.62588ZM20.2588 5.61755C20.2588 4.77615 19.604 4.09303 18.7103 4.09303C17.7901 4.09303 17.091 4.74283 17.091 5.61755C17.091 6.49227 17.7901 7.15873 18.7103 7.15873C19.604 7.15873 20.2588 6.45895 20.2588 5.61755Z" fill="#A1A9B3"/>
<path d="M53.4674 4.1851V2.78555H52.3259V0.902832H50.6713V2.78555H49.636V4.1851H50.6624V6.00118C50.6624 7.85891 51.2907 8.47537 53.2196 8.47537H53.4586V7.01751C52.441 7.01751 52.3171 6.88422 52.3171 5.99284V4.1851H53.4674Z" fill="#A1A9B3"/>
</svg>
