<svg width="47" height="9" viewBox="0 0 47 9" fill="none" xmlns="http://www.w3.org/2000/svg">
<path d="M2.04413 4.33334C2.04413 3.08605 3.10014 2.07946 4.41822 2.07946C5.19673 2.07946 5.90588 2.39311 6.43773 3.0277L7.65561 1.94817C6.86939 1.02182 5.65151 0.51123 4.41822 0.51123C2.32933 0.51123 0.36377 2.06488 0.36377 4.36981C0.36377 6.57264 2.32933 8.17005 4.32572 8.17005C5.65151 8.17005 6.86939 7.68134 7.70957 6.66016L6.47627 5.59522C5.93671 6.26628 5.18903 6.59452 4.41822 6.59452C3.10014 6.59452 2.04413 5.58064 2.04413 4.33334ZM13.4983 4.98252L16.6278 0.70817H14.7085L12.6813 3.58934L10.6541 0.70817H8.70391L11.8411 4.99711V7.98769H13.4983V4.98252V4.98252ZM18.2388 7.9804H19.9037V0.700876H18.2388V7.9804V7.9804ZM22.8251 7.9804H28.4212V6.4924H24.4515V2.19617H28.4212V0.70817H22.8251V7.9804V7.9804ZM26.6946 5.34722C27.2958 5.34722 27.7814 4.8804 27.7814 4.31875C27.7814 3.75711 27.2958 3.29758 26.6946 3.29758C26.101 3.29758 25.6154 3.75711 25.6154 4.31875C25.6154 4.8804 26.101 5.34722 26.6946 5.34722ZM36.2449 7.9804H37.7171V0.700876H36.0907V5.33264L32.4371 0.700876H30.8492V7.9804H32.4756V3.20276L36.2449 7.9804ZM46.6045 2.19617V0.70817H39.8754V2.19617H42.4113V7.9804H44.0763V2.19617H46.6045Z" fill="#A1A9B2"/>
</svg>
