<svg width="32" height="12" viewBox="0 0 32 12" fill="none" xmlns="http://www.w3.org/2000/svg">
<path d="M0 0.402344V1.18693H6.12497V0.402344H0ZM6.99282 0.402344V1.18693H15.7212C15.7212 1.18693 14.8297 0.402344 13.6488 0.402344H6.99282ZM17.4335 0.402344V1.18693H22.7141L22.4005 0.402344H17.4335ZM26.5 0.402344L26.1863 1.18693H31.419V0.402344H26.5ZM0 1.9282V2.71271H6.12497V1.9282H0ZM6.99282 1.92921V2.71271H16.7341C16.7341 2.71271 16.6204 2.10883 16.4218 1.92921H6.99282ZM17.4335 1.92921V2.71271H23.2929L23.0029 1.92921H17.4335ZM25.8731 1.92921L25.583 2.71271H31.4192V1.92921H25.8731ZM1.76025 3.45398V4.23974H4.41281V3.45398H1.76025ZM8.75298 3.45398V4.23974H11.4055V3.45398H8.75298ZM13.9856 3.45398V4.23974H16.6382C16.6382 4.23974 16.8067 3.8247 16.8067 3.45398H13.9856ZM19.1937 3.45398V4.23974H23.8965L23.5831 3.45398H19.1937ZM25.2952 3.45398L24.9805 4.23974H29.7067V3.45398H25.2952ZM1.76025 4.98101V5.76568H4.41281V4.98101H1.76025ZM8.75298 4.98101V5.76568H15.5283C15.5283 5.76568 16.0949 5.36296 16.2757 4.98101H8.75298ZM19.1937 4.98101V5.76568H21.8463V5.32878L22.0147 5.76568H26.8736L27.0543 5.32878V5.76568H29.707V4.98101H24.7277L24.4634 5.64571L24.1978 4.98101H19.1937ZM1.76025 6.50679V7.29163H4.41281V6.50679H1.76025ZM8.75298 6.50679V7.29163H16.2757C16.0949 6.91077 15.5283 6.50679 15.5283 6.50679H8.75298ZM19.1937 6.50679V7.29163H21.8463V6.50679H19.1937ZM22.3281 6.50679L22.6489 7.29163H26.292L26.5969 6.50679H22.3281ZM27.0542 6.50679V7.29163H29.7069V6.50679H27.0542ZM1.76025 8.03282V8.81749H4.41281V8.03282H1.76025ZM8.75298 8.03282V8.81749H11.4055V8.03282H8.75298ZM13.9856 8.03282V8.81749H16.8066C16.8066 8.44719 16.6382 8.03282 16.6382 8.03282H13.9856ZM19.1937 8.03282V8.81749H21.8463V8.03282H19.1937ZM22.9303 8.03282L23.2413 8.81749H25.6839L25.9972 8.03282H22.9303ZM27.0542 8.03282V8.81749H29.7069V8.03282H27.0542ZM0.0479074 9.55868V10.3443H6.17297V9.55868H0.0479074ZM6.99282 9.55868V10.3443H16.4219C16.6204 10.1645 16.7342 9.55868 16.7342 9.55868H6.99282ZM17.4815 9.55868V10.3443H21.8463V9.55868H17.4815ZM23.5339 9.55868L23.8536 10.3443H25.0963L25.3963 9.55868H23.5339ZM27.0542 9.55868V10.3443H31.4669V9.55868H27.0542ZM0.0479074 11.0855V11.8702H6.17297V11.0855H0.0479074ZM6.99282 11.0855V11.869H13.6488C14.8297 11.869 15.7212 11.0855 15.7212 11.0855H6.99282ZM17.4815 11.0855V11.8702H21.8463V11.0855H17.4815ZM24.1399 11.0855L24.4473 11.8678L24.5001 11.869L24.8123 11.0855H24.1399ZM27.0542 11.0855V11.8702H31.4669V11.0855H27.0542Z" fill="#A1A9B2"/>
</svg>
