<svg width="46" height="9" viewBox="0 0 46 9" fill="none" xmlns="http://www.w3.org/2000/svg">
<path fill-rule="evenodd" clip-rule="evenodd" d="M0.012207 7.89068C0.173178 7.89068 0.294102 7.85298 0.455073 7.85298C0.616044 7.85298 0.777407 7.89068 0.978424 7.89068V0.535337H0.012207V7.89068ZM9.31475 0.535337H8.75135V6.07061H8.63003L3.39495 0.535337H2.95208V7.89031C3.03257 7.89031 3.19354 7.85261 3.31446 7.85261C3.3549 7.85261 3.47543 7.89031 3.55592 7.89031V2.09002H3.71689L8.42862 7.20834C8.71013 7.47337 8.8711 7.73913 8.99241 7.89068H9.31436L9.31475 0.535337ZM14.7516 5.38826C14.5907 5.88136 14.3084 6.29793 14.1066 6.75332H13.986L12.5766 3.45471L11.9315 1.55886C11.7705 1.21768 11.65 0.838807 11.489 0.535337H10.4415C10.8848 1.4073 12.4957 5.38826 13.7842 7.89031C13.8251 7.89031 13.9452 7.85261 13.986 7.85261C14.1066 7.85261 14.1871 7.89031 14.2275 7.89031C14.6299 6.75332 17.0861 1.17961 17.4092 0.535337H16.644L16.5635 0.72496L15.8788 2.46889L14.7516 5.38826ZM19.7441 1.06613H21.6773C21.9992 1.06613 22.362 1.14191 22.684 1.21768C22.684 1.06613 22.6035 0.990358 22.6035 0.876511C22.6035 0.762664 22.684 0.648815 22.684 0.535337H18.7378V7.89031H22.7244C22.7244 7.81454 22.6836 7.70106 22.6836 7.54877C22.6836 7.4353 22.7244 7.35952 22.7244 7.20797C22.4025 7.28375 22.0397 7.32145 21.7177 7.32145C21.0727 7.35989 20.4288 7.35989 19.7441 7.35989V4.17512H21.4358C21.7578 4.17512 22.0401 4.2132 22.4425 4.2509C22.4425 4.17512 22.4025 4.13705 22.4025 4.02357C22.4025 3.9101 22.4425 3.83395 22.4425 3.64433C22.0401 3.75818 21.7578 3.83395 21.4358 3.83395H19.7441V1.06613ZM24.2148 6.41215C24.1739 6.79102 24.1343 7.09449 24.0129 7.43604C24.4154 7.81491 25.3019 8.0426 25.8249 8.0426C27.3148 8.0426 28.5233 7.09486 28.5233 5.61633C28.5233 3.3039 24.98 4.13779 24.98 2.12846C24.98 1.33227 25.6639 0.87725 26.4699 0.87725C27.0337 0.87725 27.5575 1.21842 27.7989 1.74922H27.839C27.9999 1.40804 28.0804 1.21842 28.2017 0.87725C27.7993 0.573781 27.1542 0.384528 26.6313 0.384528C25.3423 0.384528 24.1743 1.06687 24.1743 2.46963C24.1743 4.93398 27.5975 4.02431 27.5975 5.99557C27.5975 6.86754 26.9933 7.54988 26.1075 7.54988C25.2618 7.54988 24.7381 7.1333 24.2548 6.41289H24.2148V6.41215ZM35.9731 6.75332C35.8121 6.94257 34.9264 7.62455 33.6779 7.62455C31.9465 7.62455 30.738 6.336 30.738 4.21283C30.738 2.43082 31.705 0.763034 33.7584 0.763034C34.9264 0.763034 35.6916 1.52115 35.8117 1.71077L35.933 1.6727C35.9758 1.39842 36.057 1.13069 36.1745 0.876511C35.4093 0.573042 34.604 0.383789 33.798 0.383789C31.4624 0.383789 29.6505 1.74848 29.6505 4.21283C29.6505 6.56333 31.0199 8.04187 33.5566 8.04187C34.3218 8.04187 35.2483 7.89031 35.933 7.43529L35.9731 6.75332ZM40.8862 8.04224C43.3024 8.04224 45.0746 6.48792 45.0746 4.13742C45.0746 1.40767 42.9396 0.384158 40.8862 0.384158C38.6311 0.384158 36.8192 1.90077 36.8192 4.2132C36.8192 6.526 38.43 8.04224 40.8862 8.04224ZM44.0271 4.21283C44.1076 5.38826 43.2219 7.70143 40.8862 7.70143C39.2757 7.70143 37.9063 6.5637 37.9063 4.36475C37.9063 2.16579 39.0743 0.763034 41.0071 0.763034C41.9333 0.763034 42.7786 1.14191 43.3024 1.74885C43.8661 2.50697 44.0271 3.22738 44.0271 4.21283Z" fill="#A1A9B2"/>
</svg>
