<svg width="40" height="15" viewBox="0 0 40 15" fill="none" xmlns="http://www.w3.org/2000/svg">
<path fill-rule="evenodd" clip-rule="evenodd" d="M38.7914 2.67684C39.456 2.67684 40.0001 2.16858 40.0001 1.53892C40.0001 0.915939 39.456 0.402344 38.7914 0.402344V0.570429C39.3568 0.570429 39.8201 1.00665 39.8201 1.53892C39.8201 2.07386 39.3568 2.50608 38.7914 2.50608V2.67684ZM38.7914 1.62564V1.43354H38.8439C38.953 1.43354 39.0394 1.38551 39.0394 1.27746C39.0394 1.17074 38.9615 1.11871 38.824 1.11871H38.7914V0.910603C39.0252 0.913271 39.2803 0.96263 39.2803 1.29747C39.2817 1.51091 39.1414 1.55493 39.0606 1.59362L39.2959 2.11255H39.0394L38.8382 1.62564H38.7914ZM38.7914 0.402344C38.1311 0.402344 37.5828 0.915939 37.5828 1.53892C37.5828 2.16858 38.1311 2.67684 38.7914 2.67684V2.50608C38.2261 2.50608 37.7641 2.07386 37.7641 1.53892C37.7641 1.00665 38.2261 0.570429 38.7914 0.570429V0.402344ZM38.7914 0.910603V1.11871H38.5675V1.43354H38.7914V1.62564H38.5675V2.11255H38.3352V0.910603H38.7631C38.7716 0.910603 38.7829 0.910603 38.7914 0.910603Z" fill="#A1A9B2"/>
<path fill-rule="evenodd" clip-rule="evenodd" d="M0.0471191 2.04771V0.692383H1.47668V11.8765H0.0471191V2.04771Z" fill="#A1A9B2"/>
<path fill-rule="evenodd" clip-rule="evenodd" d="M27.524 14.289V13.538C27.5651 13.4659 27.609 13.3846 27.6586 13.2952L27.524 13.5286L27.6586 13.2952L27.6657 13.2805C27.9845 12.6922 28.445 11.7678 28.8545 10.8847L27.524 7.85917V4.76031C27.5268 4.76832 27.5325 4.77766 27.5353 4.78566L28.0156 5.89687L27.524 4.75765L28.0156 5.89687L29.4722 9.23318L29.6408 9.77211L29.8307 9.23318L31.6713 4.94974C32.0099 3.76783 33.356 3.25824 34.8395 3.26091C35.5749 3.25824 36.1204 3.34228 36.7736 3.55706V4.85369C35.9688 4.30276 35.3921 3.98393 34.4796 3.98393C33.6791 3.98393 32.7142 4.31876 32.7142 5.42998C32.7 6.26372 33.2313 6.41713 34.7914 7.14682C36.0765 7.67108 37.2625 8.25003 37.2681 9.59069C37.2681 11.8291 34.926 12.216 33.7868 12.2186C32.7694 12.2186 31.8371 11.9825 31.3199 11.577V10.1003L31.4035 10.163C32.3273 10.978 33.1463 11.3982 34.2033 11.3982C35.2434 11.4062 36.17 10.926 36.17 10.0056C36.17 9.23318 35.4446 8.78362 34.1481 8.2687C32.9111 7.76446 32.0978 7.42963 31.7648 6.59588C31.2618 7.75245 28.914 13.1364 28.3599 14.289H27.524ZM27.524 4.76031V7.85917L26.4173 5.3446C26.4103 5.3366 26.406 5.32059 26.3961 5.30058V5.29925L26.4173 5.3446C26.44 5.39129 26.4159 5.34193 26.3961 5.29524V3.40632C26.6171 3.453 26.8283 3.49836 26.9997 3.54372L27.4744 4.64559L27.524 4.75765L27.4744 4.64559C27.4885 4.68161 27.5055 4.72296 27.524 4.76031ZM27.524 13.538V14.289H27.0932L27.3936 13.7621L27.524 13.5286L27.3936 13.7621C27.4276 13.7047 27.4744 13.6273 27.524 13.538ZM26.3961 11.4196V7.96455C26.9062 8.35141 27.2434 8.85032 27.2477 9.56667C27.2477 10.4324 26.8948 11.0221 26.3961 11.4196ZM17.5205 11.4369C17.5432 11.4369 17.5644 11.4369 17.5871 11.4369C19.2095 11.4089 20.4932 9.73876 20.4563 7.70576C20.4209 5.70078 19.1131 4.09199 17.5191 4.07464L17.5205 3.18354C17.5375 3.18354 17.5545 3.18354 17.5701 3.18354C19.2902 3.18354 20.7737 4.24806 21.4624 5.78615C21.4553 5.70078 21.4496 5.61407 21.4496 5.52069C21.4496 3.91323 23.1017 3.2329 24.8176 3.23556C24.8814 3.23556 24.948 3.23556 25.0089 3.23556C25.4156 3.23023 25.9384 3.31294 26.3961 3.40632V5.29524L26.3649 5.22988L26.3961 5.29925V5.30058C26.3734 5.25522 26.3352 5.17518 26.2799 5.05112C26.0929 4.65093 25.9186 4.28141 25.3915 4.09465C25.1081 4.00394 24.8077 3.95725 24.4592 3.95725C23.6586 3.95725 22.6327 4.29208 22.6327 5.4033C22.6157 6.23971 23.2094 6.39045 24.7709 7.12014C25.3702 7.36559 25.9483 7.62172 26.3961 7.96455V11.4196C25.6097 12.0452 24.4648 12.1906 23.7649 12.1933C22.8623 12.1933 22.0235 12.0039 21.485 11.677V10.227C22.3706 10.9834 23.1655 11.3729 24.1829 11.3729C25.2229 11.3796 26.1481 10.902 26.1481 9.97754C26.1481 9.20917 25.4227 8.75961 24.1276 8.24336C23.0295 7.79647 22.2133 7.48165 21.784 6.83467C21.8364 7.11747 21.8662 7.40828 21.8662 7.70309C21.8662 10.2003 19.9434 12.224 17.5701 12.224C17.5559 12.224 17.5375 12.224 17.5191 12.224L17.5205 11.4369ZM14.5832 7.80448C14.6215 9.80946 15.9293 11.4169 17.5191 11.4369L17.5205 12.224C15.1684 12.196 13.2725 10.183 13.2725 7.70309C13.2725 6.19835 13.9711 4.86437 15.0465 4.0453H12.139V11.8771H10.8468V10.5885C10.8496 10.5672 10.8482 10.5458 10.8482 10.5205L10.8496 4.0453H9.70898V3.23023H10.8638C11.0154 1.58409 12.0951 0.654297 13.5956 0.654297C14.5662 0.654297 15.1018 0.751678 15.4078 0.882409V1.99896C15.405 2.08166 15.405 2.13369 15.405 2.13369C15.3908 2.13102 15.3583 2.13102 15.3583 2.13102C14.8921 1.72416 14.4288 1.42267 13.3505 1.42267C12.4947 1.42267 11.9265 2.07766 12.1248 3.23023H16.958C17.145 3.20355 17.3306 3.18621 17.5191 3.18354L17.5205 4.07464C17.5006 4.07198 17.4751 4.07198 17.4525 4.07464C15.8301 4.09999 14.5449 5.77014 14.5832 7.80448Z" fill="#A1A9B2"/>
<path fill-rule="evenodd" clip-rule="evenodd" d="M4.1461 3.3131L4.16027 4.29224V4.35761H4.17444C4.19002 4.31759 4.21269 4.28157 4.23253 4.25623C4.76103 3.72396 5.42131 3.19971 6.99407 3.19971C8.50023 3.19971 9.47364 4.4043 9.51473 5.16067V11.8773H8.22394V5.71561C8.22394 4.77248 7.34404 4.08948 6.26295 4.08948C5.36888 4.08948 4.21553 4.84852 4.17727 5.6169V10.5233L4.1801 10.5593V11.8773H2.88647L2.89073 10.5233L2.88647 4.44032L2.89073 3.3131H4.1461Z" fill="#A1A9B2"/>
</svg>
