<svg width="40" height="11" viewBox="0 0 40 11" fill="none" xmlns="http://www.w3.org/2000/svg">
<path d="M5.58003 0.495605H0.880615V1.52829H2.59047V4.93007H3.85942V1.52829H5.56927V0.495605H5.58003Z" fill="#A1A9B2"/>
<path d="M18.3575 8.00864C18.3575 7.62392 18.0241 7.31006 17.6047 7.31006H17.594H15.9486C15.8088 7.31006 15.7335 7.38093 15.6583 7.48217L15.1636 8.15039H16.7552C16.938 8.16051 17.0885 8.30225 17.0885 8.48449V10.56H18.3467V8.00864H18.3575Z" fill="#A1A9B2"/>
<path d="M13.9131 6.12451H15.1713V10.559H13.9131V6.12451Z" fill="#A1A9B2"/>
<path d="M24.8356 7.31299H21.2654V10.5629H22.5343V8.15332H23.9753C24.1689 8.15332 24.3302 8.30518 24.3302 8.48742V10.5629H25.5883V8.01157C25.5883 7.62684 25.255 7.31299 24.8356 7.31299Z" fill="#A1A9B2"/>
<path d="M6.91864 6.12354H0.875V10.558H2.13319V7.15622H3.47742C3.60647 7.15622 3.70325 7.25746 3.70325 7.37895V10.558H4.96145V7.37895C4.96145 7.25746 5.06898 7.15622 5.19803 7.15622H6.18738C6.38095 7.15622 6.5315 7.29796 6.5315 7.4802V10.558H7.78969V6.93348C7.78969 6.48801 7.40256 6.12354 6.91864 6.12354Z" fill="#A1A9B2"/>
<path d="M19.1865 8.36288V10.5598H20.4447V8.59574V7.34033C20.4447 7.34033 19.864 7.68456 19.4554 7.92754C19.2833 8.02878 19.1865 8.19077 19.1865 8.36288Z" fill="#A1A9B2"/>
<path d="M19.1865 6.11865H20.4447V6.93872L19.1865 7.71829V6.11865Z" fill="#A1A9B2"/>
<path d="M32.3094 7.31299C31.9975 7.31299 31.7932 7.54585 31.7932 7.78883V10.573H33.0622V8.49753C33.0622 8.31529 33.202 8.15331 33.4063 8.15331H34.3419C34.4817 8.14318 34.5893 8.07231 34.6645 7.97107L35.1592 7.31299H32.3094V7.31299Z" fill="#A1A9B2"/>
<path d="M29.7078 6.12354V7.30807V9.74802H27.8797C27.7507 9.74802 27.6647 9.64678 27.6647 9.55566V8.48249C27.6647 8.30025 27.826 8.14839 28.0195 8.14839H28.9443C29.0841 8.14839 29.2239 8.06739 29.2777 7.9864L29.7078 7.30807H27.1485C26.7399 7.30807 26.4065 7.62193 26.4065 8.00665V8.01677V9.98088C26.4065 10.3555 26.7291 10.5681 27.0194 10.5681H30.9767V6.13366H29.7078V6.12354Z" fill="#A1A9B2"/>
<path d="M38.8462 7.31299H35.9426C35.8028 7.31299 35.663 7.37373 35.5877 7.4851L35.1038 8.16343H38.0289C38.2117 8.17355 38.3623 8.31529 38.3623 8.49753V9.79344H36.1685V9.41884C36.1685 9.34797 36.233 9.28723 36.3083 9.28723H37.8461V8.81138C37.8461 8.70002 37.7708 8.62915 37.6633 8.62915H35.534C35.2759 8.62915 35.0608 8.82151 35.0608 9.06449V10.249C35.0608 10.2592 35.0608 10.2592 35.0608 10.2693C35.0931 10.4414 35.2544 10.573 35.4479 10.573H39.5882V8.02169C39.5882 7.62684 39.2656 7.31299 38.8462 7.31299Z" fill="#A1A9B2"/>
<path d="M12.3871 7.31299H9.48362C9.34382 7.31299 9.20402 7.37373 9.12875 7.4851L8.63408 8.16343H11.5591C11.7419 8.17355 11.8924 8.31529 11.8924 8.49753V9.79344H9.69869V9.41884C9.69869 9.34797 9.76322 9.28723 9.83849 9.28723H11.3763V8.81138C11.3763 8.70002 11.301 8.62915 11.1935 8.62915H9.06423C8.80614 8.62915 8.59106 8.82151 8.59106 9.06449V10.249C8.59106 10.2592 8.59106 10.2592 8.59106 10.2693C8.62333 10.4414 8.78463 10.573 8.9782 10.573H13.1291V8.02169C13.1291 7.62684 12.7958 7.31299 12.3871 7.31299Z" fill="#A1A9B2"/>
<path d="M20.4396 2.42659C20.4396 2.04186 20.1063 1.72801 19.6869 1.72801H19.6761H17.9878C17.848 1.72801 17.7727 1.79888 17.6974 1.90012L17.2028 2.56833H18.8373C19.0201 2.57845 19.1707 2.72019 19.1707 2.90243V4.97793H20.4289V2.42659H20.4396ZM15.9553 0.543457H17.2135V4.97793H15.9553V0.543457Z" fill="#A1A9B2"/>
<path d="M12.4608 3.80955C12.4608 3.99179 12.6221 4.14365 12.8157 4.14365H15.1707V4.98396H11.9446C11.536 4.98396 11.2026 4.67011 11.2026 4.28539V4.27527V1.87582V2.37191C11.2026 1.98719 11.536 1.67334 11.9446 1.67334H15.1707L14.9771 2.13905C14.9341 2.2403 14.9126 2.32129 14.8158 2.38204C14.7513 2.42253 14.6868 2.46303 14.6008 2.46303H12.8157C12.6221 2.46303 12.4608 2.61489 12.4608 2.79713V3.80955" fill="#A1A9B2"/>
<path d="M6.81721 4.94379H9.50569C9.64549 4.94379 9.78529 4.88304 9.86057 4.77167L10.3552 4.09334H7.64526C7.46245 4.08321 7.31189 3.94147 7.31189 3.75923V2.47343H9.29061V2.84803C9.29061 2.9189 9.22609 2.97965 9.15081 2.97965H7.82808V3.4555C7.82808 3.56687 7.90336 3.63774 8.0109 3.63774H9.92509C10.1832 3.63774 10.3983 3.44537 10.3983 3.20239V2.01783C10.3983 2.0077 10.3983 2.0077 10.3983 1.99758C10.366 1.82547 10.2047 1.69385 10.0111 1.69385H6.53761H6.0752V2.10895V4.2452C6.0752 4.62993 6.40857 4.94379 6.81721 4.94379Z" fill="#A1A9B2"/>
</svg>
