<svg width="54" height="9" viewBox="0 0 54 9" fill="none" xmlns="http://www.w3.org/2000/svg">
<path d="M23.0569 7.53561L20.7511 1.46851C20.7217 1.38462 20.6778 1.27387 20.6778 1.17672C20.6778 0.913787 20.9129 0.664117 21.2498 0.664117C21.5438 0.664117 21.7354 0.844494 21.8231 1.10743L23.7337 6.33532L25.658 1.09284C25.7458 0.84416 25.9223 0.663783 26.2146 0.663783H26.2742C26.5833 0.663783 26.7742 0.84416 26.862 1.09284L28.7705 6.33532L30.7113 1.07991C30.7846 0.856759 30.945 0.663783 31.2545 0.663783C31.5773 0.663783 31.8127 0.898538 31.8127 1.1628C31.8127 1.25962 31.7682 1.37003 31.7394 1.45459L29.4189 7.53561C29.3003 7.85326 29.0663 8.02004 28.8014 8.02004H28.7575C28.4634 8.02004 28.2427 7.85326 28.1392 7.53561L26.2454 2.38L24.3352 7.53561C24.2324 7.85326 24.0113 8.02004 23.7183 8.02004H23.6874C23.4092 8.02004 23.1751 7.85326 23.0569 7.53561V7.53561ZM39.8643 1.19297C39.8643 0.900197 40.1142 0.650194 40.4226 0.650194C40.7479 0.650194 40.997 0.886602 40.997 1.19297V2.4241C41.5557 1.22846 42.7947 0.664117 43.6158 0.664117C43.9558 0.664117 44.1765 0.900197 44.1765 1.20591C44.1765 1.49835 43.9716 1.70592 43.6747 1.7477C42.2027 1.91448 40.9974 2.95793 40.9974 5.03025V7.4683C40.9974 7.76042 40.7623 8.01009 40.4388 8.01009C40.1149 8.01009 39.8647 7.77268 39.8647 7.4683L39.8643 1.19297ZM47.8121 8.07773C45.7639 8.07773 44.0916 6.5767 44.0916 4.3754V4.34688C44.0916 2.29677 45.606 0.645215 47.6679 0.645215C49.8725 0.645215 51.128 2.36409 51.128 4.2504C51.128 4.54019 50.8807 4.74742 50.6084 4.74742H45.2179C45.3751 6.28758 46.5134 7.15431 47.8416 7.15431C48.7648 7.15431 49.4402 6.81013 49.989 6.32836C50.0757 6.26039 50.1764 6.20535 50.307 6.20535C50.5799 6.20535 50.7972 6.41191 50.7972 6.66059C50.7972 6.78394 50.7396 6.90827 50.6228 7.00343C49.9171 7.64967 49.0799 8.07773 47.8121 8.07773V8.07773ZM50.0178 3.96259C49.902 2.6678 49.123 1.54046 47.6377 1.54046C46.3401 1.54046 45.3597 2.57198 45.2172 3.96259H50.0178ZM31.8327 5.84957V5.82171C31.8327 4.31107 33.1535 3.50601 35.0746 3.50601C36.0435 3.50601 36.7326 3.63069 37.4088 3.81206V3.56139C37.4088 2.27324 36.5701 1.60677 35.1487 1.60677C34.3855 1.60677 33.9412 1.69862 33.3826 1.93371C33.3103 1.96156 33.2363 1.97581 33.1791 1.97581C32.9149 1.97581 32.6791 1.76725 32.6791 1.51824C32.6791 1.29708 32.7812 1.16014 32.9879 1.0736C33.7349 0.767231 34.2981 0.665443 35.2659 0.665443C36.3361 0.665443 37.1579 0.928044 37.7144 1.45524C38.2288 1.94033 38.493 2.63333 38.493 3.5488V7.50378C38.493 7.80783 38.2583 8.03032 37.9485 8.03032C37.627 8.03032 37.4091 7.80816 37.4091 7.5313V6.8476C36.88 7.50046 35.9989 8.08171 34.6665 8.08171C33.2574 8.08072 31.8327 7.3191 31.8327 5.84957V5.84957ZM37.4232 5.29485V4.60153C36.8646 4.44934 36.1154 4.29648 35.1918 4.29648C33.7707 4.29648 32.9773 4.87939 32.9773 5.77961V5.80712C32.9773 6.708 33.8567 7.23487 34.8848 7.23487C36.2779 7.23487 37.4232 6.43048 37.4232 5.29485ZM2.50499 1.11406C2.25655 0.599459 1.6425 0.366366 1.06913 0.607088C0.495071 0.84814 0.283825 1.44961 0.543136 1.96454L2.95063 6.90927C3.32924 7.68415 3.72821 8.09033 4.47702 8.09033C5.27706 8.09033 5.62584 7.64801 6.00411 6.90927C6.00411 6.90927 8.10386 2.58889 8.12492 2.5438C8.14632 2.49804 8.21369 2.35845 8.42739 2.35978C8.6081 2.36077 8.76003 2.49704 8.76003 2.68007V6.90496C8.76003 7.55617 9.14216 8.09033 9.87763 8.09033C10.6124 8.09033 11.0096 7.55617 11.0096 6.90496V3.44766C11.0096 2.78087 11.5152 2.34817 12.2044 2.34817C12.8936 2.34817 13.3522 2.79645 13.3522 3.44766V6.90496C13.3522 7.55617 13.7357 8.09033 14.4698 8.09033C15.2046 8.09033 15.6039 7.55617 15.6039 6.90496V3.44766C15.6039 2.78087 16.1074 2.34817 16.7969 2.34817C17.485 2.34817 17.9454 2.79645 17.9454 3.44766V6.90496C17.9454 7.55617 18.3286 8.09033 19.0633 8.09033C19.7978 8.09033 20.1964 7.55617 20.1964 6.90496V2.97019C20.1964 1.52421 18.9658 0.511263 17.485 0.511263C16.006 0.511263 15.0796 1.47812 15.0796 1.47812C14.5873 0.874992 13.9087 0.512588 12.7602 0.512588C11.5482 0.512588 10.4875 1.47812 10.4875 1.47812C9.99483 0.874992 9.15619 0.512588 8.46177 0.512588C7.38768 0.512588 6.53466 0.958884 6.01428 2.08324L4.47702 5.50738L2.50499 1.11406ZM51.2196 1.54245V1.53649C51.2196 1.05272 51.6351 0.645215 52.1572 0.645215C52.6867 0.645215 53.0966 1.04841 53.0966 1.53283V1.53649C53.0966 2.02191 52.6822 2.42941 52.1572 2.42941C51.6277 2.42941 51.2196 2.02754 51.2196 1.54245V1.54245ZM52.9162 1.53649V1.53416C52.9162 1.13627 52.5909 0.810009 52.1572 0.810009C51.7274 0.810009 51.3972 1.14192 51.3972 1.53649V1.54112C51.3972 1.93801 51.7235 2.26428 52.1572 2.26428C52.5857 2.26428 52.9162 1.93305 52.9162 1.53649" fill="#A1A9B2"/>
<path d="M51.7983 1.18579C51.7983 1.13307 51.8429 1.09096 51.8993 1.09096H52.2121C52.3299 1.09096 52.4207 1.12246 52.4772 1.17883C52.5287 1.22625 52.5567 1.29488 52.5567 1.37446V1.37711C52.5567 1.51239 52.4845 1.59495 52.3755 1.63839L52.5136 1.79755C52.5329 1.82142 52.5459 1.84098 52.5459 1.87016C52.5459 1.92255 52.4989 1.95703 52.4512 1.95703C52.4067 1.95703 52.3765 1.93548 52.353 1.90829L52.1584 1.67553H51.9989V1.86254C51.9989 1.91526 51.9558 1.95671 51.8997 1.95671C51.8432 1.95671 51.7987 1.91493 51.7987 1.86254V1.18579H51.7983ZM52.2009 1.50809C52.2983 1.50809 52.352 1.46 52.352 1.38672V1.38375C52.352 1.30384 52.2945 1.26073 52.1974 1.26073H51.9978V1.50775H52.2009V1.50809Z" fill="#A1A9B2"/>
</svg>
