<svg width="69" height="20" viewBox="0 0 69 20" fill="none" xmlns="http://www.w3.org/2000/svg">
<path d="M8.4937 0.948242H0.132812V2.89955H3.17487V9.32739H5.4325V2.89955H8.47456V0.948242H8.4937Z" fill="#A1A9B2"/>
<path d="M31.2277 15.1442C31.2277 14.4173 30.6346 13.8242 29.8885 13.8242H29.8693H26.9421C26.6934 13.8242 26.5594 13.9581 26.4255 14.1494L25.5454 15.4121H28.377C28.7023 15.4312 28.9701 15.699 28.9701 16.0434V19.9652H31.2086V15.1442H31.2277Z" fill="#A1A9B2"/>
<path d="M23.3208 11.5845H25.5593V19.9636H23.3208V11.5845Z" fill="#A1A9B2"/>
<path d="M42.7529 13.8301H36.4009V19.9709H38.6585V15.4179H41.2223C41.5667 15.4179 41.8537 15.7049 41.8537 16.0492V19.9709H44.0922V15.1501C44.0922 14.4231 43.4991 13.8301 42.7529 13.8301Z" fill="#A1A9B2"/>
<path d="M10.876 11.5825H0.123535V19.9617H2.36204V13.5338H4.75361C4.9832 13.5338 5.15539 13.7251 5.15539 13.9547V19.9617H7.3939V13.9547C7.3939 13.7251 7.58522 13.5338 7.81481 13.5338H9.57501C9.91939 13.5338 10.1872 13.8017 10.1872 14.146V19.9617H12.4258V13.113C12.4258 12.2712 11.737 11.5825 10.876 11.5825Z" fill="#A1A9B2"/>
<path d="M32.7026 15.8145V19.9658H34.9411V16.2545V13.8823C34.9411 13.8823 33.908 14.5328 33.1809 14.9919C32.8748 15.1832 32.7026 15.4893 32.7026 15.8145Z" fill="#A1A9B2"/>
<path d="M32.7026 11.5737H34.9411V13.1233L32.7026 14.5963V11.5737Z" fill="#A1A9B2"/>
<path d="M56.0502 13.8301C55.4954 13.8301 55.1318 14.2701 55.1318 14.7292V19.9901H57.3895V16.0683C57.3895 15.724 57.6382 15.4179 58.0017 15.4179H59.6662C59.9149 15.3988 60.1063 15.2649 60.2402 15.0736L61.1203 13.8301H56.0502V13.8301Z" fill="#A1A9B2"/>
<path d="M51.4215 11.5825V13.8208V18.4312H48.169C47.9394 18.4312 47.7864 18.2399 47.7864 18.0678V16.0399C47.7864 15.6956 48.0733 15.4086 48.4177 15.4086H50.0631C50.3118 15.4086 50.5606 15.2556 50.6562 15.1025L51.4215 13.8208H46.868C46.141 13.8208 45.5479 14.4138 45.5479 15.1408V15.1599V18.8712C45.5479 19.5791 46.1218 19.9808 46.6384 19.9808H53.6792V11.6016H51.4215V11.5825Z" fill="#A1A9B2"/>
<path d="M67.6799 13.8301H62.5142C62.2654 13.8301 62.0167 13.9449 61.8828 14.1553L61.0218 15.437H66.2259C66.5511 15.4562 66.819 15.724 66.819 16.0683V18.517H62.916V17.8092C62.916 17.6753 63.0307 17.5605 63.1647 17.5605H65.9006V16.6614C65.9006 16.451 65.7667 16.317 65.5754 16.317H61.7871C61.328 16.317 60.9453 16.6805 60.9453 17.1397V19.3779C60.9453 19.397 60.9453 19.397 60.9453 19.4162C61.0027 19.7414 61.2897 19.9901 61.6341 19.9901H69.0001V15.1692C69.0001 14.4231 68.4261 13.8301 67.6799 13.8301Z" fill="#A1A9B2"/>
<path d="M20.6053 13.8301H15.4396C15.1908 13.8301 14.9421 13.9449 14.8082 14.1553L13.9281 15.437H19.1321C19.4574 15.4562 19.7252 15.724 19.7252 16.0683V18.517H15.8222V17.8092C15.8222 17.6753 15.937 17.5605 16.0709 17.5605H18.8069V16.6614C18.8069 16.451 18.673 16.317 18.4816 16.317H14.6934C14.2342 16.317 13.8516 16.6805 13.8516 17.1397V19.3779C13.8516 19.397 13.8516 19.397 13.8516 19.4162C13.909 19.7414 14.1959 19.9901 14.5403 19.9901H21.9255V15.1692C21.9255 14.4231 21.3324 13.8301 20.6053 13.8301Z" fill="#A1A9B2"/>
<path d="M34.9319 4.59689C34.9319 3.86992 34.3388 3.27687 33.5926 3.27687H33.5735H30.5697C30.321 3.27687 30.187 3.41078 30.0531 3.60209L29.173 4.86472H32.0812C32.4064 4.88385 32.6743 5.15168 32.6743 5.49603V9.41782H34.9128V4.59689H34.9319ZM26.9536 1.03857H29.1921V9.41782H26.9536V1.03857Z" fill="#A1A9B2"/>
<path d="M20.7365 7.21035C20.7365 7.5547 21.0235 7.84165 21.3679 7.84165H25.5579V9.42948H19.8182C19.0912 9.42948 18.498 8.83644 18.498 8.10948V8.09035V3.55644V4.49383C18.498 3.76687 19.0912 3.17383 19.8182 3.17383H25.5579L25.2135 4.05383C25.137 4.24513 25.0988 4.39818 24.9266 4.51296C24.8118 4.58948 24.697 4.666 24.5439 4.666H21.3679C21.0235 4.666 20.7365 4.95296 20.7365 5.29731V7.21035" fill="#A1A9B2"/>
<path d="M10.6956 9.35332H15.4787C15.7274 9.35332 15.9762 9.23853 16.1101 9.0281L16.9902 7.74635H12.1688C11.8436 7.72722 11.5757 7.45939 11.5757 7.11504V4.68546H15.0961V5.39329C15.0961 5.5272 14.9813 5.64199 14.8473 5.64199H12.4941V6.54112C12.4941 6.75156 12.628 6.88547 12.8193 6.88547H16.2249C16.6841 6.88547 17.0667 6.52199 17.0667 6.06286V3.82458C17.0667 3.80545 17.0667 3.80545 17.0667 3.78632C17.0093 3.4611 16.7223 3.2124 16.3779 3.2124H10.1982H9.37549V3.99676V8.03331C9.37549 8.76027 9.96859 9.35332 10.6956 9.35332Z" fill="#A1A9B2"/>
</svg>
