<svg width="94" height="16" viewBox="0 0 94 16" fill="none" xmlns="http://www.w3.org/2000/svg">
<path d="M40.4265 14.0295L36.3243 2.5653C36.2718 2.40679 36.1938 2.19753 36.1938 2.01395C36.1938 1.51712 36.6121 1.04535 37.2114 1.04535C37.7346 1.04535 38.0754 1.38619 38.2315 1.88302L41.6308 11.7614L45.0544 1.85545C45.2105 1.38556 45.5245 1.04472 46.0445 1.04472H46.1507C46.7007 1.04472 47.0403 1.38556 47.1963 1.85545L50.5919 11.7614L54.0449 1.83101C54.1753 1.40936 54.4606 1.04472 55.0113 1.04472C55.5856 1.04472 56.0045 1.48831 56.0045 1.98765C56.0045 2.17059 55.9252 2.37923 55.8741 2.53899L51.7456 14.0295C51.5346 14.6297 51.1182 14.9448 50.6468 14.9448H50.5688C50.0456 14.9448 49.653 14.6297 49.4688 14.0295L46.0995 4.28761L42.7008 14.0295C42.5179 14.6297 42.1246 14.9448 41.6033 14.9448H41.5484C41.0533 14.9448 40.6369 14.6297 40.4265 14.0295V14.0295ZM70.3296 2.04466C70.3296 1.49144 70.7741 1.01904 71.3228 1.01904C71.9015 1.01904 72.3448 1.46575 72.3448 2.04466V4.37096C73.3387 2.11171 75.5431 1.04535 77.0039 1.04535C77.6088 1.04535 78.0015 1.49144 78.0015 2.0691C78.0015 2.62169 77.6369 3.0139 77.1088 3.09284C74.4899 3.40798 72.3454 5.37965 72.3454 9.29543V13.9023C72.3454 14.4542 71.9271 14.926 71.3515 14.926C70.7753 14.926 70.3302 14.4774 70.3302 13.9023L70.3296 2.04466ZM84.4698 15.0538C80.8258 15.0538 77.8505 12.2175 77.8505 8.05804V8.00416C77.8505 4.13036 80.5449 1.00964 84.2133 1.00964C88.1357 1.00964 90.3694 4.25755 90.3694 7.82185C90.3694 8.36944 89.9293 8.76101 89.4448 8.76101H79.8544C80.1341 11.6712 82.1593 13.309 84.5223 13.309C86.1648 13.309 87.3666 12.6586 88.3429 11.7483C88.4972 11.6198 88.6763 11.5158 88.9086 11.5158C89.3943 11.5158 89.7807 11.9062 89.7807 12.3761C89.7807 12.6091 89.6783 12.8441 89.4704 13.0239C88.215 14.245 86.7254 15.0538 84.4698 15.0538V15.0538ZM88.3941 7.27802C88.1881 4.83144 86.8022 2.70126 84.1596 2.70126C81.8509 2.70126 80.1066 4.65038 79.8532 7.27802H88.3941ZM56.0401 10.8436V10.7909C56.0401 7.9365 58.3899 6.41529 61.808 6.41529C63.5316 6.41529 64.7577 6.65087 65.9608 6.99357V6.51993C65.9608 4.08588 64.4687 2.82656 61.9397 2.82656C60.5818 2.82656 59.7915 3.00012 58.7976 3.44432C58.669 3.49695 58.5373 3.52388 58.4355 3.52388C57.9654 3.52388 57.5459 3.1298 57.5459 2.65927C57.5459 2.24138 57.7276 1.98263 58.0953 1.8191C59.4244 1.24019 60.4264 1.04786 62.1482 1.04786C64.0523 1.04786 65.5144 1.54406 66.5045 2.54023C67.4197 3.45684 67.8898 4.76629 67.8898 6.49613V13.9693C67.8898 14.5438 67.4722 14.9642 66.9209 14.9642C66.3491 14.9642 65.9614 14.5445 65.9614 14.0213V12.7294C65.02 13.963 63.4523 15.0613 61.0819 15.0613C58.5747 15.0595 56.0401 13.6203 56.0401 10.8436V10.8436ZM65.9864 9.7954V8.48534C64.9925 8.19776 63.6596 7.90893 62.0165 7.90893C59.4881 7.90893 58.0766 9.01037 58.0766 10.7114V10.7634C58.0766 12.4656 59.641 13.4612 61.4702 13.4612C63.9487 13.4612 65.9864 11.9413 65.9864 9.7954ZM3.86159 1.89554C3.41959 0.923178 2.32709 0.482736 1.30699 0.937593C0.285647 1.39308 -0.0901923 2.52959 0.371161 3.50258L4.65446 12.8459C5.32807 14.3101 6.0379 15.0776 7.37014 15.0776C8.79353 15.0776 9.41407 14.2418 10.0871 12.8459C10.0871 12.8459 13.8228 4.68234 13.8603 4.59713C13.8984 4.51067 14.0182 4.2469 14.3984 4.24941C14.72 4.25129 14.9903 4.50878 14.9903 4.85462V12.8378C14.9903 14.0683 15.6701 15.0776 16.9786 15.0776C18.2859 15.0776 18.9926 14.0683 18.9926 12.8378V6.30502C18.9926 5.04508 19.8922 4.22748 21.1183 4.22748C22.3444 4.22748 23.1604 5.07453 23.1604 6.30502V12.8378C23.1604 14.0683 23.8428 15.0776 25.1488 15.0776C26.4561 15.0776 27.1665 14.0683 27.1665 12.8378V6.30502C27.1665 5.04508 28.0624 4.22748 29.2891 4.22748C30.5133 4.22748 31.3324 5.07453 31.3324 6.30502V12.8378C31.3324 14.0683 32.0142 15.0776 33.3214 15.0776C34.6281 15.0776 35.3373 14.0683 35.3373 12.8378V5.40283C35.3373 2.67055 33.1479 0.756526 30.5133 0.756526C27.8819 0.756526 26.2338 2.58346 26.2338 2.58346C25.3579 1.44381 24.1505 0.759031 22.1072 0.759031C19.9509 0.759031 18.0637 2.58346 18.0637 2.58346C17.1872 1.44381 15.6951 0.759031 14.4596 0.759031C12.5487 0.759031 11.031 1.60233 10.1052 3.72688L7.37014 10.197L3.86159 1.89554ZM90.5324 2.70501V2.69375C90.5324 1.77965 91.2715 1.00964 92.2005 1.00964C93.1425 1.00964 93.8717 1.77149 93.8717 2.68685V2.69375C93.8717 3.61098 93.1344 4.38098 92.2005 4.38098C91.2584 4.38098 90.5324 3.62162 90.5324 2.70501V2.70501ZM93.5508 2.69375V2.68935C93.5508 1.93752 92.9721 1.32103 92.2005 1.32103C91.4357 1.32103 90.8482 1.94818 90.8482 2.69375V2.70251C90.8482 3.45246 91.4288 4.06896 92.2005 4.06896C92.9627 4.06896 93.5508 3.44307 93.5508 2.69375" fill="#A1A9B2"/>
<path d="M91.562 2.031C91.562 1.93139 91.6413 1.85181 91.7418 1.85181H92.2987C92.5084 1.85181 92.6701 1.91134 92.7707 2.01785C92.8624 2.10744 92.9124 2.23713 92.9124 2.38749V2.3925C92.9124 2.64812 92.7838 2.80412 92.5896 2.8862L92.8356 3.18693C92.8699 3.23204 92.893 3.269 92.893 3.32414C92.893 3.42313 92.8094 3.48828 92.7245 3.48828C92.6452 3.48828 92.5915 3.44756 92.5497 3.39618L92.2032 2.95637H91.9191V3.30974C91.9191 3.40936 91.8423 3.48767 91.7424 3.48767C91.6419 3.48767 91.5626 3.40873 91.5626 3.30974V2.031H91.562ZM92.2787 2.63999C92.4523 2.63999 92.5478 2.54913 92.5478 2.41067V2.40504C92.5478 2.25405 92.4454 2.1726 92.2725 2.1726H91.9172V2.63936H92.2787V2.63999Z" fill="#A1A9B2"/>
</svg>
