<svg width="360" height="86" viewBox="0 0 360 86" fill="none" xmlns="http://www.w3.org/2000/svg">
<rect width="360" height="86" fill="#EFEFEF"/>
<path d="M158.782 30.0165C158.773 30.2917 158.811 30.5668 158.889 30.8328C158.977 31.0621 159.084 31.2822 159.2 31.4932C159.239 31.5574 159.268 31.6308 159.268 31.7041C159.259 31.8142 159.191 31.9243 159.084 31.9793L158.471 32.3645C158.393 32.4104 158.306 32.4471 158.218 32.4471C158.111 32.4379 158.004 32.392 157.927 32.3187C157.8 32.1903 157.674 32.0435 157.577 31.8876C157.479 31.7317 157.382 31.5574 157.275 31.3464C156.517 32.1903 155.564 32.6122 154.417 32.6122C153.6 32.6122 152.949 32.392 152.472 31.9518C151.996 31.5115 151.753 30.9245 151.753 30.1908C151.753 29.4112 152.044 28.7783 152.637 28.3014C153.231 27.8245 154.018 27.586 155.02 27.586C155.36 27.586 155.71 27.6135 156.05 27.6594C156.41 27.7052 156.779 27.7786 157.168 27.8612V27.1916C157.168 26.4946 157.013 26.0085 156.711 25.7241C156.41 25.4398 155.875 25.3022 155.127 25.3022C154.776 25.3022 154.417 25.3389 154.076 25.4215C153.717 25.504 153.367 25.6049 153.026 25.7333C152.919 25.7792 152.803 25.8159 152.686 25.8525C152.637 25.8709 152.579 25.8801 152.531 25.8801C152.394 25.8801 152.326 25.7883 152.326 25.5957V25.1463C152.317 25.0363 152.346 24.9262 152.394 24.8253C152.472 24.7428 152.56 24.6786 152.667 24.6327C153.056 24.4493 153.464 24.3117 153.892 24.22C154.388 24.1007 154.903 24.0457 155.408 24.0457C156.565 24.0457 157.411 24.2933 157.956 24.7886C158.5 25.2839 158.763 26.036 158.763 27.0449V30.0165H158.782ZM154.835 31.4107C155.175 31.4107 155.515 31.3556 155.836 31.2456C156.196 31.1263 156.507 30.9245 156.76 30.6586C156.916 30.4935 157.032 30.2917 157.091 30.0716C157.159 29.8148 157.188 29.5396 157.188 29.2736V28.8884C156.896 28.8242 156.595 28.7692 156.293 28.7325C155.992 28.6958 155.681 28.6775 155.379 28.6775C154.728 28.6775 154.251 28.7967 153.931 29.0443C153.61 29.292 153.454 29.6405 153.454 30.0991C153.454 30.5302 153.571 30.8512 153.814 31.0713C154.057 31.2914 154.388 31.4107 154.835 31.4107ZM162.642 32.4012C162.516 32.4104 162.38 32.3829 162.273 32.3095C162.176 32.2086 162.098 32.0894 162.069 31.9518L159.784 24.862C159.735 24.7428 159.706 24.6235 159.696 24.4951C159.687 24.3851 159.764 24.2842 159.881 24.2658H160.892C161.077 24.2658 161.203 24.2933 161.271 24.3575C161.339 24.4217 161.407 24.541 161.466 24.7152L163.09 30.787L164.606 24.7152C164.655 24.5318 164.713 24.4126 164.791 24.3575C164.908 24.2933 165.044 24.2566 165.18 24.2658H165.958C166.142 24.2658 166.269 24.2933 166.347 24.3575C166.444 24.4584 166.512 24.5777 166.531 24.7152L168.068 30.8603L169.75 24.7152C169.779 24.5777 169.847 24.4584 169.944 24.3575C170.061 24.2933 170.187 24.2566 170.323 24.2658H171.228C171.344 24.2475 171.451 24.33 171.471 24.4401V24.4951C171.471 24.541 171.461 24.596 171.451 24.6419C171.432 24.7244 171.412 24.7978 171.383 24.8712L169.04 31.961C168.982 32.1444 168.913 32.2636 168.836 32.3187C168.729 32.3829 168.593 32.4195 168.466 32.4104H167.63C167.445 32.4104 167.319 32.3829 167.241 32.3187C167.144 32.2178 167.076 32.0894 167.056 31.9518L165.549 26.036L164.052 31.9426C164.033 32.0802 163.965 32.2086 163.867 32.3095C163.751 32.3829 163.615 32.4104 163.478 32.4012H162.642ZM175.136 32.6488C174.631 32.6488 174.125 32.5938 173.639 32.4838C173.153 32.3737 172.773 32.2545 172.521 32.1169C172.394 32.0618 172.287 31.9701 172.219 31.8601C172.18 31.7775 172.161 31.695 172.161 31.6033V31.1355C172.161 30.9429 172.239 30.8512 172.385 30.8512C172.443 30.8512 172.501 30.8603 172.56 30.8787C172.618 30.897 172.705 30.9337 172.803 30.9704C173.143 31.1172 173.503 31.218 173.872 31.2914C174.251 31.3648 174.64 31.4015 175.029 31.4015C175.642 31.4015 176.118 31.3006 176.449 31.0988C176.77 30.9154 176.964 30.5852 176.954 30.2275C176.964 29.989 176.867 29.7597 176.692 29.5855C176.517 29.4112 176.186 29.2553 175.71 29.1085L174.3 28.6958C173.59 28.4848 173.065 28.173 172.744 27.7603C172.433 27.3751 172.258 26.9165 172.258 26.4304C172.248 26.0727 172.336 25.7241 172.521 25.4123C172.696 25.1188 172.929 24.862 173.221 24.6602C173.522 24.4401 173.862 24.2842 174.232 24.1833C174.631 24.0732 175.039 24.0182 175.457 24.0274C175.671 24.0274 175.894 24.0365 176.108 24.064C176.332 24.0916 176.536 24.1282 176.74 24.1649C176.945 24.2016 177.12 24.2566 177.295 24.3117C177.44 24.3575 177.577 24.4126 177.703 24.4768C177.82 24.5318 177.917 24.6052 177.995 24.7061C178.063 24.7978 178.092 24.8987 178.082 25.0087V25.4398C178.082 25.6324 178.004 25.7333 177.859 25.7333C177.732 25.715 177.606 25.6783 177.489 25.6232C176.906 25.3756 176.264 25.2564 175.622 25.2655C175.068 25.2655 174.631 25.3481 174.329 25.5224C174.028 25.6966 173.872 25.9626 173.872 26.3386C173.862 26.5863 173.969 26.8248 174.164 26.9898C174.358 27.1641 174.718 27.3384 175.233 27.4943L176.614 27.907C177.314 28.118 177.82 28.4115 178.121 28.7875C178.422 29.1544 178.578 29.613 178.568 30.0716C178.578 30.4384 178.49 30.8053 178.315 31.1355C178.14 31.4473 177.897 31.7225 177.606 31.9426C177.285 32.1811 176.915 32.3553 176.526 32.4562C176.079 32.5846 175.613 32.6488 175.136 32.6488Z" fill="#A1A9B2"/>
<path d="M176.974 37.1068C173.775 39.3356 169.127 40.5187 165.131 40.5187C159.531 40.5187 154.485 38.5651 150.673 35.3183C150.372 35.0615 150.644 34.713 151.004 34.9148C155.127 37.171 160.212 38.5376 165.472 38.5376C169.264 38.5193 173.017 37.7947 176.507 36.4098C177.042 36.1805 177.499 36.7399 176.974 37.1068Z" fill="#A1A9B2"/>
<path d="M178.306 35.6759C177.898 35.1806 175.603 35.4374 174.563 35.5567C174.252 35.5933 174.203 35.3365 174.485 35.1439C176.313 33.9333 179.317 34.2818 179.667 34.6853C180.017 35.0889 179.57 37.9321 177.859 39.2895C177.596 39.5005 177.343 39.3904 177.46 39.1153C177.849 38.2073 178.714 36.162 178.306 35.6759Z" fill="#A1A9B2"/>
<path d="M92 25.4023V26.1869H98.125V25.4023H92ZM98.9928 25.4023V26.1869H107.721C107.721 26.1869 106.83 25.4023 105.649 25.4023H98.9928ZM109.434 25.4023V26.1869H114.714L114.401 25.4023H109.434ZM118.5 25.4023L118.186 26.1869H123.419V25.4023H118.5ZM92 26.9282V27.7127H98.125V26.9282H92ZM98.9928 26.9292V27.7127H108.734C108.734 27.7127 108.62 27.1088 108.422 26.9292H98.9928ZM109.434 26.9292V27.7127H115.293L115.003 26.9292H109.434ZM117.873 26.9292L117.583 27.7127H123.419V26.9292H117.873ZM93.7603 28.454V29.2397H96.4128V28.454H93.7603ZM100.753 28.454V29.2397H103.406V28.454H100.753ZM105.986 28.454V29.2397H108.638C108.638 29.2397 108.807 28.8247 108.807 28.454H105.986ZM111.194 28.454V29.2397H115.896L115.583 28.454H111.194ZM117.295 28.454L116.981 29.2397H121.707V28.454H117.295ZM93.7603 29.981V30.7657H96.4128V29.981H93.7603ZM100.753 29.981V30.7657H107.528C107.528 30.7657 108.095 30.363 108.276 29.981H100.753ZM111.194 29.981V30.7657H113.846V30.3288L114.015 30.7657H118.874L119.054 30.3288V30.7657H121.707V29.981H116.728L116.463 30.6457L116.198 29.981H111.194ZM93.7603 31.5068V32.2916H96.4128V31.5068H93.7603ZM100.753 31.5068V32.2916H108.276C108.095 31.9108 107.528 31.5068 107.528 31.5068H100.753ZM111.194 31.5068V32.2916H113.846V31.5068H111.194ZM114.328 31.5068L114.649 32.2916H118.292L118.597 31.5068H114.328ZM119.054 31.5068V32.2916H121.707V31.5068H119.054ZM93.7603 33.0328V33.8175H96.4128V33.0328H93.7603ZM100.753 33.0328V33.8175H103.406V33.0328H100.753ZM105.986 33.0328V33.8175H108.807C108.807 33.4472 108.638 33.0328 108.638 33.0328H105.986ZM111.194 33.0328V33.8175H113.846V33.0328H111.194ZM114.93 33.0328L115.241 33.8175H117.684L117.997 33.0328H114.93ZM119.054 33.0328V33.8175H121.707V33.0328H119.054ZM92.0479 34.5587V35.3443H98.173V34.5587H92.0479ZM98.9928 34.5587V35.3443H108.422C108.62 35.1645 108.734 34.5587 108.734 34.5587H98.9928ZM109.482 34.5587V35.3443H113.846V34.5587H109.482ZM115.534 34.5587L115.854 35.3443H117.096L117.396 34.5587H115.534ZM119.054 34.5587V35.3443H123.467V34.5587H119.054ZM92.0479 36.0855V36.8702H98.173V36.0855H92.0479ZM98.9928 36.0855V36.869H105.649C106.83 36.869 107.721 36.0855 107.721 36.0855H98.9928ZM109.482 36.0855V36.8702H113.846V36.0855H109.482ZM116.14 36.0855L116.447 36.8678L116.5 36.869L116.812 36.0855H116.14ZM119.054 36.0855V36.8702H123.467V36.0855H119.054Z" fill="#A1A9B2"/>
<path d="M246.99 24.6369V26.5689L253.598 24.0572V22.5116L246.99 20V21.8547L250.848 23.2844L246.99 24.6369Z" fill="#A1A9B2"/>
<path d="M211.571 29.042C209.724 29.042 208.369 29.8148 208.246 31.4377H210.298V31.399C210.339 30.8581 210.873 30.4717 211.448 30.5103C212.227 30.5103 212.597 30.9354 212.597 31.6695V32.0173H211.653C209.642 32.0173 208 32.5969 208 34.413V34.4902C208 35.9586 209.149 36.6154 210.545 36.6154C211.407 36.6541 212.186 36.2677 212.679 35.6494V36.4995H214.772V31.6309C214.731 29.7762 213.377 29.042 211.571 29.042ZM211.119 35.1858C210.38 35.1858 210.052 34.838 210.052 34.3357V34.2584C210.052 33.6015 210.586 33.331 211.653 33.331H212.515V34.0266C212.556 34.7994 211.858 35.1858 211.119 35.1858Z" fill="#A1A9B2"/>
<path d="M219.697 35.1085C218.671 35.1085 218.137 34.4516 218.137 32.9833V32.7514C218.137 31.3217 218.753 30.6262 219.697 30.6262C220.436 30.6262 220.846 31.0899 220.969 31.7854H223.021C222.857 29.8921 221.38 29.042 219.656 29.042C217.604 29.042 215.962 30.3558 215.962 32.8287V32.906C215.962 35.3789 217.522 36.6154 219.656 36.6154C221.749 36.6154 222.939 35.4176 223.104 33.7947H221.134C220.969 34.6061 220.436 35.1085 219.697 35.1085Z" fill="#A1A9B2"/>
<path d="M227.7 35.1085C226.674 35.1085 226.141 34.4516 226.141 32.9833V32.7514C226.141 31.3217 226.756 30.6262 227.7 30.6262C228.439 30.6262 228.849 31.0899 228.973 31.7854H231.025C230.861 29.8921 229.383 29.042 227.659 29.042C225.607 29.042 223.965 30.3558 223.965 32.8287V32.906C223.965 35.3789 225.525 36.6154 227.659 36.6154C229.752 36.6154 230.943 35.4176 231.066 33.7947H229.137C229.014 34.6061 228.439 35.1085 227.7 35.1085Z" fill="#A1A9B2"/>
<path d="M235.786 35.1471C234.842 35.1471 234.267 34.6448 234.185 33.331H239.192V32.481C239.192 30.0853 237.592 29.042 235.663 29.042C233.569 29.042 231.969 30.3944 231.969 32.8287V32.9833C231.969 35.4176 233.487 36.6541 235.704 36.6541C237.715 36.6541 238.946 35.6108 239.151 34.2198H237.14C237.058 34.7994 236.442 35.2244 235.786 35.1471ZM235.663 30.433C236.524 30.433 237.058 30.8967 237.099 31.9786H234.226C234.39 30.8194 235.006 30.4717 235.663 30.433Z" fill="#A1A9B2"/>
<path d="M245.02 29.0418C244.035 29.0031 243.132 29.4668 242.681 30.2783V29.1963H240.547V36.4607H242.681V31.8239C242.722 31.167 243.338 30.626 244.035 30.6647C244.815 30.6647 245.184 31.0511 245.184 31.9012V36.4607H247.36V31.592C247.36 29.8146 246.416 29.0418 245.02 29.0418Z" fill="#A1A9B2"/>
<path d="M251.382 34.1426V30.7036H252.859V29.1966H251.382V26.9941L249.247 27.8442V29.1966H248.303V30.7036H249.206V34.3744C249.206 35.8428 249.986 36.5769 251.669 36.5769C252.079 36.5769 252.49 36.5383 252.9 36.4224V34.8381C252.654 34.9154 252.408 34.954 252.161 34.954C251.669 34.954 251.382 34.6836 251.382 34.1426Z" fill="#A1A9B2"/>
<path d="M258.81 33.7172V33.9104C258.769 34.5673 258.154 35.1083 257.456 35.0696C256.676 35.0696 256.348 34.6832 256.348 33.8331V29.1963H254.173V34.1036C254.173 35.8038 255.199 36.6152 256.594 36.6152C257.538 36.6539 258.4 36.1902 258.851 35.3787V36.4607H261.027V29.1963H258.851L258.81 33.7172Z" fill="#A1A9B2"/>
<path d="M264.721 30.5103V29.1579H262.586V36.4222H264.721V32.6742C264.721 31.4763 265.582 31.0513 267.06 31.0513V29.042C265.993 29.042 265.049 29.6216 264.721 30.5103Z" fill="#A1A9B2"/>
<path d="M274.94 32.4423C274.94 30.0466 273.339 29.042 271.41 29.042C269.317 29.042 267.717 30.3944 267.717 32.8287V32.9833C267.717 35.4176 269.235 36.6541 271.451 36.6541C273.463 36.6541 274.653 35.6108 274.899 34.2198H272.888C272.724 34.838 272.108 35.2244 271.451 35.1858C270.507 35.1858 269.933 34.6834 269.851 33.3697H274.858V32.4423H274.94ZM269.933 31.9786C270.097 30.7808 270.713 30.433 271.41 30.433C272.272 30.433 272.806 30.8967 272.847 31.9786H269.933Z" fill="#A1A9B2"/>
<path fill-rule="evenodd" clip-rule="evenodd" d="M338.791 27.6768C339.456 27.6768 340 27.1686 340 26.5389C340 25.9159 339.456 25.4023 338.791 25.4023V25.5704C339.357 25.5704 339.82 26.0067 339.82 26.5389C339.82 27.0739 339.357 27.5061 338.791 27.5061V27.6768ZM338.791 26.6256V26.4335H338.844C338.953 26.4335 339.039 26.3855 339.039 26.2775C339.039 26.1707 338.961 26.1187 338.824 26.1187H338.791V25.9106C339.025 25.9133 339.28 25.9626 339.28 26.2975C339.282 26.5109 339.141 26.5549 339.061 26.5936L339.296 27.1126H339.039L338.838 26.6256H338.791ZM338.791 25.4023C338.131 25.4023 337.583 25.9159 337.583 26.5389C337.583 27.1686 338.131 27.6768 338.791 27.6768V27.5061C338.226 27.5061 337.764 27.0739 337.764 26.5389C337.764 26.0067 338.226 25.5704 338.791 25.5704V25.4023ZM338.791 25.9106V26.1187H338.568V26.4335H338.791V26.6256H338.568V27.1126H338.335V25.9106H338.763C338.772 25.9106 338.783 25.9106 338.791 25.9106Z" fill="#A1A9B2"/>
<path fill-rule="evenodd" clip-rule="evenodd" d="M300.047 27.0477V25.6924H301.477V36.8765H300.047V27.0477Z" fill="#A1A9B2"/>
<path fill-rule="evenodd" clip-rule="evenodd" d="M327.524 39.289V38.538C327.565 38.4659 327.609 38.3846 327.659 38.2952L327.524 38.5286L327.659 38.2952L327.666 38.2805C327.984 37.6922 328.445 36.7678 328.854 35.8847L327.524 32.8592V29.7603C327.527 29.7683 327.532 29.7777 327.535 29.7857L328.016 30.8969L327.524 29.7576L328.016 30.8969L329.472 34.2332L329.641 34.7721L329.831 34.2332L331.671 29.9497C332.01 28.7678 333.356 28.2582 334.84 28.2609C335.575 28.2582 336.12 28.3423 336.774 28.5571V29.8537C335.969 29.3028 335.392 28.9839 334.48 28.9839C333.679 28.9839 332.714 29.3188 332.714 30.43C332.7 31.2637 333.231 31.4171 334.791 32.1468C336.077 32.6711 337.262 33.25 337.268 34.5907C337.268 36.8291 334.926 37.216 333.787 37.2186C332.769 37.2186 331.837 36.9825 331.32 36.577V35.1003L331.403 35.163C332.327 35.978 333.146 36.3982 334.203 36.3982C335.243 36.4062 336.17 35.926 336.17 35.0056C336.17 34.2332 335.445 33.7836 334.148 33.2687C332.911 32.7645 332.098 32.4296 331.765 31.5959C331.262 32.7525 328.914 38.1364 328.36 39.289H327.524ZM327.524 29.7603V32.8592L326.417 30.3446C326.41 30.3366 326.406 30.3206 326.396 30.3006V30.2992L326.417 30.3446C326.44 30.3913 326.416 30.3419 326.396 30.2952V28.4063C326.617 28.453 326.828 28.4984 327 28.5437L327.474 29.6456L327.524 29.7576L327.474 29.6456C327.489 29.6816 327.506 29.723 327.524 29.7603ZM327.524 38.538V39.289H327.093L327.394 38.7621L327.524 38.5286L327.394 38.7621C327.428 38.7047 327.474 38.6273 327.524 38.538ZM326.396 36.4196V32.9646C326.906 33.3514 327.243 33.8503 327.248 34.5667C327.248 35.4324 326.895 36.0221 326.396 36.4196ZM317.52 36.4369C317.543 36.4369 317.564 36.4369 317.587 36.4369C319.209 36.4089 320.493 34.7388 320.456 32.7058C320.421 30.7008 319.113 29.092 317.519 29.0746L317.52 28.1835C317.537 28.1835 317.554 28.1835 317.57 28.1835C319.29 28.1835 320.774 29.2481 321.462 30.7862C321.455 30.7008 321.45 30.6141 321.45 30.5207C321.45 28.9132 323.102 28.2329 324.818 28.2356C324.881 28.2356 324.948 28.2356 325.009 28.2356C325.416 28.2302 325.938 28.3129 326.396 28.4063V30.2952L326.365 30.2299L326.396 30.2992V30.3006C326.373 30.2552 326.335 30.1752 326.28 30.0511C326.093 29.6509 325.919 29.2814 325.391 29.0947C325.108 29.0039 324.808 28.9573 324.459 28.9573C323.659 28.9573 322.633 29.2921 322.633 30.4033C322.616 31.2397 323.209 31.3904 324.771 32.1201C325.37 32.3656 325.948 32.6217 326.396 32.9646V36.4196C325.61 37.0452 324.465 37.1906 323.765 37.1933C322.862 37.1933 322.023 37.0039 321.485 36.677V35.227C322.371 35.9834 323.166 36.3729 324.183 36.3729C325.223 36.3796 326.148 35.902 326.148 34.9775C326.148 34.2092 325.423 33.7596 324.128 33.2434C323.029 32.7965 322.213 32.4817 321.784 31.8347C321.836 32.1175 321.866 32.4083 321.866 32.7031C321.866 35.2003 319.943 37.224 317.57 37.224C317.556 37.224 317.537 37.224 317.519 37.224L317.52 36.4369ZM314.583 32.8045C314.621 34.8095 315.929 36.4169 317.519 36.4369L317.52 37.224C315.168 37.196 313.273 35.183 313.273 32.7031C313.273 31.1984 313.971 29.8644 315.047 29.0453H312.139V36.8771H310.847V35.5885C310.85 35.5672 310.848 35.5458 310.848 35.5205L310.85 29.0453H309.709V28.2302H310.864C311.015 26.5841 312.095 25.6543 313.596 25.6543C314.566 25.6543 315.102 25.7517 315.408 25.8824V26.999C315.405 27.0817 315.405 27.1337 315.405 27.1337C315.391 27.131 315.358 27.131 315.358 27.131C314.892 26.7242 314.429 26.4227 313.35 26.4227C312.495 26.4227 311.926 27.0777 312.125 28.2302H316.958C317.145 28.2035 317.331 28.1862 317.519 28.1835L317.52 29.0746C317.501 29.072 317.475 29.072 317.452 29.0746C315.83 29.1 314.545 30.7701 314.583 32.8045Z" fill="#A1A9B2"/>
<path fill-rule="evenodd" clip-rule="evenodd" d="M304.146 28.3131L304.16 29.2922V29.3576H304.174C304.19 29.3176 304.213 29.2816 304.233 29.2562C304.761 28.724 305.421 28.1997 306.994 28.1997C308.5 28.1997 309.474 29.4043 309.515 30.1607V36.8773H308.224V30.7156C308.224 29.7725 307.344 29.0895 306.263 29.0895C305.369 29.0895 304.216 29.8485 304.177 30.6169V35.5233L304.18 35.5593V36.8773H302.886L302.891 35.5233L302.886 29.4403L302.891 28.3131H304.146Z" fill="#A1A9B2"/>
<path d="M43.0569 61.5356L40.7511 55.4685C40.7217 55.3846 40.6778 55.2739 40.6778 55.1767C40.6778 54.9138 40.9129 54.6641 41.2498 54.6641C41.5438 54.6641 41.7354 54.8445 41.8231 55.1074L43.7337 60.3353L45.658 55.0928C45.7458 54.8442 45.9223 54.6638 46.2146 54.6638H46.2742C46.5833 54.6638 46.7742 54.8442 46.862 55.0928L48.7705 60.3353L50.7113 55.0799C50.7846 54.8568 50.945 54.6638 51.2545 54.6638C51.5773 54.6638 51.8127 54.8985 51.8127 55.1628C51.8127 55.2596 51.7682 55.37 51.7394 55.4546L49.4189 61.5356C49.3003 61.8533 49.0663 62.02 48.8014 62.02H48.7575C48.4634 62.02 48.2427 61.8533 48.1392 61.5356L46.2454 56.38L44.3352 61.5356C44.2324 61.8533 44.0113 62.02 43.7183 62.02H43.6874C43.4092 62.02 43.1751 61.8533 43.0569 61.5356ZM59.8643 55.193C59.8643 54.9002 60.1142 54.6502 60.4226 54.6502C60.7479 54.6502 60.997 54.8866 60.997 55.193V56.4241C61.5557 55.2285 62.7947 54.6641 63.6157 54.6641C63.9558 54.6641 64.1765 54.9002 64.1765 55.2059C64.1765 55.4984 63.9716 55.7059 63.6747 55.7477C62.2027 55.9145 60.9974 56.9579 60.9974 59.0303V61.4683C60.9974 61.7604 60.7623 62.0101 60.4388 62.0101C60.1149 62.0101 59.8647 61.7727 59.8647 61.4683L59.8643 55.193ZM67.8121 62.0777C65.7639 62.0777 64.0916 60.5767 64.0916 58.3754V58.3469C64.0916 56.2968 65.606 54.6452 67.6679 54.6452C69.8725 54.6452 71.128 56.3641 71.128 58.2504C71.128 58.5402 70.8807 58.7474 70.6084 58.7474H65.2179C65.3751 60.2876 66.5134 61.1543 67.8416 61.1543C68.7648 61.1543 69.4402 60.8101 69.989 60.3284C70.0757 60.2604 70.1764 60.2053 70.3069 60.2053C70.5799 60.2053 70.7972 60.4119 70.7972 60.6606C70.7972 60.7839 70.7396 60.9083 70.6228 61.0034C69.9171 61.6497 69.0799 62.0777 67.8121 62.0777ZM70.0178 57.9626C69.902 56.6678 69.123 55.5405 67.6377 55.5405C66.3401 55.5405 65.3597 56.572 65.2172 57.9626H70.0178ZM51.8327 59.8496V59.8217C51.8327 58.3111 53.1535 57.506 55.0746 57.506C56.0435 57.506 56.7326 57.6307 57.4088 57.8121V57.5614C57.4088 56.2732 56.5701 55.6068 55.1487 55.6068C54.3855 55.6068 53.9412 55.6986 53.3826 55.9337C53.3103 55.9616 53.2363 55.9758 53.1791 55.9758C52.9149 55.9758 52.6791 55.7673 52.6791 55.5182C52.6791 55.2971 52.7812 55.1601 52.9879 55.0736C53.7349 54.7672 54.2981 54.6654 55.2659 54.6654C56.3361 54.6654 57.1579 54.928 57.7144 55.4552C58.2288 55.9403 58.493 56.6333 58.493 57.5488V61.5038C58.493 61.8078 58.2583 62.0303 57.9485 62.0303C57.627 62.0303 57.4091 61.8082 57.4091 61.5313V60.8476C56.88 61.5005 55.9989 62.0817 54.6665 62.0817C53.2574 62.0807 51.8327 61.3191 51.8327 59.8496ZM57.4232 59.2949V58.6015C56.8646 58.4493 56.1154 58.2965 55.1918 58.2965C53.7707 58.2965 52.9773 58.8794 52.9773 59.7796V59.8071C52.9773 60.708 53.8567 61.2349 54.8848 61.2349C56.2779 61.2349 57.4232 60.4305 57.4232 59.2949ZM22.505 55.1141C22.2566 54.5995 21.6425 54.3664 21.0691 54.6071C20.4951 54.8481 20.2838 55.4496 20.5431 55.9645L22.9506 60.9093C23.3292 61.6842 23.7282 62.0903 24.477 62.0903C25.2771 62.0903 25.6258 61.648 26.0041 60.9093C26.0041 60.9093 28.1039 56.5889 28.1249 56.5438C28.1463 56.498 28.2137 56.3585 28.4274 56.3598C28.6081 56.3608 28.76 56.497 28.76 56.6801V60.905C28.76 61.5562 29.1422 62.0903 29.8776 62.0903C30.6124 62.0903 31.0096 61.5562 31.0096 60.905V57.4477C31.0096 56.7809 31.5152 56.3482 32.2044 56.3482C32.8936 56.3482 33.3522 56.7965 33.3522 57.4477V60.905C33.3522 61.5562 33.7357 62.0903 34.4698 62.0903C35.2046 62.0903 35.6039 61.5562 35.6039 60.905V57.4477C35.6039 56.7809 36.1074 56.3482 36.7969 56.3482C37.485 56.3482 37.9454 56.7965 37.9454 57.4477V60.905C37.9454 61.5562 38.3286 62.0903 39.0633 62.0903C39.7978 62.0903 40.1964 61.5562 40.1964 60.905V56.9702C40.1964 55.5242 38.9658 54.5113 37.485 54.5113C36.006 54.5113 35.0796 55.4781 35.0796 55.4781C34.5873 54.875 33.9087 54.5126 32.7602 54.5126C31.5482 54.5126 30.4875 55.4781 30.4875 55.4781C29.9948 54.875 29.1562 54.5126 28.4618 54.5126C27.3877 54.5126 26.5347 54.9589 26.0143 56.0832L24.477 59.5074L22.505 55.1141ZM71.2196 55.5424V55.5365C71.2196 55.0527 71.6351 54.6452 72.1572 54.6452C72.6867 54.6452 73.0966 55.0484 73.0966 55.5328V55.5365C73.0966 56.0219 72.6822 56.4294 72.1572 56.4294C71.6277 56.4294 71.2196 56.0275 71.2196 55.5424ZM72.9162 55.5365V55.5342C72.9162 55.1363 72.5909 54.81 72.1572 54.81C71.7274 54.81 71.3972 55.1419 71.3972 55.5365V55.5411C71.3972 55.938 71.7235 56.2643 72.1572 56.2643C72.5857 56.2643 72.9162 55.933 72.9162 55.5365Z" fill="#A1A9B2"/>
<path d="M71.7983 55.1858C71.7983 55.1331 71.8429 55.091 71.8993 55.091H72.2121C72.3299 55.091 72.4207 55.1225 72.4772 55.1788C72.5287 55.2262 72.5567 55.2949 72.5567 55.3745V55.3771C72.5567 55.5124 72.4845 55.595 72.3755 55.6384L72.5136 55.7975C72.5329 55.8214 72.5459 55.841 72.5459 55.8702C72.5459 55.9225 72.4989 55.957 72.4512 55.957C72.4067 55.957 72.3765 55.9355 72.353 55.9083L72.1584 55.6755H71.9989V55.8625C71.9989 55.9153 71.9558 55.9567 71.8997 55.9567C71.8432 55.9567 71.7987 55.9149 71.7987 55.8625V55.1858H71.7983ZM72.2009 55.5081C72.2983 55.5081 72.352 55.46 72.352 55.3867V55.3837C72.352 55.3038 72.2945 55.2607 72.1974 55.2607H71.9978V55.5078H72.2009V55.5081Z" fill="#A1A9B2"/>
<path d="M94.0441 58.3333C94.0441 57.0861 95.1001 56.0795 96.4182 56.0795C97.1967 56.0795 97.9059 56.3931 98.4377 57.0277L99.6556 55.9482C98.8694 55.0218 97.6515 54.5112 96.4182 54.5112C94.3293 54.5112 92.3638 56.0649 92.3638 58.3698C92.3638 60.5726 94.3293 62.17 96.3257 62.17C97.6515 62.17 98.8694 61.6813 99.7096 60.6602L98.4763 59.5952C97.9367 60.2663 97.189 60.5945 96.4182 60.5945C95.1001 60.5945 94.0441 59.5806 94.0441 58.3333ZM105.498 58.9825L108.628 54.7082H106.708L104.681 57.5893L102.654 54.7082H100.704L103.841 58.9971V61.9877H105.498V58.9825ZM110.239 61.9804H111.904V54.7009H110.239V61.9804ZM114.825 61.9804H120.421V60.4924H116.452V56.1962H120.421V54.7082H114.825V61.9804ZM118.695 59.3472C119.296 59.3472 119.781 58.8804 119.781 58.3188C119.781 57.7571 119.296 57.2976 118.695 57.2976C118.101 57.2976 117.615 57.7571 117.615 58.3188C117.615 58.8804 118.101 59.3472 118.695 59.3472ZM128.245 61.9804H129.717V54.7009H128.091V59.3326L124.437 54.7009H122.849V61.9804H124.476V57.2028L128.245 61.9804ZM138.605 56.1962V54.7082H131.875V56.1962H134.411V61.9804H136.076V56.1962H138.605Z" fill="#A1A9B2"/>
<path fill-rule="evenodd" clip-rule="evenodd" d="M160.012 61.8907C160.173 61.8907 160.294 61.853 160.455 61.853C160.616 61.853 160.777 61.8907 160.978 61.8907V54.5353H160.012V61.8907ZM169.315 54.5353H168.751V60.0706H168.63L163.395 54.5353H162.952V61.8903C163.033 61.8903 163.194 61.8526 163.314 61.8526C163.355 61.8526 163.475 61.8903 163.556 61.8903V56.09H163.717L168.429 61.2083C168.71 61.4734 168.871 61.7391 168.992 61.8907H169.314L169.315 54.5353ZM174.752 59.3883C174.591 59.8814 174.308 60.2979 174.107 60.7533H173.986L172.577 57.4547L171.932 55.5589C171.771 55.2177 171.65 54.8388 171.489 54.5353H170.442C170.885 55.4073 172.496 59.3883 173.784 61.8903C173.825 61.8903 173.945 61.8526 173.986 61.8526C174.107 61.8526 174.187 61.8903 174.227 61.8903C174.63 60.7533 177.086 55.1796 177.409 54.5353H176.644L176.564 54.725L175.879 56.4689L174.752 59.3883ZM179.744 55.0661H181.677C181.999 55.0661 182.362 55.1419 182.684 55.2177C182.684 55.0661 182.603 54.9904 182.603 54.8765C182.603 54.7627 182.684 54.6488 182.684 54.5353H178.738V61.8903H182.724C182.724 61.8145 182.684 61.7011 182.684 61.5488C182.684 61.4353 182.724 61.3595 182.724 61.208C182.402 61.2837 182.04 61.3214 181.718 61.3214C181.073 61.3599 180.429 61.3599 179.744 61.3599V58.1751H181.436C181.758 58.1751 182.04 58.2132 182.443 58.2509C182.443 58.1751 182.402 58.1371 182.402 58.0236C182.402 57.9101 182.443 57.834 182.443 57.6443C182.04 57.7582 181.758 57.834 181.436 57.834H179.744V55.0661ZM184.215 60.4121C184.174 60.791 184.134 61.0945 184.013 61.436C184.415 61.8149 185.302 62.0426 185.825 62.0426C187.315 62.0426 188.523 61.0949 188.523 59.6163C188.523 57.3039 184.98 58.1378 184.98 56.1285C184.98 55.3323 185.664 54.8773 186.47 54.8773C187.034 54.8773 187.557 55.2184 187.799 55.7492H187.839C188 55.408 188.08 55.2184 188.202 54.8773C187.799 54.5738 187.154 54.3845 186.631 54.3845C185.342 54.3845 184.174 55.0669 184.174 56.4696C184.174 58.934 187.597 58.0243 187.597 59.9956C187.597 60.8675 186.993 61.5499 186.108 61.5499C185.262 61.5499 184.738 61.1333 184.255 60.4129H184.215V60.4121ZM195.973 60.7533C195.812 60.9426 194.926 61.6245 193.678 61.6245C191.946 61.6245 190.738 60.336 190.738 58.2128C190.738 56.4308 191.705 54.763 193.758 54.763C194.926 54.763 195.692 55.5212 195.812 55.7108L195.933 55.6727C195.976 55.3984 196.057 55.1307 196.174 54.8765C195.409 54.573 194.604 54.3838 193.798 54.3838C191.462 54.3838 189.65 55.7485 189.65 58.2128C189.65 60.5633 191.02 62.0419 193.557 62.0419C194.322 62.0419 195.248 61.8903 195.933 61.4353L195.973 60.7533ZM200.886 62.0422C203.302 62.0422 205.075 60.4879 205.075 58.1374C205.075 55.4077 202.94 54.3842 200.886 54.3842C198.631 54.3842 196.819 55.9008 196.819 58.2132C196.819 60.526 198.43 62.0422 200.886 62.0422ZM204.027 58.2128C204.108 59.3883 203.222 61.7014 200.886 61.7014C199.276 61.7014 197.906 60.5637 197.906 58.3647C197.906 56.1658 199.074 54.763 201.007 54.763C201.933 54.763 202.779 55.1419 203.302 55.7488C203.866 56.507 204.027 57.2274 204.027 58.2128Z" fill="#A1A9B2"/>
<path d="M257.125 61.0921L260.31 58.1597H257.169V56.7852H262.531V58.1847L259.346 61.1088H262.593V62.4917H257.116V61.0921H257.125Z" fill="#A1A9B3"/>
<path d="M256.514 54.9028H254.86V56.319H256.514V54.9028Z" fill="#A1A9B3"/>
<path d="M256.488 56.7939H254.833V62.5004H256.488V56.7939Z" fill="#A1A9B3"/>
<path d="M234.765 59.6258C234.774 57.993 236.18 56.6768 237.915 56.6851C239.649 56.6934 241.047 58.018 241.038 59.6508C241.029 61.2753 239.631 62.5915 237.897 62.5915C236.172 62.5915 234.765 61.2753 234.756 59.6508C234.765 59.6425 234.765 59.6341 234.765 59.6258ZM239.437 59.6258C239.437 58.8177 238.755 58.143 237.915 58.143C237.056 58.143 236.402 58.8177 236.402 59.6258C236.402 60.4339 237.056 61.1087 237.915 61.1087C238.755 61.1087 239.437 60.4339 239.437 59.6258Z" fill="#A1A9B3"/>
<path d="M248.533 56.7772H250.179V57.4187C250.568 56.9522 251.161 56.6689 251.851 56.6689C253.284 56.6689 254.143 57.5353 254.143 59.0099V62.4921H252.461V59.2181C252.461 58.4517 252.081 58.0102 251.347 58.0102C250.718 58.0102 250.196 58.4184 250.196 59.3764V62.4921H248.542V56.7772H248.533Z" fill="#A1A9B3"/>
<path d="M262.691 59.6259C262.691 57.6099 264.266 56.6602 265.637 56.6602C266.425 56.6602 267.044 56.9351 267.442 57.3349V56.7768H269.097V62.4833H267.442V61.8418C267.044 62.2834 266.398 62.5916 265.611 62.5916C264.328 62.5916 262.691 61.6336 262.691 59.6259ZM267.487 59.6176C267.487 58.7762 266.832 58.093 265.938 58.093C265.018 58.093 264.319 58.7428 264.319 59.6176C264.319 60.4923 265.018 61.1587 265.938 61.1587C266.841 61.1587 267.495 60.459 267.487 59.6176Z" fill="#A1A9B3"/>
<path d="M269.77 56.7772H271.415V57.4187C271.805 56.9522 272.398 56.6689 273.088 56.6689C274.521 56.6689 275.379 57.5353 275.379 59.0099V62.4921H273.698V59.2181C273.698 58.4517 273.327 58.0102 272.583 58.0102C271.955 58.0102 271.433 58.4184 271.433 59.3764V62.4921H269.778L269.77 56.7772Z" fill="#A1A9B3"/>
<path d="M257.125 62.4751V61.0838L260.31 58.1514H257.169V56.7769H262.531V58.1764L259.346 61.1005" fill="#A1A9B3"/>
<path d="M232.995 59.5763L232.977 59.6262C232.517 60.5343 231.676 61.0591 230.668 61.0591C229.199 61.0591 228.057 59.9678 228.057 58.5766C228.057 57.1437 229.199 56.0774 230.703 56.0774C231.685 56.0774 232.42 56.5106 232.915 57.3603L232.942 57.4103L234.42 56.5189L234.393 56.4773C233.623 55.2443 232.252 54.5112 230.703 54.5112C228.243 54.5112 226.376 56.2607 226.376 58.5849C226.376 60.9425 228.19 62.6503 230.694 62.6503C232.305 62.6503 233.729 61.8089 234.508 60.3927L234.535 60.351L232.995 59.5763Z" fill="#A1A9B3"/>
<path d="M241.463 59.6259C241.463 57.6099 243.038 56.6602 244.409 56.6602C245.197 56.6602 245.816 56.9684 246.215 57.3933V56.7768H247.869V62.3167C247.869 63.9245 246.79 65.2241 244.746 65.2241C243.206 65.2241 242.082 64.4743 241.596 63.583L243.056 62.8082C243.374 63.3997 243.923 63.7746 244.737 63.7746C245.631 63.7746 246.197 63.1164 246.197 62.375V61.8418C245.799 62.2834 245.153 62.5916 244.365 62.5916C243.091 62.5916 241.463 61.6336 241.463 59.6259ZM246.259 59.6175C246.259 58.7761 245.604 58.093 244.71 58.093C243.79 58.093 243.091 58.7428 243.091 59.6175C243.091 60.4923 243.79 61.1587 244.71 61.1587C245.604 61.1587 246.259 60.4589 246.259 59.6175Z" fill="#A1A9B3"/>
<path d="M279.467 58.1851V56.7856H278.326V54.9028H276.671V56.7856H275.636V58.1851H276.662V60.0012C276.662 61.8589 277.291 62.4754 279.22 62.4754H279.459V61.0175C278.441 61.0175 278.317 60.8842 278.317 59.9928V58.1851H279.467Z" fill="#A1A9B3"/>
<path d="M305.58 52.4956H300.881V53.5283H302.59V56.9301H303.859V53.5283H305.569V52.4956H305.58Z" fill="#A1A9B2"/>
<path d="M318.357 60.0086C318.357 59.6239 318.024 59.3101 317.605 59.3101H317.594H315.949C315.809 59.3101 315.734 59.3809 315.658 59.4822L315.164 60.1504H316.755C316.938 60.1605 317.089 60.3023 317.089 60.4845V62.56H318.347V60.0086H318.357Z" fill="#A1A9B2"/>
<path d="M313.913 58.1245H315.171V62.559H313.913V58.1245Z" fill="#A1A9B2"/>
<path d="M324.836 59.313H321.265V62.5629H322.534V60.1533H323.975C324.169 60.1533 324.33 60.3052 324.33 60.4874V62.5629H325.588V60.0116C325.588 59.6268 325.255 59.313 324.836 59.313Z" fill="#A1A9B2"/>
<path d="M306.919 58.1235H300.875V62.558H302.133V59.1562H303.477C303.606 59.1562 303.703 59.2575 303.703 59.379V62.558H304.961V59.379C304.961 59.2575 305.069 59.1562 305.198 59.1562H306.187C306.381 59.1562 306.532 59.298 306.532 59.4802V62.558H307.79V58.9335C307.79 58.488 307.403 58.1235 306.919 58.1235Z" fill="#A1A9B2"/>
<path d="M319.187 60.3629V62.5598H320.445V60.5957V59.3403C320.445 59.3403 319.864 59.6846 319.455 59.9275C319.283 60.0288 319.187 60.1908 319.187 60.3629Z" fill="#A1A9B2"/>
<path d="M319.187 58.1187H320.445V58.9387L319.187 59.7183V58.1187Z" fill="#A1A9B2"/>
<path d="M332.309 59.313C331.998 59.313 331.793 59.5458 331.793 59.7888V62.573H333.062V60.4975C333.062 60.3153 333.202 60.1533 333.406 60.1533H334.342C334.482 60.1432 334.589 60.0723 334.665 59.9711L335.159 59.313H332.309Z" fill="#A1A9B2"/>
<path d="M329.708 58.1235V59.3081V61.748H327.88C327.751 61.748 327.665 61.6468 327.665 61.5557V60.4825C327.665 60.3003 327.826 60.1484 328.02 60.1484H328.944C329.084 60.1484 329.224 60.0674 329.278 59.9864L329.708 59.3081H327.148C326.74 59.3081 326.406 59.6219 326.406 60.0066V60.0168V61.9809C326.406 62.3555 326.729 62.5681 327.019 62.5681H330.977V58.1337H329.708V58.1235Z" fill="#A1A9B2"/>
<path d="M338.846 59.313H335.943C335.803 59.313 335.663 59.3737 335.588 59.4851L335.104 60.1634H338.029C338.212 60.1736 338.362 60.3153 338.362 60.4975V61.7934H336.168V61.4188C336.168 61.348 336.233 61.2872 336.308 61.2872H337.846V60.8114C337.846 60.7 337.771 60.6291 337.663 60.6291H335.534C335.276 60.6291 335.061 60.8215 335.061 61.0645V62.249C335.061 62.2592 335.061 62.2592 335.061 62.2693C335.093 62.4414 335.254 62.573 335.448 62.573H339.588V60.0217C339.588 59.6268 339.266 59.313 338.846 59.313Z" fill="#A1A9B2"/>
<path d="M312.387 59.313H309.484C309.344 59.313 309.204 59.3737 309.129 59.4851L308.634 60.1634H311.559C311.742 60.1736 311.892 60.3153 311.892 60.4975V61.7934H309.699V61.4188C309.699 61.348 309.763 61.2872 309.838 61.2872H311.376V60.8114C311.376 60.7 311.301 60.6291 311.193 60.6291H309.064C308.806 60.6291 308.591 60.8215 308.591 61.0645V62.249C308.591 62.2592 308.591 62.2592 308.591 62.2693C308.623 62.4414 308.785 62.573 308.978 62.573H313.129V60.0217C313.129 59.6268 312.796 59.313 312.387 59.313Z" fill="#A1A9B2"/>
<path d="M320.44 54.4266C320.44 54.0419 320.106 53.728 319.687 53.728H319.676H317.988C317.848 53.728 317.773 53.7989 317.697 53.9001L317.203 54.5683H318.837C319.02 54.5785 319.171 54.7202 319.171 54.9024V56.9779H320.429V54.4266H320.44ZM315.955 52.5435H317.214V56.9779H315.955V52.5435Z" fill="#A1A9B2"/>
<path d="M312.461 55.8096C312.461 55.9918 312.622 56.1437 312.816 56.1437H315.171V56.984H311.945C311.536 56.984 311.203 56.6701 311.203 56.2854V56.2753V53.8758V54.3719C311.203 53.9872 311.536 53.6733 311.945 53.6733H315.171L314.977 54.1391C314.934 54.2403 314.913 54.3213 314.816 54.382C314.751 54.4225 314.687 54.463 314.601 54.463H312.816C312.622 54.463 312.461 54.6149 312.461 54.7971V55.8096Z" fill="#A1A9B2"/>
<path d="M306.817 56.9438H309.506C309.645 56.9438 309.785 56.883 309.861 56.7717L310.355 56.0933H307.645C307.462 56.0832 307.312 55.9415 307.312 55.7592V54.4734H309.291V54.848C309.291 54.9189 309.226 54.9796 309.151 54.9796H307.828V55.4555C307.828 55.5669 307.903 55.6377 308.011 55.6377H309.925C310.183 55.6377 310.398 55.4454 310.398 55.2024V54.0178C310.398 54.0077 310.398 54.0077 310.398 53.9976C310.366 53.8255 310.205 53.6938 310.011 53.6938H306.538H306.075V54.1089V56.2452C306.075 56.6299 306.409 56.9438 306.817 56.9438Z" fill="#A1A9B2"/>
<path d="M25.1646 26.4946C25.1646 27.3218 24.9595 27.9575 24.5493 28.4019C24.1392 28.8462 23.5513 29.0684 22.7856 29.0684C22.02 29.0684 21.4321 28.8462 21.022 28.4019C20.6118 27.9575 20.4067 27.3195 20.4067 26.4878C20.4067 25.6561 20.6118 25.0215 21.022 24.584C21.4344 24.1442 22.0246 23.9243 22.7925 23.9243C23.5604 23.9243 24.1471 24.1453 24.5527 24.5874C24.9606 25.0295 25.1646 25.6652 25.1646 26.4946ZM21.5176 26.4946C21.5176 27.0529 21.6235 27.4733 21.8354 27.7559C22.0474 28.0384 22.3641 28.1797 22.7856 28.1797C23.631 28.1797 24.0537 27.618 24.0537 26.4946C24.0537 25.369 23.6333 24.8062 22.7925 24.8062C22.3709 24.8062 22.0531 24.9486 21.8389 25.2334C21.6247 25.516 21.5176 25.9364 21.5176 26.4946ZM30.2676 24.0029V27.2363C30.2676 27.6055 30.1844 27.929 30.0181 28.207C29.854 28.485 29.6159 28.6981 29.3037 28.8462C28.9915 28.9943 28.6224 29.0684 28.1963 29.0684C27.5537 29.0684 27.0547 28.9043 26.6992 28.5762C26.3438 28.2458 26.166 27.7946 26.166 27.2227V24.0029H27.2222V27.062C27.2222 27.4471 27.2996 27.7297 27.4546 27.9097C27.6095 28.0897 27.8659 28.1797 28.2236 28.1797C28.57 28.1797 28.8206 28.0897 28.9756 27.9097C29.1328 27.7274 29.2114 27.4425 29.2114 27.0552V24.0029H30.2676ZM32.5508 26.2212H32.8926C33.2275 26.2212 33.4748 26.1654 33.6343 26.0537C33.7938 25.9421 33.8735 25.7666 33.8735 25.5273C33.8735 25.2904 33.7915 25.1217 33.6274 25.0215C33.4657 24.9212 33.2139 24.8711 32.8721 24.8711H32.5508V26.2212ZM32.5508 27.0825V29H31.4912V24.0029H32.9473C33.6263 24.0029 34.1287 24.1271 34.4546 24.3755C34.7804 24.6216 34.9434 24.9964 34.9434 25.5C34.9434 25.7939 34.8625 26.056 34.7007 26.2861C34.5389 26.514 34.3099 26.6929 34.0137 26.8228C34.7656 27.9461 35.2555 28.6719 35.4834 29H34.3076L33.1147 27.0825H32.5508ZM40.9897 29L40.6274 27.8105H38.8057L38.4434 29H37.3018L39.0654 23.9824H40.3608L42.1313 29H40.9897ZM40.3745 26.9219C40.0396 25.8441 39.8504 25.2345 39.8071 25.0933C39.7661 24.952 39.7365 24.8403 39.7183 24.7583C39.6431 25.05 39.4277 25.7712 39.0723 26.9219H40.3745ZM42.7637 29V24.0029H43.8232V28.125H45.8501V29H42.7637ZM50.7891 24.0029V27.2363C50.7891 27.6055 50.7059 27.929 50.5396 28.207C50.3755 28.485 50.1374 28.6981 49.8252 28.8462C49.513 28.9943 49.1439 29.0684 48.7178 29.0684C48.0752 29.0684 47.5762 28.9043 47.2207 28.5762C46.8652 28.2458 46.6875 27.7946 46.6875 27.2227V24.0029H47.7437V27.062C47.7437 27.4471 47.8211 27.7297 47.9761 27.9097C48.131 28.0897 48.3874 28.1797 48.7451 28.1797C49.0915 28.1797 49.3421 28.0897 49.4971 27.9097C49.6543 27.7274 49.7329 27.4425 49.7329 27.0552V24.0029H50.7891ZM54.1284 29L52.9253 25.0796H52.8945C52.9378 25.8771 52.9595 26.4092 52.9595 26.6758V29H52.0127V24.0029H53.4551L54.6377 27.8242H54.6582L55.9126 24.0029H57.355V29H56.3672V26.6348C56.3672 26.5231 56.3683 26.3944 56.3706 26.2485C56.3752 26.1027 56.3911 25.7153 56.4185 25.0864H56.3877L55.0991 29H54.1284ZM63.0493 29H61.7026L59.5288 25.2197H59.498C59.5413 25.8874 59.563 26.3636 59.563 26.6484V29H58.6162V24.0029H59.9526L62.123 27.7456H62.147C62.1128 27.0962 62.0957 26.637 62.0957 26.3682V24.0029H63.0493V29ZM64.3105 29V24.0029H65.3701V29H64.3105ZM25.4961 37H24.2896L23.6128 34.375C23.5877 34.2816 23.5444 34.089 23.4829 33.7974C23.4237 33.5034 23.3895 33.3063 23.3804 33.2061C23.3667 33.3291 23.3325 33.5273 23.2778 33.8008C23.2231 34.0719 23.181 34.2656 23.1514 34.3818L22.478 37H21.2749L20 32.0029H21.0425L21.6816 34.7305C21.7933 35.234 21.8742 35.6704 21.9243 36.0396C21.938 35.9097 21.9688 35.7091 22.0166 35.438C22.0667 35.1646 22.1134 34.9526 22.1567 34.8022L22.8848 32.0029H23.8862L24.6143 34.8022C24.6462 34.9276 24.686 35.119 24.7339 35.3765C24.7817 35.634 24.8182 35.855 24.8433 36.0396C24.866 35.8618 24.9025 35.6408 24.9526 35.3765C25.0028 35.1099 25.0483 34.8945 25.0894 34.7305L25.7251 32.0029H26.7676L25.4961 37ZM31.9321 34.4946C31.9321 35.3218 31.7271 35.9575 31.3169 36.4019C30.9067 36.8462 30.3188 37.0684 29.5532 37.0684C28.7876 37.0684 28.1997 36.8462 27.7896 36.4019C27.3794 35.9575 27.1743 35.3195 27.1743 34.4878C27.1743 33.6561 27.3794 33.0215 27.7896 32.584C28.202 32.1442 28.7922 31.9243 29.5601 31.9243C30.328 31.9243 30.9147 32.1453 31.3203 32.5874C31.7282 33.0295 31.9321 33.6652 31.9321 34.4946ZM28.2852 34.4946C28.2852 35.0529 28.3911 35.4733 28.603 35.7559C28.8149 36.0384 29.1317 36.1797 29.5532 36.1797C30.3986 36.1797 30.8213 35.618 30.8213 34.4946C30.8213 33.369 30.4009 32.8062 29.5601 32.8062C29.1385 32.8062 28.8206 32.9486 28.6064 33.2334C28.3923 33.516 28.2852 33.9364 28.2852 34.4946ZM34.0273 34.2212H34.3691C34.7041 34.2212 34.9513 34.1654 35.1108 34.0537C35.2703 33.9421 35.3501 33.7666 35.3501 33.5273C35.3501 33.2904 35.2681 33.1217 35.104 33.0215C34.9422 32.9212 34.6904 32.8711 34.3486 32.8711H34.0273V34.2212ZM34.0273 35.0825V37H32.9678V32.0029H34.4238C35.1029 32.0029 35.6053 32.1271 35.9312 32.3755C36.257 32.6216 36.4199 32.9964 36.4199 33.5C36.4199 33.7939 36.339 34.056 36.1772 34.2861C36.0155 34.514 35.7865 34.6929 35.4902 34.8228C36.2422 35.9461 36.7321 36.6719 36.96 37H35.7842L34.5913 35.0825H34.0273ZM41.6084 37H40.4053L39.0962 34.8945L38.6484 35.2158V37H37.5889V32.0029H38.6484V34.2896L39.0654 33.7017L40.4189 32.0029H41.5947L39.8516 34.2144L41.6084 37ZM47.1147 37L46.7524 35.8105H44.9307L44.5684 37H43.4268L45.1904 31.9824H46.4858L48.2563 37H47.1147ZM46.4995 34.9219C46.1646 33.8441 45.9754 33.2345 45.9321 33.0933C45.8911 32.952 45.8615 32.8403 45.8433 32.7583C45.7681 33.05 45.5527 33.7712 45.1973 34.9219H46.4995ZM50.8164 37H49.7568V32.8848H48.3999V32.0029H52.1733V32.8848H50.8164V37ZM52.7134 36.5112C52.7134 36.3198 52.7646 36.1751 52.8672 36.0771C52.9697 35.9792 53.119 35.9302 53.3149 35.9302C53.5041 35.9302 53.6499 35.9803 53.7524 36.0806C53.8573 36.1808 53.9097 36.3244 53.9097 36.5112C53.9097 36.6912 53.8573 36.8337 53.7524 36.9385C53.6476 37.041 53.5018 37.0923 53.3149 37.0923C53.1235 37.0923 52.9754 37.0422 52.8706 36.9419C52.7658 36.8394 52.7134 36.6958 52.7134 36.5112ZM52.7134 33.688C52.7134 33.4966 52.7646 33.3519 52.8672 33.2539C52.9697 33.1559 53.119 33.1069 53.3149 33.1069C53.5041 33.1069 53.6499 33.1571 53.7524 33.2573C53.8573 33.3576 53.9097 33.5011 53.9097 33.688C53.9097 33.8726 53.8561 34.0161 53.749 34.1187C53.6442 34.2189 53.4995 34.269 53.3149 34.269C53.1235 34.269 52.9754 34.2189 52.8706 34.1187C52.7658 34.0184 52.7134 33.8748 52.7134 33.688Z" fill="#C7B08C"/>
</svg>
