<svg width="14" height="15" viewBox="0 0 14 15" fill="none" xmlns="http://www.w3.org/2000/svg">
<path d="M11.6873 2.24175H10.9935V0.825989H9.6058V2.24175H4.05512V0.825989H2.66744V2.24175H1.97361C1.60558 2.24175 1.25262 2.39091 0.992377 2.65642C0.732138 2.92192 0.585938 3.28203 0.585938 3.65751V12.86C0.585938 13.2354 0.732138 13.5956 0.992377 13.8611C1.25262 14.1266 1.60558 14.2757 1.97361 14.2757H11.6873C12.0553 14.2757 12.4083 14.1266 12.6685 13.8611C12.9288 13.5956 13.075 13.2354 13.075 12.86V3.65751C13.075 3.28203 12.9288 2.92192 12.6685 2.65642C12.4083 2.39091 12.0553 2.24175 11.6873 2.24175ZM11.6873 12.86H1.97361V5.07328H11.6873V12.86Z" fill="#35475C"/>
</svg>
