<svg width="76" height="76" viewBox="0 0 76 76" fill="none" xmlns="http://www.w3.org/2000/svg">
<path d="M2 63.228H73.7" stroke="#E6DECA" stroke-width="2.65556" stroke-miterlimit="10"/>
<path d="M31.2109 73.9724H51.1276" stroke="#E6DECA" stroke-width="2.65556" stroke-miterlimit="10"/>
<path d="M55.1113 73.9724H57.7669" stroke="#E6DECA" stroke-width="2.65556" stroke-miterlimit="10"/>
<path d="M65.7335 52.4839H9.9668" stroke="#E6DECA" stroke-width="2.65556" stroke-miterlimit="10"/>
<path d="M57.7667 17.5647H63.0778C64.5436 17.5647 65.7333 18.7681 65.7333 20.2508V52.4837L73.7 63.228V65.9141C73.7 67.3968 72.5103 68.6002 71.0444 68.6002H4.65556C3.18969 68.6002 2 67.3968 2 65.9141V63.228L9.96667 52.4837V20.2508C9.96667 18.7681 11.1564 17.5647 12.6222 17.5647H17.9333" stroke="#E6DECA" stroke-width="2.65556" stroke-miterlimit="10"/>
<path d="M12.6221 57.856H20.5887" stroke="#E6DECA" stroke-width="2.65556" stroke-miterlimit="10"/>
<path d="M23.2446 57.856H31.2113" stroke="#E6DECA" stroke-width="2.65556" stroke-miterlimit="10"/>
<path d="M33.8667 57.856H41.8334" stroke="#E6DECA" stroke-width="2.65556" stroke-miterlimit="10"/>
<path d="M44.4888 57.856H52.4554" stroke="#E6DECA" stroke-width="2.65556" stroke-miterlimit="10"/>
<path d="M55.1113 57.856H63.078" stroke="#E6DECA" stroke-width="2.65556" stroke-miterlimit="10"/>
<path d="M28.5557 40.3962V13.5354C28.5557 12.7927 29.1492 12.1924 29.8834 12.1924H56.439C57.1733 12.1924 57.7668 12.7927 57.7668 13.5354V45.7684" stroke="#E6DECA" stroke-width="2.65556" stroke-miterlimit="10"/>
<path d="M23.2446 35.0241V8.16335C23.2446 7.42065 23.8381 6.82031 24.5724 6.82031H51.128C51.8622 6.82031 52.4557 7.42065 52.4557 8.16335V12.1925" stroke="#E6DECA" stroke-width="2.65556" stroke-miterlimit="10"/>
<path d="M17.9336 32.3382V2.79128C17.9336 2.04858 18.5271 1.44824 19.2614 1.44824H45.8169C46.5512 1.44824 47.1447 2.04858 47.1447 2.79128V6.8204" stroke="#E6DECA" stroke-width="2.65556" stroke-miterlimit="10"/>
<path d="M28.5557 43.0825V45.7686" stroke="#E6DECA" stroke-width="2.65556" stroke-miterlimit="10"/>
<path d="M23.2446 37.7102V40.3963" stroke="#E6DECA" stroke-width="2.65556" stroke-miterlimit="10"/>
<path d="M48.4722 17.5647H53.7833" stroke="#E6DECA" stroke-width="2.65556" stroke-miterlimit="10"/>
<path d="M48.4722 22.9368H53.7833" stroke="#E6DECA" stroke-width="2.65556" stroke-miterlimit="10"/>
<path d="M33.8667 40.3964V39.0533C33.8667 36.0865 36.2447 33.6812 39.1778 33.6812H41.8334C44.7664 33.6812 47.1445 36.0865 47.1445 39.0533V40.3964" stroke="#E6DECA" stroke-width="2.65556" stroke-miterlimit="10"/>
<path d="M40.5058 28.309C38.3057 28.309 36.5225 26.5053 36.5225 24.2799V21.5938C36.5225 19.3684 38.473 17.5647 40.5058 17.5647C42.7046 17.5647 44.4891 19.3684 44.4891 21.5938V24.2799C44.4891 26.5053 42.6223 28.309 40.5058 28.309Z" stroke="#E6DECA" stroke-width="2.65556" stroke-miterlimit="10"/>
</svg>
