<svg width="25" height="24" viewBox="0 0 25 24" fill="none" xmlns="http://www.w3.org/2000/svg">
<path fill-rule="evenodd" clip-rule="evenodd" d="M24.3822 12.2302C24.3822 15.3391 23.1472 18.3207 20.9488 20.5191C18.7504 22.7175 15.7688 23.9525 12.6598 23.9525C9.55089 23.9525 6.56926 22.7175 4.3709 20.5191C2.17253 18.3207 0.9375 15.3391 0.9375 12.2302C0.9375 9.1212 2.17253 6.13958 4.3709 3.94121C6.56926 1.74284 9.55089 0.507813 12.6598 0.507812C15.7688 0.507813 18.7504 1.74284 20.9488 3.94121C23.1472 6.13958 24.3822 9.1212 24.3822 12.2302ZM12.6598 5.63634C12.6598 5.44203 12.5827 5.25568 12.4453 5.11828C12.3079 4.98088 12.1215 4.90369 11.9272 4.90369C11.7329 4.90369 11.5465 4.98088 11.4091 5.11828C11.2717 5.25568 11.1946 5.44203 11.1946 5.63634V13.6955C11.1946 13.8246 11.2288 13.9514 11.2936 14.0631C11.3585 14.1748 11.4517 14.2673 11.5638 14.3314L16.6923 17.262C16.8606 17.3529 17.0578 17.3745 17.2418 17.3219C17.4258 17.2694 17.5819 17.147 17.6768 16.9809C17.7717 16.8148 17.7979 16.6182 17.7497 16.433C17.7016 16.2479 17.5829 16.0889 17.4191 15.9901L12.6598 13.2705V5.63634Z" fill="#E6DECA"/>
</svg>
