<svg width="80" height="81" viewBox="0 0 80 81" fill="none" xmlns="http://www.w3.org/2000/svg">
<g clip-path="url(#clip0_1_3475)">
<path d="M15.9331 23.2496V16.1355" stroke="#E6DECA" stroke-width="2.65556" stroke-miterlimit="10"/>
<path d="M22.5723 18.5165C19.6724 18.5165 17.463 17.5092 15.9294 16.1353C14.1542 14.5464 13.2792 12.4674 13.2778 10.8826C13.2765 9.64031 13.4332 7.50219 14.6933 4.44678C16.6902 6.04499 18.1242 7.11808 21.3667 7.11808H26.5556C30.9545 7.11808 34.5223 11.0398 34.5223 15.7028V24.5776C34.5223 30.0169 30.361 33.9789 25.2278 33.9789C20.0947 33.9789 15.9334 30.0169 15.9334 24.5776V21.9063" stroke="#E6DECA" stroke-width="2.65556" stroke-miterlimit="10"/>
<path d="M13.2778 67.5694V58.1533" stroke="#E6DECA" stroke-width="2.65556" stroke-miterlimit="10"/>
<path d="M19.5503 39.1802L25.2279 42.0516L30.9041 39.1802" stroke="#E6DECA" stroke-width="2.65556" stroke-miterlimit="10"/>
<path d="M25.228 42.0522L21.2446 47.4244L12.5981 41.5942" stroke="#E6DECA" stroke-width="2.65556" stroke-miterlimit="10"/>
<path d="M25.2275 42.0519L29.2109 47.4241L36.8151 41.2703" stroke="#E6DECA" stroke-width="2.65556" stroke-miterlimit="10"/>
<path d="M19.9165 32.3608V38.144C19.9165 38.8692 19.4465 39.5085 18.7587 39.7167L12.951 41.4787C9.06061 42.6593 6.13021 45.9014 5.29238 49.9224C1.6224 67.5471 1.32764 68.0575 1.32764 69.4784C1.32764 72.7313 3.9022 75.6134 7.27874 75.6134H26.5554C28.7555 75.6134 30.5387 73.8245 30.5387 71.5991C30.5387 69.3737 28.7555 67.57 26.5554 67.57H7.96653" stroke="#E6DECA" stroke-width="2.65556" stroke-miterlimit="10"/>
<path d="M44.9508 57.6248L43.7664 46.918C43.6562 46.0424 43.2817 45.254 42.7095 44.647C41.3724 43.0958 39.4617 42.0724 37.5046 41.4787L33.7138 40.3277L31.6982 39.7167C31.0091 39.5085 30.5391 38.8692 30.5391 38.144V32.3608" stroke="#E6DECA" stroke-width="2.65556" stroke-miterlimit="10"/>
<path d="M36.563 54.1393L38.552 72.0514C38.7764 74.062 40.4428 75.6132 42.4889 75.6132C44.0477 75.6132 45.3821 74.7147 46.0367 73.3958L57.9893 49.2171C58.2576 48.6745 58.4222 48.0715 58.4222 47.4241C58.4222 45.1987 56.639 43.395 54.4389 43.395C52.8787 43.395 51.5417 44.311 50.8884 45.6325L42.129 63.1337" stroke="#E6DECA" stroke-width="2.65556" stroke-miterlimit="10"/>
<path d="M54.439 43.3799V27.2634C54.439 26.5221 55.0338 25.9204 55.7667 25.9204H77.0112C77.7441 25.9204 78.339 26.5221 78.339 27.2634V58.1534C78.339 58.8947 77.7441 59.4964 77.0112 59.4964H55.7667C55.0338 59.4964 54.439 58.8947 54.439 58.1534V56.398" stroke="#E6DECA" stroke-width="2.65556" stroke-miterlimit="10"/>
<path d="M70.3722 33.9786C71.1055 33.9786 71.7 33.3773 71.7 32.6355C71.7 31.8938 71.1055 31.2925 70.3722 31.2925C69.6389 31.2925 69.0444 31.8938 69.0444 32.6355C69.0444 33.3773 69.6389 33.9786 70.3722 33.9786Z" stroke="#E6DECA" stroke-width="2.65556" stroke-miterlimit="10"/>
<path d="M67.7168 44.723V42.0369C67.7168 40.5596 68.9118 39.3508 70.3724 39.3508C71.8329 39.3508 73.0279 40.5596 73.0279 42.0369V44.723" stroke="#E6DECA" stroke-width="2.65556" stroke-miterlimit="10"/>
<path d="M58.4224 31.2925H63.7335" stroke="#E6DECA" stroke-width="2.65556" stroke-miterlimit="10"/>
<path d="M58.4224 36.6646H63.7335" stroke="#E6DECA" stroke-width="2.65556" stroke-miterlimit="10"/>
<path d="M62.4058 48.752H69.0447" stroke="#E6DECA" stroke-width="2.65556" stroke-miterlimit="10"/>
<path d="M71.7002 48.752H74.3558" stroke="#E6DECA" stroke-width="2.65556" stroke-miterlimit="10"/>
<path d="M66.3887 17.8621V12.49" stroke="#E6DECA" stroke-width="2.65556" stroke-miterlimit="10"/>
<path d="M57.7994 19.9187L53.7603 15.8345" stroke="#E6DECA" stroke-width="2.65556" stroke-miterlimit="10"/>
<path d="M73.6504 19.9187L77.6882 15.8345" stroke="#E6DECA" stroke-width="2.65556" stroke-miterlimit="10"/>
<path d="M0 75.6128H65.0611" stroke="#E6DECA" stroke-width="2.65556" stroke-miterlimit="10"/>
<path d="M67.7168 75.6128H70.3724" stroke="#E6DECA" stroke-width="2.65556" stroke-miterlimit="10"/>
<path d="M73.0278 75.6128H75.6834" stroke="#E6DECA" stroke-width="2.65556" stroke-miterlimit="10"/>
</g>
<defs>
<clipPath id="clip0_1_3475">
<rect width="79.6667" height="80.5824" fill="white" transform="translate(0 0.402344)"/>
</clipPath>
</defs>
</svg>
