<svg width="32" height="25" viewBox="0 0 32 25" fill="none" xmlns="http://www.w3.org/2000/svg">
<path d="M5.13623 10.7353C6.8631 10.7353 8.2671 9.19785 8.2671 7.3068C8.2671 5.41574 6.8631 3.87825 5.13623 3.87825C3.40937 3.87825 2.00537 5.41574 2.00537 7.3068C2.00537 9.19785 3.40937 10.7353 5.13623 10.7353ZM27.0523 10.7353C28.7791 10.7353 30.1831 9.19785 30.1831 7.3068C30.1831 5.41574 28.7791 3.87825 27.0523 3.87825C25.3254 3.87825 23.9214 5.41574 23.9214 7.3068C23.9214 9.19785 25.3254 10.7353 27.0523 10.7353ZM28.6177 12.4496H25.4868C24.6258 12.4496 23.848 12.83 23.2806 13.446C25.252 14.63 26.6511 16.7674 26.9544 19.3067H30.1831C31.049 19.3067 31.7486 18.5406 31.7486 17.5924V15.8782C31.7486 13.9871 30.3446 12.4496 28.6177 12.4496ZM16.0942 12.4496C19.1224 12.4496 21.5733 9.76571 21.5733 6.44966C21.5733 3.13361 19.1224 0.449707 16.0942 0.449707C13.0661 0.449707 10.6152 3.13361 10.6152 6.44966C10.6152 9.76571 13.0661 12.4496 16.0942 12.4496ZM19.8513 14.1639H19.4453C18.4277 14.6996 17.2977 15.021 16.0942 15.021C14.8908 15.021 13.7657 14.6996 12.7432 14.1639H12.3372C9.22592 14.1639 6.70166 16.9282 6.70166 20.3353V21.8781C6.70166 23.2977 7.75344 24.4495 9.04981 24.4495H23.1387C24.4351 24.4495 25.4868 23.2977 25.4868 21.8781V20.3353C25.4868 16.9282 22.9626 14.1639 19.8513 14.1639ZM8.90794 13.446C8.34048 12.83 7.56265 12.4496 6.70166 12.4496H3.5708C1.84394 12.4496 0.439941 13.9871 0.439941 15.8782V17.5924C0.439941 18.5406 1.13949 19.3067 2.00537 19.3067H5.22918C5.53738 16.7674 6.93648 14.63 8.90794 13.446Z" fill="#E6DECA"/>
</svg>
