<svg width="11" height="16" viewBox="0 0 11 16" fill="none" xmlns="http://www.w3.org/2000/svg">
<path d="M5.51289 0.825989C2.72447 0.825989 0.469238 3.08122 0.469238 5.86964C0.469238 9.65238 5.51289 15.2364 5.51289 15.2364C5.51289 15.2364 10.5565 9.65238 10.5565 5.86964C10.5565 3.08122 8.30131 0.825989 5.51289 0.825989ZM1.91028 5.86964C1.91028 3.881 3.52425 2.26703 5.51289 2.26703C7.50153 2.26703 9.1155 3.881 9.1155 5.86964C9.1155 7.94474 7.0404 11.0502 5.51289 12.9884C4.01421 11.0646 1.91028 7.92313 1.91028 5.86964Z" fill="#35475C"/>
<path d="M5.51322 7.67088C6.50805 7.67088 7.31452 6.8644 7.31452 5.86957C7.31452 4.87474 6.50805 4.06827 5.51322 4.06827C4.51839 4.06827 3.71191 4.87474 3.71191 5.86957C3.71191 6.8644 4.51839 7.67088 5.51322 7.67088Z" fill="#35475C"/>
</svg>
