<svg width="80" height="81" viewBox="0 0 80 81" fill="none" xmlns="http://www.w3.org/2000/svg">
<path d="M49.1279 36.6644V30.2366" stroke="#E6DECA" stroke-width="2.65556" stroke-miterlimit="10"/>
<path d="M53.1111 31.2924C47.7721 31.2924 46.4722 27.3197 46.4722 24.5772C46.4722 21.8911 47.7999 20.5481 47.7999 20.5481C47.7999 20.5481 51.6731 23.2342 54.4388 23.2342H59.0701C62.3789 23.2342 65.0611 25.9471 65.0611 29.294V36.9103C65.0611 41.1772 61.7682 44.7242 57.0944 44.7228C52.6955 44.7228 49.1277 41.1141 49.1277 36.6646V35.3215" stroke="#E6DECA" stroke-width="2.65556" stroke-miterlimit="10"/>
<path d="M61.0776 43.7358V48.7521L68.1056 52.3058C70.3083 53.4218 71.6999 55.6983 71.6999 58.1869V78.299" stroke="#E6DECA" stroke-width="2.65556" stroke-miterlimit="10"/>
<path d="M47.8516 60.1636L44.252 64.6963C43.5204 65.6136 42.4157 66.2113 41.161 66.2113C39.8119 66.2113 38.6236 65.529 37.9026 64.4908L28.6055 51.0564C27.8181 49.9188 27.5844 48.3623 28.3612 46.7667C28.6865 46.1006 29.2282 45.5405 29.8881 45.2115C31.9807 44.1679 34.0255 44.9066 35.0917 46.4055L41.477 55.3528L43.4129 52.9165C43.8816 52.3417 44.499 51.9065 45.212 51.6648C45.2996 51.603 53.0114 48.788 53.111 48.7517V43.6428" stroke="#E6DECA" stroke-width="2.65556" stroke-miterlimit="10"/>
<path d="M61.0775 48.752C61.0775 50.2347 59.2943 51.438 57.0942 51.438C54.894 51.438 53.1108 50.2347 53.1108 48.752" stroke="#E6DECA" stroke-width="2.65556" stroke-miterlimit="10"/>
<path d="M46.4722 61.9004V78.2989" stroke="#E6DECA" stroke-width="2.65556" stroke-miterlimit="10"/>
<path d="M65.061 59.4963V78.2989" stroke="#E6DECA" stroke-width="2.65556" stroke-miterlimit="10"/>
<path d="M63.7334 7.11768H69.6925C70.0682 7.11768 70.3723 7.42523 70.3723 7.80531V47.4089" stroke="#E6DECA" stroke-width="2.65556" stroke-miterlimit="10"/>
<path d="M58.4224 7.11768H61.0739" stroke="#E6DECA" stroke-width="2.65556" stroke-miterlimit="10"/>
<path d="M7.9668 52.781V7.80531C7.9668 7.42523 8.27086 7.11768 8.64662 7.11768H55.7655" stroke="#E6DECA" stroke-width="2.65556" stroke-miterlimit="10"/>
<path d="M13.2778 19.2051H27.8834" stroke="#E6DECA" stroke-width="2.65556" stroke-miterlimit="10"/>
<path d="M30.5386 19.2051H33.1941" stroke="#E6DECA" stroke-width="2.65556" stroke-miterlimit="10"/>
<path d="M13.2778 28.6062H42.4889" stroke="#E6DECA" stroke-width="2.65556" stroke-miterlimit="10"/>
<path d="M27.8833 58.1532H5.99086C5.6151 58.1532 5.31104 57.8456 5.31104 57.4655V53.4673C5.31104 53.0886 5.6151 52.781 5.99086 52.781H25.2277" stroke="#E6DECA" stroke-width="2.65556" stroke-miterlimit="10"/>
<path d="M30.5389 63.5254H27.8833V66.2115H30.5389V63.5254Z" fill="#E6DECA"/>
<path d="M25.2278 63.5254H22.5723V66.2115H25.2278V63.5254Z" fill="#E6DECA"/>
<path d="M19.9168 63.5254H17.2612V66.2115H19.9168V63.5254Z" fill="#E6DECA"/>
<path d="M14.6058 71.5835H11.9502V74.2696H14.6058V71.5835Z" fill="#E6DECA"/>
<path d="M9.29423 71.5835H6.63867V74.2696H9.29423V71.5835Z" fill="#E6DECA"/>
</svg>
