<svg width="19" height="27" viewBox="0 0 19 27" fill="none" xmlns="http://www.w3.org/2000/svg">
<path d="M18.741 11.5587H11.5013C10.8429 11.5587 10.2116 11.2714 9.74608 10.7599C9.28058 10.2485 9.01907 9.55481 9.01907 8.83151V0.877169C9.01907 0.816894 8.99727 0.759088 8.95848 0.716467C8.91969 0.673847 8.86708 0.649902 8.81222 0.649902H4.0547C3.17694 0.649902 2.33514 1.03301 1.71447 1.71494C1.0938 2.39687 0.745117 3.32177 0.745117 4.28617V22.4675C0.745117 23.4319 1.0938 24.3568 1.71447 25.0388C2.33514 25.7207 3.17694 26.1038 4.0547 26.1038H15.6382C16.516 26.1038 17.3578 25.7207 17.9784 25.0388C18.5991 24.3568 18.9478 23.4319 18.9478 22.4675V11.786C18.9478 11.7257 18.926 11.6679 18.8872 11.6253C18.8484 11.5827 18.7958 11.5587 18.741 11.5587ZM13.9834 20.6494H5.70949C5.49005 20.6494 5.2796 20.5536 5.12443 20.3831C4.96926 20.2126 4.88209 19.9814 4.88209 19.7403C4.88209 19.4992 4.96926 19.268 5.12443 19.0975C5.2796 18.927 5.49005 18.8313 5.70949 18.8313H13.9834C14.2029 18.8313 14.4133 18.927 14.5685 19.0975C14.7237 19.268 14.8108 19.4992 14.8108 19.7403C14.8108 19.9814 14.7237 20.2126 14.5685 20.3831C14.4133 20.5536 14.2029 20.6494 13.9834 20.6494ZM13.9834 16.1041H5.70949C5.49005 16.1041 5.2796 16.0083 5.12443 15.8378C4.96926 15.6673 4.88209 15.4361 4.88209 15.195C4.88209 14.9539 4.96926 14.7227 5.12443 14.5522C5.2796 14.3817 5.49005 14.2859 5.70949 14.2859H13.9834C14.2029 14.2859 14.4133 14.3817 14.5685 14.5522C14.7237 14.7227 14.8108 14.9539 14.8108 15.195C14.8108 15.4361 14.7237 15.6673 14.5685 15.8378C14.4133 16.0083 14.2029 16.1041 13.9834 16.1041Z" fill="#E6DECA"/>
<path d="M18.2869 9.54686L10.8502 1.37606C10.8357 1.36027 10.8173 1.34952 10.7973 1.34518C10.7773 1.34083 10.7566 1.34308 10.7377 1.35164C10.7189 1.3602 10.7028 1.37469 10.6914 1.39329C10.68 1.41189 10.6739 1.43377 10.6738 1.45617V8.83154C10.6738 9.07264 10.761 9.30386 10.9162 9.47435C11.0713 9.64483 11.2818 9.74061 11.5012 9.74061H18.214C18.2344 9.74051 18.2543 9.7338 18.2712 9.7213C18.2881 9.70881 18.3013 9.6911 18.3091 9.67039C18.3169 9.64969 18.3189 9.62692 18.315 9.60494C18.311 9.58296 18.3013 9.56275 18.2869 9.54686Z" fill="#E6DECA"/>
</svg>
