<svg width="21" height="20" viewBox="0 0 21 20" fill="none" xmlns="http://www.w3.org/2000/svg">
<path d="M17.6637 19.9231H2.72134C2.03389 19.9231 1.44697 19.6799 0.960562 19.1935C0.474159 18.7071 0.230957 18.1201 0.230957 17.4327V2.49038C0.230957 1.80293 0.474159 1.21601 0.960562 0.729605C1.44697 0.243202 2.03389 0 2.72134 0H17.6637C18.3511 0 18.938 0.243202 19.4244 0.729605C19.9108 1.21601 20.154 1.80293 20.154 2.49038V17.4327C20.154 18.1201 19.9108 18.7071 19.4244 19.1935C18.938 19.6799 18.3511 19.9231 17.6637 19.9231ZM15.1733 9.33894C15.1733 7.79542 14.6869 6.47565 13.7141 5.37962C12.7412 4.28359 11.5674 3.73558 10.1925 3.73558C8.8176 3.73558 7.64374 4.28359 6.67094 5.37962C5.69813 6.47565 5.21173 7.79542 5.21173 9.33894C5.21173 10.8825 5.69813 12.2022 6.67094 13.2983C7.64374 14.3943 8.8176 14.9423 10.1925 14.9423C11.0097 14.9423 11.7749 14.7283 12.4883 14.3003C12.7607 14.4818 13.0979 14.6343 13.5 14.7575C13.9021 14.8807 14.2523 14.9423 14.5507 14.9423C14.7193 14.9423 14.8652 14.8807 14.9884 14.7575C15.1117 14.6343 15.1733 14.4883 15.1733 14.3197C15.1733 14.1511 15.1117 14.0052 14.9884 13.8819C14.8652 13.7587 14.7193 13.6971 14.5507 13.6971C14.2394 13.6971 13.954 13.5739 13.6946 13.3274C14.6804 12.2249 15.1733 10.8954 15.1733 9.33894ZM10.8151 11.2067C10.6465 11.2067 10.5006 11.2683 10.3773 11.3916C10.2541 11.5148 10.1925 11.6607 10.1925 11.8293C10.1925 11.9979 10.2541 12.1439 10.3773 12.2671C10.5006 12.3903 10.6465 12.4519 10.8151 12.4519C11.1264 12.4519 11.4117 12.5751 11.6712 12.8216C11.2302 13.4053 10.7373 13.6971 10.1925 13.6971C9.50505 13.6971 8.91812 13.2723 8.43172 12.4227C7.94531 11.5732 7.70211 10.5452 7.70211 9.33894C7.70211 8.13266 7.94531 7.10473 8.43172 6.25515C8.91812 5.40556 9.50505 4.98077 10.1925 4.98077C10.8799 4.98077 11.4669 5.40556 11.9533 6.25515C12.4397 7.10473 12.6829 8.13266 12.6829 9.33894C12.6829 10.1172 12.5661 10.8565 12.3327 11.5569C11.7879 11.3235 11.282 11.2067 10.8151 11.2067Z" fill="#35475C"/>
</svg>
