<svg width="80" height="81" viewBox="0 0 80 81" fill="none" xmlns="http://www.w3.org/2000/svg">
<path d="M55.7667 70.2407H6.63895C5.17176 70.2407 3.9834 69.0387 3.9834 67.5546V13.8331C3.9834 12.349 5.17176 11.147 6.63895 11.147H73.0278C74.495 11.147 75.6834 12.349 75.6834 13.8331V67.5546C75.6834 69.0387 74.495 70.2407 73.0278 70.2407H63.7334" stroke="#E6DECA" stroke-width="2.65556" stroke-miterlimit="10"/>
<path d="M10.6221 5.7749H38.5054" stroke="#E6DECA" stroke-width="2.65556" stroke-miterlimit="10"/>
<path d="M41.1611 5.7749H43.8167" stroke="#E6DECA" stroke-width="2.65556" stroke-miterlimit="10"/>
<path d="M46.4722 5.7749H49.1277" stroke="#E6DECA" stroke-width="2.65556" stroke-miterlimit="10"/>
<path d="M39.8335 75.613H42.4891" stroke="#E6DECA" stroke-width="2.65556" stroke-miterlimit="10"/>
<path d="M45.1445 75.613H69.0445" stroke="#E6DECA" stroke-width="2.65556" stroke-miterlimit="10"/>
<path d="M61.0779 70.2407H58.4224" stroke="#E6DECA" stroke-width="2.65556" stroke-miterlimit="10"/>
<path d="M19.9165 66.2118V58.1536" stroke="#E6DECA" stroke-width="2.65556" stroke-miterlimit="10"/>
<path d="M19.9168 62.1826H7.9668" stroke="#E6DECA" stroke-width="2.65556" stroke-miterlimit="10"/>
<path d="M23.8999 62.1826H71.6999" stroke="#E6DECA" stroke-width="2.65556" stroke-miterlimit="10"/>
<path d="M10.6224 21.8911H7.9668V24.5772H10.6224V21.8911Z" fill="#E6DECA"/>
<path d="M10.6224 27.2632H7.9668V29.9493H10.6224V27.2632Z" fill="#E6DECA"/>
<path d="M10.6224 32.6355H7.9668V35.3216H10.6224V32.6355Z" fill="#E6DECA"/>
<path d="M10.6224 38.0076H7.9668V40.6936H10.6224V38.0076Z" fill="#E6DECA"/>
<path d="M10.6224 43.3799H7.9668V46.066H10.6224V43.3799Z" fill="#E6DECA"/>
<path d="M25.2275 56.8103V48.752C25.2275 45.7853 27.6056 43.3799 30.5387 43.3799H41.1609C44.0939 43.3799 46.472 45.7853 46.472 48.752V56.8103" stroke="#E6DECA" stroke-width="2.65556" stroke-miterlimit="10"/>
<path d="M66.3887 28.6064H59.4604L52.8387 33.8375C52.4098 34.176 51.7831 33.8671 51.7831 33.3164V28.6064H49.1276C48.3946 28.6064 47.7998 28.0047 47.7998 27.2634V17.8621C47.7998 17.1207 48.3946 16.519 49.1276 16.519H66.3887C67.1216 16.519 67.7165 17.1207 67.7165 17.8621V27.2634C67.7165 28.0047 67.1216 28.6064 66.3887 28.6064V28.6064Z" stroke="#E6DECA" stroke-width="2.65556" stroke-miterlimit="10"/>
<path d="M35.8498 38.0076C32.1838 38.0076 29.2109 35.0005 29.2109 31.2924V28.6063C29.2109 24.8982 32.1838 21.8911 35.8498 21.8911C39.5158 21.8911 42.4887 24.8982 42.4887 28.6063V31.2924C42.4887 35.0005 39.5158 38.0076 35.8498 38.0076Z" stroke="#E6DECA" stroke-width="2.65556" stroke-miterlimit="10"/>
</svg>
