<svg width="15" height="15" viewBox="0 0 15 15" fill="none" xmlns="http://www.w3.org/2000/svg">
<path d="M14.1742 5.40153L9.80504 4.77815L7.85192 0.890923C7.79858 0.784493 7.71082 0.698336 7.60241 0.645965C7.33052 0.514195 7.00012 0.624004 6.86418 0.890923L4.91106 4.77815L0.541931 5.40153C0.421475 5.41842 0.311343 5.47417 0.227023 5.55864C0.125086 5.6615 0.0689132 5.79988 0.0708492 5.94338C0.0727852 6.08688 0.132671 6.22375 0.237348 6.32392L3.39847 9.34957L2.65164 13.622C2.63413 13.7214 2.64533 13.8236 2.68398 13.917C2.72263 14.0105 2.78717 14.0914 2.8703 14.1507C2.95343 14.21 3.05181 14.2452 3.15429 14.2524C3.25677 14.2595 3.35924 14.2384 3.4501 14.1913L7.35805 12.1742L11.266 14.1913C11.3727 14.247 11.4966 14.2656 11.6153 14.2454C11.9148 14.1947 12.1161 13.9159 12.0645 13.622L11.3176 9.34957L14.4788 6.32392C14.5648 6.24114 14.6216 6.13302 14.6388 6.01477C14.6853 5.71913 14.4753 5.44545 14.1742 5.40153Z" fill="#35475C"/>
</svg>
