<svg width="30" height="24" viewBox="0 0 30 24" fill="none" xmlns="http://www.w3.org/2000/svg">
<path d="M29.152 22.9573C29.152 23.2259 29.0626 23.4584 28.884 23.6547C28.7054 23.8509 28.4938 23.9491 28.2493 23.9491C28.0049 23.9491 27.7933 23.8509 27.6147 23.6547C27.436 23.4584 27.3467 23.2259 27.3467 22.9573V9.90984L17.3897 15.3954C16.6375 15.8086 15.7443 16.0152 14.71 16.0152C13.6758 16.0152 12.7825 15.8086 12.0304 15.3954L1.36814 9.53794C0.634757 9.12472 0.268066 8.63402 0.268066 8.06584C0.268066 7.49765 0.634757 7.01728 1.36814 6.62472L12.0304 0.767295C12.7825 0.354072 13.6758 0.147461 14.71 0.147461C15.7443 0.147461 16.6375 0.354072 17.3897 0.767295L28.0519 6.62472C28.6913 6.97596 29.0485 7.40984 29.1238 7.92637C29.1426 7.94703 29.152 7.98836 29.152 8.05034V22.9573ZM18.2923 17.3788L23.7362 14.3726V18.7425C23.7362 19.6309 22.8571 20.3902 21.0989 21.0204C19.3407 21.6505 17.211 21.9656 14.71 21.9656C12.209 21.9656 10.0794 21.6505 8.32115 21.0204C6.56291 20.3902 5.6838 19.6309 5.6838 18.7425V14.3726L11.1277 17.3788C11.8799 17.7921 13.074 17.9987 14.71 17.9987C16.346 17.9987 17.5401 17.7921 18.2923 17.3788Z" fill="#E6DECA"/>
</svg>
