<svg width="15" height="15" viewBox="0 0 15 15" fill="none" xmlns="http://www.w3.org/2000/svg">
<path d="M7.69163 12.8637C10.6976 12.8637 13.157 10.4043 13.157 7.39829C13.157 4.39232 10.6976 1.93288 7.69163 1.93288C4.68565 1.93288 2.22622 4.39232 2.22622 7.39829C2.22622 10.4043 4.68565 12.8637 7.69163 12.8637ZM7.69163 0.566528C11.4491 0.566528 14.5234 3.64082 14.5234 7.39829C14.5234 11.1558 11.4491 14.2301 7.69163 14.2301C3.93416 14.2301 0.859863 11.1558 0.859863 7.39829C0.859863 3.64082 3.93416 0.566528 7.69163 0.566528ZM11.1075 7.0567V8.08147H7.00845V3.98241H8.03322V7.0567H11.1075Z" fill="#35475C"/>
</svg>
