<svg width="46" height="46" viewBox="0 0 46 46" fill="none" xmlns="http://www.w3.org/2000/svg">
<path d="M0 3.14967C0 1.41016 1.41016 0 3.14967 0H46V46H3.14967C1.41015 46 0 44.5898 0 42.8503V3.14967Z" fill="#E6DECA"/>
<path d="M16.8915 15.3335H29.3562C30.1389 15.3343 30.8893 15.6356 31.4427 16.1712C31.9962 16.7069 32.3075 17.4331 32.3083 18.1906V25.8094C32.3075 26.5669 31.9962 27.2931 31.4427 27.8287C30.8893 28.3644 30.1389 28.6656 29.3562 28.6665H28.3721V31.2061C28.3722 31.3268 28.3366 31.445 28.2697 31.5469C28.2028 31.6488 28.1072 31.7301 27.9943 31.7813C27.8813 31.8325 27.7556 31.8514 27.6319 31.8359C27.5082 31.8204 27.3916 31.7711 27.2958 31.6938L23.5445 28.6665H16.8915C16.1088 28.6656 15.3584 28.3644 14.8049 27.8287C14.2515 27.2931 13.9402 26.5669 13.9393 25.8094V18.1906C13.9402 17.4331 14.2515 16.7069 14.8049 16.1712C15.3584 15.6356 16.1088 15.3343 16.8915 15.3335ZM27.0601 23.2698C27.3196 23.2698 27.5732 23.1953 27.789 23.0558C28.0048 22.9163 28.1729 22.718 28.2723 22.4859C28.3716 22.2539 28.3975 21.9986 28.3469 21.7523C28.2963 21.5059 28.1713 21.2797 27.9878 21.1021C27.8043 20.9245 27.5705 20.8036 27.316 20.7546C27.0615 20.7056 26.7977 20.7307 26.5579 20.8268C26.3182 20.9229 26.1133 21.0857 25.9691 21.2945C25.8249 21.5033 25.748 21.7488 25.748 22C25.748 22.3368 25.8862 22.6597 26.1323 22.8979C26.3783 23.136 26.7121 23.2698 27.0601 23.2698ZM23.1238 23.2698C23.3833 23.2698 23.637 23.1953 23.8528 23.0558C24.0685 22.9163 24.2367 22.718 24.336 22.4859C24.4353 22.2539 24.4613 21.9986 24.4107 21.7523C24.3601 21.5059 24.2351 21.2797 24.0516 21.1021C23.8681 20.9245 23.6343 20.8036 23.3798 20.7546C23.1253 20.7056 22.8615 20.7307 22.6217 20.8268C22.382 20.9229 22.177 21.0857 22.0329 21.2945C21.8887 21.5033 21.8118 21.7488 21.8118 22C21.8118 22.3368 21.95 22.6597 22.1961 22.8979C22.4421 23.136 22.7758 23.2698 23.1238 23.2698ZM19.1876 23.2698C19.4471 23.2698 19.7008 23.1953 19.9166 23.0558C20.1323 22.9163 20.3005 22.718 20.3998 22.4859C20.4991 22.2539 20.5251 21.9986 20.4745 21.7523C20.4238 21.5059 20.2989 21.2797 20.1154 21.1021C19.9319 20.9245 19.6981 20.8036 19.4436 20.7546C19.1891 20.7056 18.9252 20.7307 18.6855 20.8268C18.4457 20.9229 18.2408 21.0857 18.0967 21.2945C17.9525 21.5033 17.8755 21.7488 17.8755 22C17.8755 22.3368 18.0138 22.6597 18.2598 22.8979C18.5059 23.136 18.8396 23.2698 19.1876 23.2698Z" fill="#2D2D2D"/>
</svg>
