<svg width="585" height="24" viewBox="0 0 585 24" fill="none" xmlns="http://www.w3.org/2000/svg">
<path d="M6.36719 8.01562C5.29427 8.01562 4.45052 8.39583 3.83594 9.15625C3.22135 9.91667 2.91406 10.9661 2.91406 12.3047C2.91406 13.7057 3.20833 14.7656 3.79688 15.4844C4.39062 16.2031 5.2474 16.5625 6.36719 16.5625C6.85156 16.5625 7.32031 16.5156 7.77344 16.4219C8.22656 16.3229 8.69792 16.1979 9.1875 16.0469V17.6484C8.29167 17.987 7.27604 18.1562 6.14062 18.1562C4.46875 18.1562 3.1849 17.651 2.28906 16.6406C1.39323 15.625 0.945312 14.1745 0.945312 12.2891C0.945312 11.1016 1.16146 10.0625 1.59375 9.17188C2.03125 8.28125 2.66146 7.59896 3.48438 7.125C4.30729 6.65104 5.27344 6.41406 6.38281 6.41406C7.54948 6.41406 8.6276 6.65885 9.61719 7.14844L8.94531 8.70312C8.5599 8.52083 8.15104 8.36198 7.71875 8.22656C7.29167 8.08594 6.84115 8.01562 6.36719 8.01562ZM16.8594 18L16.4922 16.7969H16.4297C16.013 17.3229 15.5938 17.6823 15.1719 17.875C14.75 18.0625 14.2083 18.1562 13.5469 18.1562C12.6979 18.1562 12.0339 17.9271 11.5547 17.4688C11.0807 17.0104 10.8438 16.362 10.8438 15.5234C10.8438 14.6328 11.1745 13.9609 11.8359 13.5078C12.4974 13.0547 13.5052 12.8073 14.8594 12.7656L16.3516 12.7188V12.2578C16.3516 11.7057 16.2214 11.2943 15.9609 11.0234C15.7057 10.7474 15.3073 10.6094 14.7656 10.6094C14.3229 10.6094 13.8984 10.6745 13.4922 10.8047C13.0859 10.9349 12.6953 11.0885 12.3203 11.2656L11.7266 9.95312C12.1953 9.70833 12.7083 9.52344 13.2656 9.39844C13.8229 9.26823 14.349 9.20312 14.8438 9.20312C15.9427 9.20312 16.7708 9.44271 17.3281 9.92188C17.8906 10.401 18.1719 11.1536 18.1719 12.1797V18H16.8594ZM14.125 16.75C14.7917 16.75 15.3255 16.5651 15.7266 16.1953C16.1328 15.8203 16.3359 15.2969 16.3359 14.625V13.875L15.2266 13.9219C14.362 13.9531 13.7318 14.099 13.3359 14.3594C12.9453 14.6146 12.75 15.0078 12.75 15.5391C12.75 15.9245 12.8646 16.224 13.0938 16.4375C13.3229 16.6458 13.6667 16.75 14.125 16.75ZM25.1172 9.20312C25.487 9.20312 25.7917 9.22917 26.0312 9.28125L25.8516 10.9922C25.5911 10.9297 25.3203 10.8984 25.0391 10.8984C24.3047 10.8984 23.7083 11.138 23.25 11.6172C22.7969 12.0964 22.5703 12.7188 22.5703 13.4844V18H20.7344V9.35938H22.1719L22.4141 10.8828H22.5078C22.7943 10.3672 23.1667 9.95833 23.625 9.65625C24.0885 9.35417 24.5859 9.20312 25.1172 9.20312ZM31.4141 18.1562C30.0703 18.1562 29.0182 17.7656 28.2578 16.9844C27.5026 16.1979 27.125 15.1172 27.125 13.7422C27.125 12.3307 27.4766 11.2214 28.1797 10.4141C28.8828 9.60677 29.849 9.20312 31.0781 9.20312C32.2188 9.20312 33.1198 9.54948 33.7812 10.2422C34.4427 10.9349 34.7734 11.888 34.7734 13.1016V14.0938H29.0156C29.0417 14.9323 29.2682 15.5781 29.6953 16.0312C30.1224 16.4792 30.724 16.7031 31.5 16.7031C32.0104 16.7031 32.4844 16.6562 32.9219 16.5625C33.3646 16.4635 33.8385 16.3021 34.3438 16.0781V17.5703C33.8958 17.7839 33.4427 17.9349 32.9844 18.0234C32.526 18.112 32.0026 18.1562 31.4141 18.1562ZM31.0781 10.5938C30.4948 10.5938 30.026 10.7786 29.6719 11.1484C29.3229 11.5182 29.1146 12.0573 29.0469 12.7656H32.9688C32.9583 12.0521 32.7865 11.513 32.4531 11.1484C32.1198 10.7786 31.6615 10.5938 31.0781 10.5938ZM40.6328 18.1562C39.2891 18.1562 38.237 17.7656 37.4766 16.9844C36.7214 16.1979 36.3438 15.1172 36.3438 13.7422C36.3438 12.3307 36.6953 11.2214 37.3984 10.4141C38.1016 9.60677 39.0677 9.20312 40.2969 9.20312C41.4375 9.20312 42.3385 9.54948 43 10.2422C43.6615 10.9349 43.9922 11.888 43.9922 13.1016V14.0938H38.2344C38.2604 14.9323 38.487 15.5781 38.9141 16.0312C39.3411 16.4792 39.9427 16.7031 40.7188 16.7031C41.2292 16.7031 41.7031 16.6562 42.1406 16.5625C42.5833 16.4635 43.0573 16.3021 43.5625 16.0781V17.5703C43.1146 17.7839 42.6615 17.9349 42.2031 18.0234C41.7448 18.112 41.2214 18.1562 40.6328 18.1562ZM40.2969 10.5938C39.7135 10.5938 39.2448 10.7786 38.8906 11.1484C38.5417 11.5182 38.3333 12.0573 38.2656 12.7656H42.1875C42.1771 12.0521 42.0052 11.513 41.6719 11.1484C41.3385 10.7786 40.8802 10.5938 40.2969 10.5938ZM50.4609 9.20312C50.8307 9.20312 51.1354 9.22917 51.375 9.28125L51.1953 10.9922C50.9349 10.9297 50.6641 10.8984 50.3828 10.8984C49.6484 10.8984 49.0521 11.138 48.5938 11.6172C48.1406 12.0964 47.9141 12.7188 47.9141 13.4844V18H46.0781V9.35938H47.5156L47.7578 10.8828H47.8516C48.138 10.3672 48.5104 9.95833 48.9688 9.65625C49.4323 9.35417 49.9297 9.20312 50.4609 9.20312ZM64.8984 10.0312C64.8984 11.224 64.5078 12.138 63.7266 12.7734C62.9453 13.4089 61.8333 13.7266 60.3906 13.7266H59.2031V18H57.3359V6.57812H60.625C62.0521 6.57812 63.1198 6.86979 63.8281 7.45312C64.5417 8.03646 64.8984 8.89583 64.8984 10.0312ZM59.2031 12.1562H60.1953C61.1536 12.1562 61.8568 11.9896 62.3047 11.6562C62.7526 11.3229 62.9766 10.8021 62.9766 10.0938C62.9766 9.4375 62.776 8.94792 62.375 8.625C61.974 8.30208 61.349 8.14062 60.5 8.14062H59.2031V12.1562ZM71.3672 9.20312C71.737 9.20312 72.0417 9.22917 72.2812 9.28125L72.1016 10.9922C71.8411 10.9297 71.5703 10.8984 71.2891 10.8984C70.5547 10.8984 69.9583 11.138 69.5 11.6172C69.0469 12.0964 68.8203 12.7188 68.8203 13.4844V18H66.9844V9.35938H68.4219L68.6641 10.8828H68.7578C69.0443 10.3672 69.4167 9.95833 69.875 9.65625C70.3385 9.35417 70.8359 9.20312 71.3672 9.20312ZM81.5547 13.6641C81.5547 15.0755 81.1927 16.1771 80.4688 16.9688C79.7448 17.7604 78.737 18.1562 77.4453 18.1562C76.638 18.1562 75.9245 17.974 75.3047 17.6094C74.6849 17.2448 74.2083 16.7214 73.875 16.0391C73.5417 15.3568 73.375 14.5651 73.375 13.6641C73.375 12.263 73.7344 11.1693 74.4531 10.3828C75.1719 9.59635 76.1849 9.20312 77.4922 9.20312C78.7422 9.20312 79.7318 9.60677 80.4609 10.4141C81.1901 11.2161 81.5547 12.2995 81.5547 13.6641ZM75.2656 13.6641C75.2656 15.6589 76.0026 16.6562 77.4766 16.6562C78.9349 16.6562 79.6641 15.6589 79.6641 13.6641C79.6641 11.6901 78.9297 10.7031 77.4609 10.7031C76.6901 10.7031 76.1302 10.9583 75.7812 11.4688C75.4375 11.9792 75.2656 12.7109 75.2656 13.6641ZM90.9688 9.35938V10.3672L89.4922 10.6406C89.6276 10.8229 89.7396 11.0469 89.8281 11.3125C89.9167 11.5781 89.9609 11.8594 89.9609 12.1562C89.9609 13.0469 89.6536 13.7474 89.0391 14.2578C88.4245 14.7682 87.5781 15.0234 86.5 15.0234C86.224 15.0234 85.974 15.0026 85.75 14.9609C85.3542 15.2057 85.1562 15.4922 85.1562 15.8203C85.1562 16.0182 85.2474 16.1667 85.4297 16.2656C85.6172 16.3646 85.9583 16.4141 86.4531 16.4141H87.9609C88.9141 16.4141 89.638 16.6172 90.1328 17.0234C90.6276 17.4297 90.875 18.0156 90.875 18.7812C90.875 19.7604 90.4714 20.5156 89.6641 21.0469C88.8568 21.5781 87.6901 21.8438 86.1641 21.8438C84.987 21.8438 84.0885 21.6354 83.4688 21.2188C82.849 20.8021 82.5391 20.2083 82.5391 19.4375C82.5391 18.9062 82.7057 18.4583 83.0391 18.0938C83.3776 17.7344 83.849 17.4844 84.4531 17.3438C84.2083 17.2396 84.0052 17.0729 83.8438 16.8438C83.6875 16.6094 83.6094 16.3646 83.6094 16.1094C83.6094 15.7865 83.7005 15.513 83.8828 15.2891C84.0651 15.0651 84.3359 14.8438 84.6953 14.625C84.2474 14.4323 83.8828 14.1198 83.6016 13.6875C83.3255 13.25 83.1875 12.7396 83.1875 12.1562C83.1875 11.2188 83.4818 10.4922 84.0703 9.97656C84.6641 9.46094 85.5078 9.20312 86.6016 9.20312C86.8464 9.20312 87.1016 9.22135 87.3672 9.25781C87.638 9.28906 87.8411 9.32292 87.9766 9.35938H90.9688ZM84.1797 19.3438C84.1797 19.7396 84.3568 20.0443 84.7109 20.2578C85.0703 20.4714 85.5729 20.5781 86.2188 20.5781C87.2188 20.5781 87.9635 20.4349 88.4531 20.1484C88.9427 19.862 89.1875 19.4818 89.1875 19.0078C89.1875 18.6328 89.0521 18.3646 88.7812 18.2031C88.5156 18.0469 88.0182 17.9688 87.2891 17.9688H85.8984C85.3724 17.9688 84.9531 18.0911 84.6406 18.3359C84.3333 18.5859 84.1797 18.9219 84.1797 19.3438ZM84.9688 12.1562C84.9688 12.6979 85.1068 13.1146 85.3828 13.4062C85.6641 13.6979 86.0651 13.8438 86.5859 13.8438C87.6484 13.8438 88.1797 13.276 88.1797 12.1406C88.1797 11.5781 88.0469 11.1458 87.7812 10.8438C87.5208 10.5365 87.1224 10.3828 86.5859 10.3828C86.0547 10.3828 85.651 10.5339 85.375 10.8359C85.1042 11.138 84.9688 11.5781 84.9688 12.1562ZM96.9609 9.20312C97.3307 9.20312 97.6354 9.22917 97.875 9.28125L97.6953 10.9922C97.4349 10.9297 97.1641 10.8984 96.8828 10.8984C96.1484 10.8984 95.5521 11.138 95.0938 11.6172C94.6406 12.0964 94.4141 12.7188 94.4141 13.4844V18H92.5781V9.35938H94.0156L94.2578 10.8828H94.3516C94.638 10.3672 95.0104 9.95833 95.4688 9.65625C95.9323 9.35417 96.4297 9.20312 96.9609 9.20312ZM104.891 18L104.523 16.7969H104.461C104.044 17.3229 103.625 17.6823 103.203 17.875C102.781 18.0625 102.24 18.1562 101.578 18.1562C100.729 18.1562 100.065 17.9271 99.5859 17.4688C99.112 17.0104 98.875 16.362 98.875 15.5234C98.875 14.6328 99.2057 13.9609 99.8672 13.5078C100.529 13.0547 101.536 12.8073 102.891 12.7656L104.383 12.7188V12.2578C104.383 11.7057 104.253 11.2943 103.992 11.0234C103.737 10.7474 103.339 10.6094 102.797 10.6094C102.354 10.6094 101.93 10.6745 101.523 10.8047C101.117 10.9349 100.727 11.0885 100.352 11.2656L99.7578 9.95312C100.227 9.70833 100.74 9.52344 101.297 9.39844C101.854 9.26823 102.38 9.20312 102.875 9.20312C103.974 9.20312 104.802 9.44271 105.359 9.92188C105.922 10.401 106.203 11.1536 106.203 12.1797V18H104.891ZM102.156 16.75C102.823 16.75 103.357 16.5651 103.758 16.1953C104.164 15.8203 104.367 15.2969 104.367 14.625V13.875L103.258 13.9219C102.393 13.9531 101.763 14.099 101.367 14.3594C100.977 14.6146 100.781 15.0078 100.781 15.5391C100.781 15.9245 100.896 16.224 101.125 16.4375C101.354 16.6458 101.698 16.75 102.156 16.75ZM116.047 18H114.203V12.6719C114.203 12.0104 114.078 11.5182 113.828 11.1953C113.578 10.8672 113.188 10.7031 112.656 10.7031C111.948 10.7031 111.427 10.9349 111.094 11.3984C110.766 11.8568 110.602 12.6224 110.602 13.6953V18H108.766V9.35938H110.203L110.461 10.4922H110.555C110.794 10.0807 111.141 9.76302 111.594 9.53906C112.052 9.3151 112.555 9.20312 113.102 9.20312C114.43 9.20312 115.31 9.65625 115.742 10.5625H115.867C116.122 10.1354 116.482 9.80208 116.945 9.5625C117.409 9.32292 117.94 9.20312 118.539 9.20312C119.57 9.20312 120.32 9.46354 120.789 9.98438C121.263 10.5052 121.5 11.2995 121.5 12.3672V18H119.664V12.6719C119.664 12.0104 119.536 11.5182 119.281 11.1953C119.031 10.8672 118.641 10.7031 118.109 10.7031C117.396 10.7031 116.872 10.9271 116.539 11.375C116.211 11.8177 116.047 12.5 116.047 13.4219V18ZM129.867 15.5391C129.867 16.3828 129.56 17.0312 128.945 17.4844C128.331 17.9323 127.451 18.1562 126.305 18.1562C125.154 18.1562 124.229 17.9818 123.531 17.6328V16.0469C124.547 16.5156 125.492 16.75 126.367 16.75C127.497 16.75 128.062 16.4089 128.062 15.7266C128.062 15.5078 128 15.3255 127.875 15.1797C127.75 15.0339 127.544 14.8828 127.258 14.7266C126.971 14.5703 126.573 14.3932 126.062 14.1953C125.068 13.8099 124.393 13.4245 124.039 13.0391C123.69 12.6536 123.516 12.1536 123.516 11.5391C123.516 10.7995 123.812 10.2266 124.406 9.82031C125.005 9.40885 125.818 9.20312 126.844 9.20312C127.859 9.20312 128.82 9.40885 129.727 9.82031L129.133 11.2031C128.201 10.8177 127.417 10.625 126.781 10.625C125.812 10.625 125.328 10.901 125.328 11.4531C125.328 11.724 125.453 11.9531 125.703 12.1406C125.958 12.3281 126.51 12.5859 127.359 12.9141C128.073 13.1901 128.591 13.4427 128.914 13.6719C129.237 13.901 129.477 14.1667 129.633 14.4688C129.789 14.7656 129.867 15.1224 129.867 15.5391Z" fill="#35475C"/>
<path d="M189.196 11.8047H193.399V17.5391C192.711 17.763 192.05 17.9219 191.415 18.0156C190.784 18.1094 190.102 18.1562 189.368 18.1562C187.639 18.1562 186.305 17.6458 185.368 16.625C184.43 15.599 183.961 14.1536 183.961 12.2891C183.961 10.4505 184.49 9.01302 185.547 7.97656C186.605 6.9349 188.06 6.41406 189.915 6.41406C191.107 6.41406 192.237 6.64323 193.305 7.10156L192.649 8.65625C191.722 8.22917 190.795 8.01562 189.868 8.01562C188.649 8.01562 187.685 8.39844 186.977 9.16406C186.269 9.92969 185.915 10.9766 185.915 12.3047C185.915 13.7005 186.232 14.763 186.868 15.4922C187.508 16.2161 188.428 16.5781 189.625 16.5781C190.23 16.5781 190.875 16.5026 191.563 16.3516V13.4062H189.196V11.8047ZM202.047 18L201.79 16.8672H201.696C201.441 17.2682 201.076 17.5833 200.602 17.8125C200.133 18.0417 199.597 18.1562 198.993 18.1562C197.946 18.1562 197.165 17.8958 196.649 17.375C196.133 16.8542 195.875 16.0651 195.875 15.0078V9.35938H197.727V14.6875C197.727 15.349 197.862 15.8464 198.133 16.1797C198.404 16.5078 198.829 16.6719 199.407 16.6719C200.178 16.6719 200.743 16.4427 201.102 15.9844C201.467 15.5208 201.649 14.7474 201.649 13.6641V9.35938H203.493V18H202.047ZM207.946 18H206.11V9.35938H207.946V18ZM206 7.07031C206 6.74219 206.089 6.48958 206.266 6.3125C206.448 6.13542 206.706 6.04688 207.04 6.04688C207.362 6.04688 207.612 6.13542 207.79 6.3125C207.972 6.48958 208.063 6.74219 208.063 7.07031C208.063 7.38281 207.972 7.63021 207.79 7.8125C207.612 7.98958 207.362 8.07812 207.04 8.07812C206.706 8.07812 206.448 7.98958 206.266 7.8125C206.089 7.63021 206 7.38281 206 7.07031ZM213.493 18.1562C212.415 18.1562 211.573 17.7656 210.969 16.9844C210.365 16.2031 210.063 15.1068 210.063 13.6953C210.063 12.2786 210.368 11.1771 210.977 10.3906C211.592 9.59896 212.441 9.20312 213.524 9.20312C214.659 9.20312 215.524 9.6224 216.118 10.4609H216.211C216.123 9.84115 216.079 9.35156 216.079 8.99219V5.84375H217.922V18H216.485L216.165 16.8672H216.079C215.49 17.7266 214.628 18.1562 213.493 18.1562ZM213.985 16.6719C214.74 16.6719 215.29 16.4609 215.633 16.0391C215.977 15.612 216.154 14.9219 216.165 13.9688V13.7109C216.165 12.6224 215.987 11.849 215.633 11.3906C215.279 10.9323 214.724 10.7031 213.969 10.7031C213.323 10.7031 212.826 10.9661 212.477 11.4922C212.128 12.013 211.954 12.7578 211.954 13.7266C211.954 14.6849 212.123 15.4167 212.461 15.9219C212.8 16.4219 213.308 16.6719 213.985 16.6719ZM224.321 18.1562C222.977 18.1562 221.925 17.7656 221.165 16.9844C220.409 16.1979 220.032 15.1172 220.032 13.7422C220.032 12.3307 220.383 11.2214 221.086 10.4141C221.79 9.60677 222.756 9.20312 223.985 9.20312C225.125 9.20312 226.027 9.54948 226.688 10.2422C227.349 10.9349 227.68 11.888 227.68 13.1016V14.0938H221.922C221.948 14.9323 222.175 15.5781 222.602 16.0312C223.029 16.4792 223.631 16.7031 224.407 16.7031C224.917 16.7031 225.391 16.6562 225.829 16.5625C226.271 16.4635 226.745 16.3021 227.25 16.0781V17.5703C226.803 17.7839 226.349 17.9349 225.891 18.0234C225.433 18.112 224.909 18.1562 224.321 18.1562ZM223.985 10.5938C223.402 10.5938 222.933 10.7786 222.579 11.1484C222.23 11.5182 222.021 12.0573 221.954 12.7656H225.875C225.865 12.0521 225.693 11.513 225.36 11.1484C225.027 10.7786 224.568 10.5938 223.985 10.5938ZM232.68 18.1562C231.602 18.1562 230.761 17.7656 230.157 16.9844C229.553 16.2031 229.25 15.1068 229.25 13.6953C229.25 12.2786 229.555 11.1771 230.165 10.3906C230.779 9.59896 231.628 9.20312 232.711 9.20312C233.847 9.20312 234.711 9.6224 235.305 10.4609H235.399C235.31 9.84115 235.266 9.35156 235.266 8.99219V5.84375H237.11V18H235.672L235.352 16.8672H235.266C234.678 17.7266 233.816 18.1562 232.68 18.1562ZM233.172 16.6719C233.928 16.6719 234.477 16.4609 234.821 16.0391C235.165 15.612 235.342 14.9219 235.352 13.9688V13.7109C235.352 12.6224 235.175 11.849 234.821 11.3906C234.467 10.9323 233.912 10.7031 233.157 10.7031C232.511 10.7031 232.014 10.9661 231.665 11.4922C231.316 12.013 231.141 12.7578 231.141 13.7266C231.141 14.6849 231.31 15.4167 231.649 15.9219C231.987 16.4219 232.495 16.6719 233.172 16.6719ZM251.649 10.0312C251.649 11.224 251.258 12.138 250.477 12.7734C249.696 13.4089 248.584 13.7266 247.141 13.7266H245.954V18H244.086V6.57812H247.375C248.803 6.57812 249.87 6.86979 250.579 7.45312C251.292 8.03646 251.649 8.89583 251.649 10.0312ZM245.954 12.1562H246.946C247.904 12.1562 248.607 11.9896 249.055 11.6562C249.503 11.3229 249.727 10.8021 249.727 10.0938C249.727 9.4375 249.527 8.94792 249.125 8.625C248.724 8.30208 248.099 8.14062 247.25 8.14062H245.954V12.1562ZM258.118 9.20312C258.487 9.20312 258.792 9.22917 259.032 9.28125L258.852 10.9922C258.592 10.9297 258.321 10.8984 258.04 10.8984C257.305 10.8984 256.709 11.138 256.25 11.6172C255.797 12.0964 255.571 12.7188 255.571 13.4844V18H253.735V9.35938H255.172L255.415 10.8828H255.508C255.795 10.3672 256.167 9.95833 256.625 9.65625C257.089 9.35417 257.586 9.20312 258.118 9.20312ZM268.305 13.6641C268.305 15.0755 267.943 16.1771 267.219 16.9688C266.495 17.7604 265.487 18.1562 264.196 18.1562C263.389 18.1562 262.675 17.974 262.055 17.6094C261.435 17.2448 260.959 16.7214 260.625 16.0391C260.292 15.3568 260.125 14.5651 260.125 13.6641C260.125 12.263 260.485 11.1693 261.204 10.3828C261.922 9.59635 262.935 9.20312 264.243 9.20312C265.493 9.20312 266.482 9.60677 267.211 10.4141C267.941 11.2161 268.305 12.2995 268.305 13.6641ZM262.016 13.6641C262.016 15.6589 262.753 16.6562 264.227 16.6562C265.685 16.6562 266.415 15.6589 266.415 13.6641C266.415 11.6901 265.68 10.7031 264.211 10.7031C263.441 10.7031 262.881 10.9583 262.532 11.4688C262.188 11.9792 262.016 12.7109 262.016 13.6641ZM269.54 21.8438C268.987 21.8438 268.529 21.7786 268.165 21.6484V20.1953C268.519 20.2891 268.881 20.3359 269.25 20.3359C270.032 20.3359 270.422 19.8932 270.422 19.0078V9.35938H272.258V19.1328C272.258 20.0234 272.024 20.6979 271.555 21.1562C271.092 21.6146 270.42 21.8438 269.54 21.8438ZM270.313 7.07031C270.313 6.74219 270.402 6.48958 270.579 6.3125C270.761 6.13542 271.019 6.04688 271.352 6.04688C271.675 6.04688 271.925 6.13542 272.102 6.3125C272.284 6.48958 272.375 6.74219 272.375 7.07031C272.375 7.38281 272.284 7.63021 272.102 7.8125C271.925 7.98958 271.675 8.07812 271.352 8.07812C271.019 8.07812 270.761 7.98958 270.579 7.8125C270.402 7.63021 270.313 7.38281 270.313 7.07031ZM278.665 18.1562C277.321 18.1562 276.269 17.7656 275.508 16.9844C274.753 16.1979 274.375 15.1172 274.375 13.7422C274.375 12.3307 274.727 11.2214 275.43 10.4141C276.133 9.60677 277.099 9.20312 278.329 9.20312C279.469 9.20312 280.37 9.54948 281.032 10.2422C281.693 10.9349 282.024 11.888 282.024 13.1016V14.0938H276.266C276.292 14.9323 276.519 15.5781 276.946 16.0312C277.373 16.4792 277.974 16.7031 278.75 16.7031C279.261 16.7031 279.735 16.6562 280.172 16.5625C280.615 16.4635 281.089 16.3021 281.594 16.0781V17.5703C281.146 17.7839 280.693 17.9349 280.235 18.0234C279.777 18.112 279.253 18.1562 278.665 18.1562ZM278.329 10.5938C277.745 10.5938 277.277 10.7786 276.922 11.1484C276.573 11.5182 276.365 12.0573 276.297 12.7656H280.219C280.209 12.0521 280.037 11.513 279.704 11.1484C279.37 10.7786 278.912 10.5938 278.329 10.5938ZM287.594 18.1562C286.287 18.1562 285.292 17.776 284.61 17.0156C283.933 16.25 283.594 15.1536 283.594 13.7266C283.594 12.2734 283.948 11.1562 284.657 10.375C285.37 9.59375 286.399 9.20312 287.743 9.20312C288.654 9.20312 289.474 9.3724 290.204 9.71094L289.649 11.1875C288.873 10.8854 288.232 10.7344 287.727 10.7344C286.232 10.7344 285.485 11.7266 285.485 13.7109C285.485 14.6797 285.67 15.4089 286.04 15.8984C286.415 16.3828 286.961 16.625 287.68 16.625C288.498 16.625 289.271 16.4219 290 16.0156V17.6172C289.672 17.8099 289.321 17.9479 288.946 18.0312C288.576 18.1146 288.125 18.1562 287.594 18.1562ZM295.25 16.6719C295.698 16.6719 296.146 16.6016 296.594 16.4609V17.8438C296.391 17.9323 296.128 18.0052 295.805 18.0625C295.487 18.125 295.157 18.1562 294.813 18.1562C293.073 18.1562 292.204 17.2396 292.204 15.4062V10.75H291.024V9.9375L292.29 9.26562L292.915 7.4375H294.047V9.35938H296.508V10.75H294.047V15.375C294.047 15.8177 294.157 16.1458 294.375 16.3594C294.599 16.5677 294.891 16.6719 295.25 16.6719ZM304.133 15.5391C304.133 16.3828 303.826 17.0312 303.211 17.4844C302.597 17.9323 301.717 18.1562 300.571 18.1562C299.42 18.1562 298.495 17.9818 297.797 17.6328V16.0469C298.813 16.5156 299.758 16.75 300.633 16.75C301.764 16.75 302.329 16.4089 302.329 15.7266C302.329 15.5078 302.266 15.3255 302.141 15.1797C302.016 15.0339 301.81 14.8828 301.524 14.7266C301.237 14.5703 300.839 14.3932 300.329 14.1953C299.334 13.8099 298.659 13.4245 298.305 13.0391C297.956 12.6536 297.782 12.1536 297.782 11.5391C297.782 10.7995 298.079 10.2266 298.672 9.82031C299.271 9.40885 300.084 9.20312 301.11 9.20312C302.125 9.20312 303.086 9.40885 303.993 9.82031L303.399 11.2031C302.467 10.8177 301.683 10.625 301.047 10.625C300.079 10.625 299.594 10.901 299.594 11.4531C299.594 11.724 299.719 11.9531 299.969 12.1406C300.224 12.3281 300.777 12.5859 301.625 12.9141C302.339 13.1901 302.857 13.4427 303.18 13.6719C303.503 13.901 303.743 14.1667 303.899 14.4688C304.055 14.7656 304.133 15.1224 304.133 15.5391Z" fill="#35475C"/>
<path d="M363.008 8.01562C361.935 8.01562 361.092 8.39583 360.477 9.15625C359.862 9.91667 359.555 10.9661 359.555 12.3047C359.555 13.7057 359.849 14.7656 360.438 15.4844C361.032 16.2031 361.889 16.5625 363.008 16.5625C363.493 16.5625 363.961 16.5156 364.415 16.4219C364.868 16.3229 365.339 16.1979 365.829 16.0469V17.6484C364.933 17.987 363.917 18.1562 362.782 18.1562C361.11 18.1562 359.826 17.651 358.93 16.6406C358.034 15.625 357.586 14.1745 357.586 12.2891C357.586 11.1016 357.803 10.0625 358.235 9.17188C358.672 8.28125 359.303 7.59896 360.125 7.125C360.948 6.65104 361.915 6.41406 363.024 6.41406C364.191 6.41406 365.269 6.65885 366.258 7.14844L365.586 8.70312C365.201 8.52083 364.792 8.36198 364.36 8.22656C363.933 8.08594 363.482 8.01562 363.008 8.01562ZM375.696 18H373.852V12.6875C373.852 12.0208 373.717 11.5234 373.446 11.1953C373.18 10.8672 372.756 10.7031 372.172 10.7031C371.402 10.7031 370.834 10.9349 370.469 11.3984C370.11 11.8568 369.93 12.6276 369.93 13.7109V18H368.094V5.84375H369.93V8.92969C369.93 9.42448 369.899 9.95312 369.836 10.5156H369.954C370.204 10.099 370.55 9.77604 370.993 9.54688C371.441 9.31771 371.961 9.20312 372.555 9.20312C374.649 9.20312 375.696 10.2578 375.696 12.3672V18ZM383.657 18L383.29 16.7969H383.227C382.81 17.3229 382.391 17.6823 381.969 17.875C381.547 18.0625 381.006 18.1562 380.344 18.1562C379.495 18.1562 378.831 17.9271 378.352 17.4688C377.878 17.0104 377.641 16.362 377.641 15.5234C377.641 14.6328 377.972 13.9609 378.633 13.5078C379.295 13.0547 380.303 12.8073 381.657 12.7656L383.149 12.7188V12.2578C383.149 11.7057 383.019 11.2943 382.758 11.0234C382.503 10.7474 382.105 10.6094 381.563 10.6094C381.12 10.6094 380.696 10.6745 380.29 10.8047C379.883 10.9349 379.493 11.0885 379.118 11.2656L378.524 9.95312C378.993 9.70833 379.506 9.52344 380.063 9.39844C380.62 9.26823 381.146 9.20312 381.641 9.20312C382.74 9.20312 383.568 9.44271 384.125 9.92188C384.688 10.401 384.969 11.1536 384.969 12.1797V18H383.657ZM380.922 16.75C381.589 16.75 382.123 16.5651 382.524 16.1953C382.93 15.8203 383.133 15.2969 383.133 14.625V13.875L382.024 13.9219C381.159 13.9531 380.529 14.099 380.133 14.3594C379.743 14.6146 379.547 15.0078 379.547 15.5391C379.547 15.9245 379.662 16.224 379.891 16.4375C380.12 16.6458 380.464 16.75 380.922 16.75ZM389.368 18H387.532V5.84375H389.368V18ZM393.836 18H392V5.84375H393.836V18ZM400.243 18.1562C398.899 18.1562 397.847 17.7656 397.086 16.9844C396.331 16.1979 395.954 15.1172 395.954 13.7422C395.954 12.3307 396.305 11.2214 397.008 10.4141C397.711 9.60677 398.678 9.20312 399.907 9.20312C401.047 9.20312 401.948 9.54948 402.61 10.2422C403.271 10.9349 403.602 11.888 403.602 13.1016V14.0938H397.844C397.87 14.9323 398.097 15.5781 398.524 16.0312C398.951 16.4792 399.553 16.7031 400.329 16.7031C400.839 16.7031 401.313 16.6562 401.75 16.5625C402.193 16.4635 402.667 16.3021 403.172 16.0781V17.5703C402.724 17.7839 402.271 17.9349 401.813 18.0234C401.355 18.112 400.831 18.1562 400.243 18.1562ZM399.907 10.5938C399.323 10.5938 398.855 10.7786 398.5 11.1484C398.152 11.5182 397.943 12.0573 397.875 12.7656H401.797C401.787 12.0521 401.615 11.513 401.282 11.1484C400.948 10.7786 400.49 10.5938 399.907 10.5938ZM413.29 18H411.446V12.6875C411.446 12.0208 411.31 11.5234 411.04 11.1953C410.774 10.8672 410.349 10.7031 409.766 10.7031C408.99 10.7031 408.422 10.9323 408.063 11.3906C407.704 11.849 407.524 12.6172 407.524 13.6953V18H405.688V9.35938H407.125L407.383 10.4922H407.477C407.737 10.0807 408.107 9.76302 408.586 9.53906C409.066 9.3151 409.597 9.20312 410.18 9.20312C412.253 9.20312 413.29 10.2578 413.29 12.3672V18ZM423.141 9.35938V10.3672L421.665 10.6406C421.8 10.8229 421.912 11.0469 422 11.3125C422.089 11.5781 422.133 11.8594 422.133 12.1562C422.133 13.0469 421.826 13.7474 421.211 14.2578C420.597 14.7682 419.75 15.0234 418.672 15.0234C418.396 15.0234 418.146 15.0026 417.922 14.9609C417.527 15.2057 417.329 15.4922 417.329 15.8203C417.329 16.0182 417.42 16.1667 417.602 16.2656C417.79 16.3646 418.131 16.4141 418.625 16.4141H420.133C421.086 16.4141 421.81 16.6172 422.305 17.0234C422.8 17.4297 423.047 18.0156 423.047 18.7812C423.047 19.7604 422.644 20.5156 421.836 21.0469C421.029 21.5781 419.862 21.8438 418.336 21.8438C417.159 21.8438 416.261 21.6354 415.641 21.2188C415.021 20.8021 414.711 20.2083 414.711 19.4375C414.711 18.9062 414.878 18.4583 415.211 18.0938C415.55 17.7344 416.021 17.4844 416.625 17.3438C416.381 17.2396 416.178 17.0729 416.016 16.8438C415.86 16.6094 415.782 16.3646 415.782 16.1094C415.782 15.7865 415.873 15.513 416.055 15.2891C416.237 15.0651 416.508 14.8438 416.868 14.625C416.42 14.4323 416.055 14.1198 415.774 13.6875C415.498 13.25 415.36 12.7396 415.36 12.1562C415.36 11.2188 415.654 10.4922 416.243 9.97656C416.836 9.46094 417.68 9.20312 418.774 9.20312C419.019 9.20312 419.274 9.22135 419.54 9.25781C419.81 9.28906 420.014 9.32292 420.149 9.35938H423.141ZM416.352 19.3438C416.352 19.7396 416.529 20.0443 416.883 20.2578C417.243 20.4714 417.745 20.5781 418.391 20.5781C419.391 20.5781 420.136 20.4349 420.625 20.1484C421.115 19.862 421.36 19.4818 421.36 19.0078C421.36 18.6328 421.224 18.3646 420.954 18.2031C420.688 18.0469 420.191 17.9688 419.461 17.9688H418.071C417.545 17.9688 417.125 18.0911 416.813 18.3359C416.506 18.5859 416.352 18.9219 416.352 19.3438ZM417.141 12.1562C417.141 12.6979 417.279 13.1146 417.555 13.4062C417.836 13.6979 418.237 13.8438 418.758 13.8438C419.821 13.8438 420.352 13.276 420.352 12.1406C420.352 11.5781 420.219 11.1458 419.954 10.8438C419.693 10.5365 419.295 10.3828 418.758 10.3828C418.227 10.3828 417.823 10.5339 417.547 10.8359C417.277 11.138 417.141 11.5781 417.141 12.1562ZM428.524 18.1562C427.18 18.1562 426.128 17.7656 425.368 16.9844C424.612 16.1979 424.235 15.1172 424.235 13.7422C424.235 12.3307 424.586 11.2214 425.29 10.4141C425.993 9.60677 426.959 9.20312 428.188 9.20312C429.329 9.20312 430.23 9.54948 430.891 10.2422C431.553 10.9349 431.883 11.888 431.883 13.1016V14.0938H426.125C426.152 14.9323 426.378 15.5781 426.805 16.0312C427.232 16.4792 427.834 16.7031 428.61 16.7031C429.12 16.7031 429.594 16.6562 430.032 16.5625C430.474 16.4635 430.948 16.3021 431.454 16.0781V17.5703C431.006 17.7839 430.553 17.9349 430.094 18.0234C429.636 18.112 429.112 18.1562 428.524 18.1562ZM428.188 10.5938C427.605 10.5938 427.136 10.7786 426.782 11.1484C426.433 11.5182 426.224 12.0573 426.157 12.7656H430.079C430.068 12.0521 429.896 11.513 429.563 11.1484C429.23 10.7786 428.771 10.5938 428.188 10.5938ZM439.774 15.5391C439.774 16.3828 439.467 17.0312 438.852 17.4844C438.237 17.9323 437.357 18.1562 436.211 18.1562C435.06 18.1562 434.136 17.9818 433.438 17.6328V16.0469C434.454 16.5156 435.399 16.75 436.274 16.75C437.404 16.75 437.969 16.4089 437.969 15.7266C437.969 15.5078 437.907 15.3255 437.782 15.1797C437.657 15.0339 437.451 14.8828 437.165 14.7266C436.878 14.5703 436.48 14.3932 435.969 14.1953C434.974 13.8099 434.3 13.4245 433.946 13.0391C433.597 12.6536 433.422 12.1536 433.422 11.5391C433.422 10.7995 433.719 10.2266 434.313 9.82031C434.912 9.40885 435.724 9.20312 436.75 9.20312C437.766 9.20312 438.727 9.40885 439.633 9.82031L439.04 11.2031C438.107 10.8177 437.323 10.625 436.688 10.625C435.719 10.625 435.235 10.901 435.235 11.4531C435.235 11.724 435.36 11.9531 435.61 12.1406C435.865 12.3281 436.417 12.5859 437.266 12.9141C437.98 13.1901 438.498 13.4427 438.821 13.6719C439.144 13.901 439.383 14.1667 439.54 14.4688C439.696 14.7656 439.774 15.1224 439.774 15.5391Z" fill="#35475C"/>
<path d="M490.793 19V7.57812H492.661V19H490.793ZM503.09 19H501.247V13.6875C501.247 13.0208 501.111 12.5234 500.84 12.1953C500.575 11.8672 500.15 11.7031 499.567 11.7031C498.791 11.7031 498.223 11.9323 497.864 12.3906C497.504 12.849 497.325 13.6172 497.325 14.6953V19H495.489V10.3594H496.926L497.184 11.4922H497.278C497.538 11.0807 497.908 10.763 498.387 10.5391C498.866 10.3151 499.398 10.2031 499.981 10.2031C502.054 10.2031 503.09 11.2578 503.09 13.3672V19ZM508.864 17.6719C509.312 17.6719 509.76 17.6016 510.208 17.4609V18.8438C510.004 18.9323 509.741 19.0052 509.418 19.0625C509.101 19.125 508.77 19.1562 508.426 19.1562C506.687 19.1562 505.817 18.2396 505.817 16.4062V11.75H504.637V10.9375L505.903 10.2656L506.528 8.4375H507.661V10.3594H510.122V11.75H507.661V16.375C507.661 16.8177 507.77 17.1458 507.989 17.3594C508.213 17.5677 508.504 17.6719 508.864 17.6719ZM515.715 19.1562C514.372 19.1562 513.319 18.7656 512.559 17.9844C511.804 17.1979 511.426 16.1172 511.426 14.7422C511.426 13.3307 511.778 12.2214 512.481 11.4141C513.184 10.6068 514.15 10.2031 515.379 10.2031C516.52 10.2031 517.421 10.5495 518.083 11.2422C518.744 11.9349 519.075 12.888 519.075 14.1016V15.0938H513.317C513.343 15.9323 513.569 16.5781 513.997 17.0312C514.424 17.4792 515.025 17.7031 515.801 17.7031C516.312 17.7031 516.786 17.6562 517.223 17.5625C517.666 17.4635 518.14 17.3021 518.645 17.0781V18.5703C518.197 18.7839 517.744 18.9349 517.286 19.0234C516.827 19.112 516.304 19.1562 515.715 19.1562ZM515.379 11.5938C514.796 11.5938 514.327 11.7786 513.973 12.1484C513.624 12.5182 513.416 13.0573 513.348 13.7656H517.27C517.26 13.0521 517.088 12.513 516.754 12.1484C516.421 11.7786 515.963 11.5938 515.379 11.5938ZM525.543 10.2031C525.913 10.2031 526.218 10.2292 526.458 10.2812L526.278 11.9922C526.017 11.9297 525.747 11.8984 525.465 11.8984C524.731 11.8984 524.135 12.138 523.676 12.6172C523.223 13.0964 522.997 13.7188 522.997 14.4844V19H521.161V10.3594H522.598L522.84 11.8828H522.934C523.221 11.3672 523.593 10.9583 524.051 10.6562C524.515 10.3542 525.012 10.2031 525.543 10.2031ZM535.668 19H533.825V13.6875C533.825 13.0208 533.689 12.5234 533.418 12.1953C533.153 11.8672 532.728 11.7031 532.145 11.7031C531.369 11.7031 530.801 11.9323 530.442 12.3906C530.083 12.849 529.903 13.6172 529.903 14.6953V19H528.067V10.3594H529.504L529.762 11.4922H529.856C530.116 11.0807 530.486 10.763 530.965 10.5391C531.444 10.3151 531.976 10.2031 532.559 10.2031C534.632 10.2031 535.668 11.2578 535.668 13.3672V19ZM544.028 16.5391C544.028 17.3828 543.721 18.0312 543.106 18.4844C542.491 18.9323 541.611 19.1562 540.465 19.1562C539.314 19.1562 538.39 18.9818 537.692 18.6328V17.0469C538.708 17.5156 539.653 17.75 540.528 17.75C541.658 17.75 542.223 17.4089 542.223 16.7266C542.223 16.5078 542.161 16.3255 542.036 16.1797C541.911 16.0339 541.705 15.8828 541.418 15.7266C541.132 15.5703 540.734 15.3932 540.223 15.1953C539.228 14.8099 538.554 14.4245 538.2 14.0391C537.851 13.6536 537.676 13.1536 537.676 12.5391C537.676 11.7995 537.973 11.2266 538.567 10.8203C539.166 10.4089 539.978 10.2031 541.004 10.2031C542.02 10.2031 542.981 10.4089 543.887 10.8203L543.293 12.2031C542.361 11.8177 541.577 11.625 540.942 11.625C539.973 11.625 539.489 11.901 539.489 12.4531C539.489 12.724 539.614 12.9531 539.864 13.1406C540.119 13.3281 540.671 13.5859 541.52 13.9141C542.234 14.1901 542.752 14.4427 543.075 14.6719C543.398 14.901 543.637 15.1667 543.793 15.4688C543.95 15.7656 544.028 16.1224 544.028 16.5391ZM553.622 19H551.778V13.6875C551.778 13.0208 551.642 12.5234 551.372 12.1953C551.106 11.8672 550.681 11.7031 550.098 11.7031C549.327 11.7031 548.76 11.9349 548.395 12.3984C548.036 12.8568 547.856 13.6276 547.856 14.7109V19H546.02V6.84375H547.856V9.92969C547.856 10.4245 547.825 10.9531 547.762 11.5156H547.879C548.129 11.099 548.476 10.776 548.918 10.5469C549.366 10.3177 549.887 10.2031 550.481 10.2031C552.575 10.2031 553.622 11.2578 553.622 13.3672V19ZM558.012 19H556.176V10.3594H558.012V19ZM556.067 8.07031C556.067 7.74219 556.155 7.48958 556.333 7.3125C556.515 7.13542 556.773 7.04688 557.106 7.04688C557.429 7.04688 557.679 7.13542 557.856 7.3125C558.038 7.48958 558.129 7.74219 558.129 8.07031C558.129 8.38281 558.038 8.63021 557.856 8.8125C557.679 8.98958 557.429 9.07812 557.106 9.07812C556.773 9.07812 556.515 8.98958 556.333 8.8125C556.155 8.63021 556.067 8.38281 556.067 8.07031ZM565.028 19.1562C563.934 19.1562 563.085 18.763 562.481 17.9766H562.372C562.444 18.7057 562.481 19.1484 562.481 19.3047V22.8438H560.645V10.3594H562.129C562.171 10.5208 562.257 10.9062 562.387 11.5156H562.481C563.054 10.6406 563.913 10.2031 565.059 10.2031C566.137 10.2031 566.976 10.5938 567.575 11.375C568.179 12.1562 568.481 13.2526 568.481 14.6641C568.481 16.0755 568.174 17.1771 567.559 17.9688C566.95 18.7604 566.106 19.1562 565.028 19.1562ZM564.583 11.7031C563.853 11.7031 563.319 11.9167 562.981 12.3438C562.648 12.7708 562.481 13.4531 562.481 14.3906V14.6641C562.481 15.7161 562.648 16.4792 562.981 16.9531C563.314 17.4219 563.859 17.6562 564.614 17.6562C565.249 17.6562 565.739 17.3958 566.083 16.875C566.426 16.3542 566.598 15.612 566.598 14.6484C566.598 13.6797 566.426 12.9479 566.083 12.4531C565.744 11.9531 565.244 11.7031 564.583 11.7031ZM576.418 16.5391C576.418 17.3828 576.111 18.0312 575.497 18.4844C574.882 18.9323 574.002 19.1562 572.856 19.1562C571.705 19.1562 570.78 18.9818 570.083 18.6328V17.0469C571.098 17.5156 572.043 17.75 572.918 17.75C574.049 17.75 574.614 17.4089 574.614 16.7266C574.614 16.5078 574.551 16.3255 574.426 16.1797C574.301 16.0339 574.096 15.8828 573.809 15.7266C573.523 15.5703 573.124 15.3932 572.614 15.1953C571.619 14.8099 570.944 14.4245 570.59 14.0391C570.241 13.6536 570.067 13.1536 570.067 12.5391C570.067 11.7995 570.364 11.2266 570.958 10.8203C571.556 10.4089 572.369 10.2031 573.395 10.2031C574.411 10.2031 575.372 10.4089 576.278 10.8203L575.684 12.2031C574.752 11.8177 573.968 11.625 573.333 11.625C572.364 11.625 571.879 11.901 571.879 12.4531C571.879 12.724 572.004 12.9531 572.254 13.1406C572.51 13.3281 573.062 13.5859 573.911 13.9141C574.624 14.1901 575.142 14.4427 575.465 14.6719C575.788 14.901 576.028 15.1667 576.184 15.4688C576.34 15.7656 576.418 16.1224 576.418 16.5391Z" fill="#35475C"/>
</svg>
