<svg width="18" height="17" viewBox="0 0 18 17" fill="none" xmlns="http://www.w3.org/2000/svg">
<path d="M2.90823 0.492676H14.8472C15.5968 0.493473 16.3156 0.779418 16.8457 1.28777C17.3758 1.79613 17.674 2.48538 17.6748 3.2043V10.4353C17.674 11.1542 17.3758 11.8435 16.8457 12.3518C16.3156 12.8602 15.5968 13.1461 14.8472 13.1469H13.9046V15.5573C13.9046 15.6719 13.8706 15.7841 13.8065 15.8807C13.7424 15.9774 13.6509 16.0546 13.5427 16.1032C13.4345 16.1518 13.3141 16.1697 13.1956 16.155C13.0771 16.1403 12.9654 16.0935 12.8737 16.0201L9.28064 13.1469H2.90823C2.15855 13.1461 1.43981 12.8602 0.909708 12.3518C0.379602 11.8435 0.0814247 11.1542 0.0805931 10.4353V3.2043C0.0814247 2.48538 0.379602 1.79613 0.909708 1.28777C1.43981 0.779418 2.15855 0.493473 2.90823 0.492676ZM12.6479 8.02498C12.8964 8.02498 13.1394 7.9543 13.3461 7.82187C13.5528 7.68944 13.7138 7.50122 13.809 7.28101C13.9041 7.06079 13.929 6.81847 13.8805 6.58469C13.832 6.35091 13.7123 6.13617 13.5365 5.96763C13.3608 5.79908 13.1368 5.6843 12.8931 5.6378C12.6493 5.5913 12.3966 5.61516 12.167 5.70638C11.9373 5.7976 11.741 5.95206 11.603 6.15025C11.4649 6.34844 11.3912 6.58145 11.3912 6.81981C11.3912 7.13944 11.5236 7.44598 11.7592 7.67199C11.9949 7.898 12.3146 8.02498 12.6479 8.02498ZM8.8777 8.02498C9.12626 8.02498 9.36923 7.9543 9.5759 7.82187C9.78257 7.68944 9.94365 7.50122 10.0388 7.28101C10.1339 7.06079 10.1588 6.81847 10.1103 6.58469C10.0618 6.35091 9.9421 6.13617 9.76634 5.96763C9.59058 5.79908 9.36666 5.6843 9.12288 5.6378C8.87909 5.5913 8.62641 5.61516 8.39677 5.70638C8.16713 5.7976 7.97086 5.95206 7.83277 6.15025C7.69468 6.34844 7.62097 6.58145 7.62097 6.81981C7.62097 7.13944 7.75338 7.44598 7.98906 7.67199C8.22474 7.898 8.54439 8.02498 8.8777 8.02498ZM5.10751 8.02498C5.35607 8.02498 5.59904 7.9543 5.80571 7.82187C6.01238 7.68944 6.17346 7.50122 6.26858 7.28101C6.3637 7.06079 6.38858 6.81847 6.34009 6.58469C6.2916 6.35091 6.17191 6.13617 5.99615 5.96763C5.8204 5.79908 5.59647 5.6843 5.35269 5.6378C5.1089 5.5913 4.85622 5.61516 4.62658 5.70638C4.39694 5.7976 4.20067 5.95206 4.06258 6.15025C3.92449 6.34844 3.85078 6.58145 3.85078 6.81981C3.85078 7.13944 3.98319 7.44598 4.21887 7.67199C4.45455 7.898 4.77421 8.02498 5.10751 8.02498Z" fill="#2D2D2D"/>
</svg>
